<svg xmlns="http://www.w3.org/2000/svg" xmlns:xlink="http://www.w3.org/1999/xlink" xmlns:inkscape="http://www.inkscape.org/namespaces/inkscape" version="1.1" width="596" height="842" viewBox="0 0 596 842">
<path transform="matrix(.75,0,0,.75,0,0)" d="M0 0H794V1123H0Z" fill="#ffffff"/>
<text xml:space="preserve" transform="matrix(1 0 -0 1 0 842)" font-size="12.99975" font-family="Arial" font-weight="bold"><tspan y="-757.8062" x="72 75.61393 84.28477 94.398578">ISO </tspan></text>
<text xml:space="preserve" transform="matrix(1 0 -0 1 0 842)" font-size="11.00025" font-family="Arial" font-weight="bold"><tspan y="-730.4905" x="72 79.337169 86.051799 92.766429 95.82449 98.88256 104.9987 111.71333 114.7714 121.49625 127.61239 131.89148 138.00762 141.06569 147.7803 154.49494 158.15802">English Version: </tspan></text>
<text xml:space="preserve" transform="matrix(1 0 -0 1 0 842)" font-size="11.00025" font-family="Arial" font-weight="bold"><tspan y="-703.9442" x="72 80.55025 87.26488 93.38102 96.43909">Goal:</tspan></text>
<text xml:space="preserve" transform="matrix(1 0 -0 1 0 842)" font-size="11.00025" font-family="Arial"><tspan y="-703.9442" x="100.10217 103.16024 106.21831 111.71843 117.83457 120.27663 126.39277 129.45084 135.56697 138.62505 144.74118 150.85732 156.97345 160.03153 166.14766 168.58972 174.70586 180.20598 185.7061 188.76418 191.82225 197.93839 204.05452 207.1126 216.26943 222.38556 227.88568 230.94376 234.00183 240.11797 246.2341 252.35024 258.46638 264.58253 268.2456 274.36177 280.4779 285.97804 289.0361 291.47816 293.9202 300.03636 306.1525 312.26866 318.3848 323.88493 329.38505 335.5012 338.5548 341.61289"> Isolate and block the most dangerous linebacker. </tspan></text>
<text xml:space="preserve" transform="matrix(1 0 -0 1 0 842)" font-size="11.00025" font-family="Arial" font-weight="bold"><tspan y="-677.39797" x="72 79.942188 86.656818 89.71488 95.831027 101.94717 105.61025">Rules: </tspan></text>
<text xml:space="preserve" transform="matrix(1 0 -0 1 0 842)" font-size="11.00025" font-family="Arial"><tspan y="-650.852" x="90">&#x25cf;</tspan></text>
<text xml:space="preserve" transform="matrix(1 0 -0 1 0 842)" font-size="11.00025" font-family="Arial"><tspan y="-650.852" x="108 114.11614 116.5582 122.67434 128.79048 137.94725 144.06339 150.17952 153.2376 159.35373 164.85385 170.96999">Linemen use </tspan></text>
<text xml:space="preserve" transform="matrix(1 0 -0 1 0 842)" font-size="11.00025" font-family="Arial" font-weight="bold"><tspan y="-650.852" x="174.02806 180.74268 187.4573 194.17194 200.88657 203.94464 210.06078 213.11885 216.78194 222.89807 229.0142 238.79343">double teams</tspan></text>
<text xml:space="preserve" transform="matrix(1 0 -0 1 0 842)" font-size="11.00025" font-family="Arial"><tspan y="-650.852" x="244.90956 247.96764 255.90982 262.02598 268.14213 271.8052 277.92137 280.97944 287.09559 293.21174 299.32789 305.44404 311.56019 317.67634 320.7344 331.72685 334.7849 340.28504 346.40119 355.55796 364.71479 370.83094 376.94709 379.38914 384.88926 391.0054 394.06349 400.17964"> where needed &#x2014; communicate!</tspan></text>
<text xml:space="preserve" transform="matrix(1 0 -0 1 0 842)" font-size="11.00025" font-family="Arial"><tspan y="-621.7598" x="90">&#x25cf;</tspan></text>
<text xml:space="preserve" transform="matrix(1 0 -0 1 0 842)" font-size="11.00025" font-family="Arial" font-weight="bold"><tspan y="-621.7598" x="108 115.942188 119.60527 127.547458 133.66359 139.77973 145.89586">A-Back:</tspan></text>
<text xml:space="preserve" transform="matrix(1 0 -0 1 0 842)" font-size="11.00025" font-family="Arial"><tspan y="-621.7598" x="149.55895 152.61702 159.33164 161.7737 167.88983 174.00597 179.50609 182.56417 185.62224 191.73838 197.8545 200.91259 207.02872 213.14485 215.58692 221.70305 224.76113 230.87726 236.9934 243.10953"> Finds the hole and </tspan></text>
<text xml:space="preserve" transform="matrix(1 0 -0 1 0 842)" font-size="11.00025" font-family="Arial" font-weight="bold"><tspan y="-621.7598" x="246.1676 252.88224 255.9403 259.6034 265.71955 268.77763 272.4407 279.15534 285.27149 288.32957 291.99266 295.05073 299.3298 305.44596 309.10905 312.1671 318.88175 324.9979 328.66099 334.77714 341.49177 348.2064 354.32255 358.60163 361.6597 368.37434 374.49049 378.76957">hits the first defender hard</tspan></text>
<text xml:space="preserve" transform="matrix(1 0 -0 1 0 842)" font-size="11.00025" font-family="Arial"><tspan y="-621.7598" x="385.34324 388.4013 390.84336 396.9595 402.45964 404.90168 411.01783 417.13398"> inside.</tspan></text>
<text xml:space="preserve" transform="matrix(1 0 -0 1 0 842)" font-size="11.00025" font-family="Arial"><tspan y="-592.6675" x="90">&#x25cf;</tspan></text>
<text xml:space="preserve" transform="matrix(1 0 -0 1 0 842)" font-size="11.00025" font-family="Arial" font-weight="bold"><tspan y="-592.6675" x="108 115.942188 123.88437">RB:</tspan></text>
<text xml:space="preserve" transform="matrix(1 0 -0 1 0 842)" font-size="11.00025" font-family="Arial"><tspan y="-592.6675" x="127.547458 130.60553 137.32009 143.43622 145.87828 148.32035 154.43648 162.37866 167.87879 170.93686 174.59995 177.042 183.15814 189.27428 192.33235 195.39043 201.50656 207.6227 213.73883 216.1809 222.29703 228.41316 231.47124 234.52931 240.64545 246.76158 249.81966 257.15684 260.81993 266.93608 273.05223 278.55235 284.05247 287.11054 290.1686 296.28477 299.94786 306.064 312.18016 318.2963 324.41246 327.47053 330.5286 336.64476 342.7609 345.81898 351.93513 358.05128 360.49333 366.60948"> Follows right behind the A-back through the hole.</tspan></text>
<text xml:space="preserve" transform="matrix(1 0 -0 1 0 842)" font-size="11.00025" font-family="Arial"><tspan y="-563.5747" x="90">&#x25cf;</tspan></text>
<text xml:space="preserve" transform="matrix(1 0 -0 1 0 842)" font-size="11.00025" font-family="Arial" font-weight="bold"><tspan y="-563.5747" x="108 115.942188 122.05833 128.77295 135.48758 142.20214 145.86522 149.5283">Handoff:</tspan></text>
<text xml:space="preserve" transform="matrix(1 0 -0 1 0 842)" font-size="11.00025" font-family="Arial"><tspan y="-563.5747" x="153.19139 156.24947 163.58664 166.0287 173.97089 180.08702 185.58715 191.08727 194.14534 200.26148 202.70354 208.81967 214.3198 219.81992 222.26198 228.37812 234.49425"> Always playside.</tspan></text>
<text xml:space="preserve" transform="matrix(1 0 -0 1 0 842)" font-size="11.00025" font-family="Arial"><tspan y="-534.4819" x="90">&#x25cf;</tspan></text>
<text xml:space="preserve" transform="matrix(1 0 -0 1 0 842)" font-size="11.00025" font-family="Arial" font-weight="bold"><tspan y="-534.4819" x="108 111.05807 117.77262 120.83069 128.16786 131.22594 137.94055 144.05669">In Side:</tspan></text>
<text xml:space="preserve" transform="matrix(1 0 -0 1 0 842)" font-size="11.00025" font-family="Arial"><tspan y="-534.4819" x="147.71977 150.77785 158.72003 166.0572 169.11528 171.55735 173.9994 180.11554 186.23168 191.7318 194.78987 200.906 207.02214"> RB lines up </tspan></text>
<text xml:space="preserve" transform="matrix(1 0 -0 1 0 842)" font-size="11.00025" font-family="Arial" font-weight="bold"><tspan y="-534.4819" x="210.08022 216.79483 222.91097 229.0271 235.14324 241.25937 244.31745 251.032 257.14814">backside </tspan></text>
<text xml:space="preserve" transform="matrix(1 0 -0 1 0 842)" font-size="11.00025" font-family="Arial"><tspan y="-534.4819" x="260.2062 266.32237 272.4385 278.55467 281.61274 287.11286 290.77595 296.8921 302.3922 307.89234 314.00849 319.5086 322.56669 325.62477 331.7409 337.85707 340.91514 349.46546 356.8026">and crosses the QB.</tspan></text>
<path transform="matrix(.75,0,0,.75,75,347.49998)" stroke-width="1.333" stroke-linecap="butt" stroke-miterlimit="10" stroke-linejoin="miter" fill="none" stroke="#888888" d="M0 0H593.333"/>
<text xml:space="preserve" transform="matrix(1 0 -0 1 0 842)" font-size="11" font-family="Arial" font-weight="bold"><tspan y="-458.846" x="72 79.942 86.058 92.779 96.442 102.558 108.673999 115.395 121.510997 124.56899 131.90599 138.02199 142.301 148.41699 151.47499 158.19599 164.91698 168.57997">Deutsche Version: </tspan><tspan y="-436.299" x="72 78.712009 81.76401 87.880008 90.93201">Ziel:</tspan></text>
<text xml:space="preserve" transform="matrix(1 0 -0 1 0 842)" font-size="11" font-family="Arial"><tspan y="-436.299" x="94.59501 97.643 105.585 111.701 117.81699 120.868 126.98399 133.09999 136.152 142.26799 148.38399 152.04698 154.48899 156.93099 162.43099 168.54698 174.04698 177.09899 183.21498 189.33098 192.38199 198.49799 200.93999 207.05599 213.17198 219.28798 225.40398 230.90398 236.40398 242.51998 246.18297 249.23197 251.67397 257.17396 263.28996 265.73194 268.17393 274.28993 277.9529 284.0689 290.1849 293.23493 299.35093 305.46693 311.58293 314.63395 320.74995 323.19194 329.30793 334.80793 340.30793 346.42393 352.53993 355.59794"> Den gef&#x00e4;hrlichsten Linebacker isolieren und blocken. </tspan></text>
<text xml:space="preserve" transform="matrix(1 0 -0 1 0 842)" font-size="11" font-family="Arial" font-weight="bold"><tspan y="-413.752" x="72 79.942 86.058 92.770008 98.886 101.944 108.656009 112.31901">Regeln: </tspan></text>
<text xml:space="preserve" transform="matrix(1 0 -0 1 0 842)" font-size="11.00025" font-family="Arial"><tspan y="-387.2046" x="90">&#x25cf;</tspan></text>
<text xml:space="preserve" transform="matrix(1 0 -0 1 0 842)" font-size="11.00025" font-family="Arial"><tspan y="-387.2046" x="108 115.942188 118.38424 124.50038 127.55845 136.10869 139.77178 145.88791 148.32997 154.4461 160.56224 163.62032 169.73645 175.85259 178.91066 184.41078 187.46886">Die O-Line nutzt </tspan></text>
<text xml:space="preserve" transform="matrix(1 0 -0 1 0 842)" font-size="11.00025" font-family="Arial" font-weight="bold"><tspan y="-387.2046" x="190.52693 198.46912 205.18375 211.8983 218.61292 221.67099 227.78713 230.8452 236.74335 242.85948 248.97562 258.75486">Double Teams</tspan></text>
<text xml:space="preserve" transform="matrix(1 0 -0 1 0 842)" font-size="11.00025" font-family="Arial"><tspan y="-387.2046" x="264.871 267.92909 275.87126 281.9874 285.04548 291.16163 297.27778 300.33586 302.7779 308.89405 311.95213 318.06828"> wo n&#x00f6;tig &#x2013; </tspan></text>
<text xml:space="preserve" transform="matrix(1 0 -0 1 0 842)" font-size="11.00025" font-family="Arial" font-weight="bold"><tspan y="-387.2046" x="321.12635 329.0685 335.78315 345.56239 355.3416 362.05635 368.7709 371.82899 377.94514 384.06129 387.72438 390.78245 397.49708 404.2117 407.26979 410.32786 416.444 420.1071 423.16517 429.2813 435.99595 439.65904 445.77519 451.89134 458.60597 464.7221 467.78019 474.4948 480.61097 487.3256 494.04023">Kommunikation ist entscheidend!</tspan></text>
<text xml:space="preserve" transform="matrix(1 0 -0 1 0 842)" font-size="11.00025" font-family="Arial"><tspan y="-358.1118" x="90">&#x25cf;</tspan></text>
<text xml:space="preserve" transform="matrix(1 0 -0 1 0 842)" font-size="11.00025" font-family="Arial"><tspan y="-358.1118" x="108 115.942188 122.05833 125.72141">Der </tspan></text>
<text xml:space="preserve" transform="matrix(1 0 -0 1 0 842)" font-size="11.00025" font-family="Arial" font-weight="bold"><tspan y="-358.1118" x="128.77948 136.72167 140.38475 148.32694 154.44307 160.5592">A-Back</tspan></text>
<text xml:space="preserve" transform="matrix(1 0 -0 1 0 842)" font-size="11.00025" font-family="Arial"><tspan y="-358.1118" x="166.67534 169.73342 175.23354 181.34967 186.8498 192.96593 196.024 199.08208 205.19821 211.31435 216.81447 219.87255 225.98868 232.10482 237.60494 243.72107 246.77915 252.89528 259.0114 265.12757"> sucht das Loch und </tspan></text>
<text xml:space="preserve" transform="matrix(1 0 -0 1 0 842)" font-size="11.00025" font-family="Arial" font-weight="bold"><tspan y="-358.1118" x="268.18565 274.90028 277.95835 284.67298 290.78913 296.90528 300.56837 303.62644 310.34107 316.4572 323.17185 326.22993 332.34608 336.62516 342.7413 346.4044 352.52055 359.2351 362.29319 370.23536 376.3515 380.0146 386.13075 392.84538 399.56 405.67616 409.95524 413.0133 419.72789 425.84403 430.1231">blockt den ersten Defender hart</tspan></text>
<text xml:space="preserve" transform="matrix(1 0 -0 1 0 842)" font-size="11.00025" font-family="Arial"><tspan y="-358.1118" x="433.7862 436.84428 442.96043 449.07658 457.01875 463.1349 466.19297 468.635 474.75117 477.1932 483.30937"> downfield.</tspan></text>
<text xml:space="preserve" transform="matrix(1 0 -0 1 0 842)" font-size="11.00025" font-family="Arial"><tspan y="-329.0195" x="90">&#x25cf;</tspan></text>
<text xml:space="preserve" transform="matrix(1 0 -0 1 0 842)" font-size="11.00025" font-family="Arial"><tspan y="-329.0195" x="108 115.942188 122.05833 125.72141">Der </tspan></text>
<text xml:space="preserve" transform="matrix(1 0 -0 1 0 842)" font-size="11.00025" font-family="Arial" font-weight="bold"><tspan y="-329.0195" x="128.77948 136.72167">RB</tspan></text>
<text xml:space="preserve" transform="matrix(1 0 -0 1 0 842)" font-size="11.00025" font-family="Arial"><tspan y="-329.0195" x="144.66385 147.72193 150.78 156.89614 159.3382 165.45433 168.5124 171.57048 177.68662 180.12868 183.79177 189.9079 195.40802 198.4661 201.52417 207.6403 210.08237 216.1985 219.25658 225.37271 229.0358 232.09387 238.21 244.32614 253.48297 256.54106 263.8782 267.5413 274.87846 280.9946 286.49473 291.99485"> folgt direkt hinter dem A-Back.</tspan></text>
<text xml:space="preserve" transform="matrix(1 0 -0 1 0 842)" font-size="11.00025" font-family="Arial"><tspan y="-299.9272" x="90">&#x25cf;</tspan></text>
<text xml:space="preserve" transform="matrix(1 0 -0 1 0 842)" font-size="11.00025" font-family="Arial" font-weight="bold"><tspan y="-299.9272" x="108 115.942188 122.05833 128.77295 135.48758 142.20214 145.86522 149.5283">Handoff:</tspan></text>
<text xml:space="preserve" transform="matrix(1 0 -0 1 0 842)" font-size="11.00025" font-family="Arial"><tspan y="-299.9272" x="153.19139 156.24947 159.30754 168.46437 177.62114 183.73728 187.40036"> Immer </tspan></text>
<text xml:space="preserve" transform="matrix(1 0 -0 1 0 842)" font-size="11.00025" font-family="Arial" font-weight="bold"><tspan y="-299.9272" x="190.45844 197.79561 200.85369 206.96982 213.08596 219.20209 222.26016 228.9748">Playside</tspan></text>
<text xml:space="preserve" transform="matrix(1 0 -0 1 0 842)" font-size="11.00025" font-family="Arial"><tspan y="-299.9272" x="235.09093">.</tspan></text>
<text xml:space="preserve" transform="matrix(1 0 -0 1 0 842)" font-size="11.00025" font-family="Arial"><tspan y="-270.8345" x="90">&#x25cf;</tspan></text>
<text xml:space="preserve" transform="matrix(1 0 -0 1 0 842)" font-size="11.00025" font-family="Arial" font-weight="bold"><tspan y="-270.8345" x="108 111.05807 117.77262 120.83069 128.16786 131.22594 137.94055 144.05669">In Side:</tspan></text>
<text xml:space="preserve" transform="matrix(1 0 -0 1 0 842)" font-size="11.00025" font-family="Arial"><tspan y="-270.8345" x="147.71977 150.77785 158.72003 166.0572 169.11528 174.6154 177.67348 183.78961 189.90575 192.96382"> RB steht </tspan></text>
<text xml:space="preserve" transform="matrix(1 0 -0 1 0 842)" font-size="11.00025" font-family="Arial" font-weight="bold"><tspan y="-270.8345" x="196.0219 202.73644 208.85257 214.9687 221.08484 227.20098 230.25905 236.97367 243.0898">backside </tspan></text>
<text xml:space="preserve" transform="matrix(1 0 -0 1 0 842)" font-size="11.00025" font-family="Arial"><tspan y="-270.8345" x="246.14788 252.264 258.38017 264.4963">und </tspan></text>
<text xml:space="preserve" transform="matrix(1 0 -0 1 0 842)" font-size="11.00025" font-family="Arial" font-weight="bold"><tspan y="-270.8345" x="267.55439 273.67054 277.94963 284.06578 290.7804 296.28053">kreuzt</tspan></text>
<text xml:space="preserve" transform="matrix(1 0 -0 1 0 842)" font-size="11.00025" font-family="Arial"><tspan y="-270.8345" x="299.9436 303.00169 309.11784 315.23399 321.35014 324.4082 332.95854 340.2957"> den QB.</tspan></text>
<path transform="matrix(.75,0,0,.75,75,610.50027)" stroke-width="1.333" stroke-linecap="butt" stroke-miterlimit="10" stroke-linejoin="miter" fill="none" stroke="#888888" d="M0 0H593.333"/>
</svg>
