<svg xmlns="http://www.w3.org/2000/svg" xmlns:xlink="http://www.w3.org/1999/xlink" xmlns:inkscape="http://www.inkscape.org/namespaces/inkscape" version="1.1" width="596" height="842" viewBox="0 0 596 842">
<path transform="matrix(.75,0,0,.75,0,0)" d="M0 0H794V1123H0Z" fill="#ffffff"/>
<text xml:space="preserve" transform="matrix(.75 0 0 .75 72 72)" font-size="14.666667" font-family="Arial"><tspan y="13.757161" x="72">&#x25cb;</tspan></text>
<text xml:space="preserve" transform="matrix(.75 0 0 .75 72 72)" font-size="14.666667" font-family="Arial"><tspan y="13.757161" x="80.85243"> </tspan></text>
<text xml:space="preserve" transform="matrix(.75 0 0 .75 72 72)" font-size="14.666667" font-family="Arial"><tspan y="13.757161" x="96 106.584278 114.73538 122.88649 131.0376 139.1887 142.99571">Handoff</tspan></text>
<text xml:space="preserve" transform="matrix(.75 0 0 .75 72 72)" font-size="14.666667" font-family="Arial"><tspan y="13.757161" x="147.06769"> </tspan></text>
<text xml:space="preserve" transform="matrix(.75 0 0 .75 72 72)" font-size="14.666667" font-family="Arial"><tspan y="13.757161" x="151.13967 154.39582 161.72394">ist</tspan></text>
<text xml:space="preserve" transform="matrix(.75 0 0 .75 72 72)" font-size="14.666667" font-family="Arial"><tspan y="13.757161" x="165.79592"> </tspan></text>
<text xml:space="preserve" transform="matrix(.75 0 0 .75 72 72)" font-size="14.666667" font-family="Arial" font-weight="bold"><tspan y="13.757161" x="169.86789 173.93987 186.97162 200.00337 208.15448">immer</tspan></text>
<text xml:space="preserve" transform="matrix(.75 0 0 .75 72 72)" font-size="14.666667" font-family="Arial" font-weight="bold"><tspan y="13.757161" x="213.85811"> </tspan></text>
<text xml:space="preserve" transform="matrix(.75 0 0 .75 72 72)" font-size="14.666667" font-family="Arial" font-weight="bold"><tspan y="13.757161" x="217.93009 227.70569 231.77767 239.92877 248.07988 256.231 260.30299 269.2556">Playside</tspan></text>
<text xml:space="preserve" transform="matrix(.75 0 0 .75 72 72)" font-size="14.666667" font-family="Arial"><tspan y="13.757161" x="277.40669">.</tspan></text>
<text xml:space="preserve" transform="matrix(.75 0 0 .75 72 72)" font-size="14.666667" font-family="Arial"><tspan y="13.757161" x="281.47868"> </tspan></text>
<text xml:space="preserve" transform="matrix(.75 0 0 .75 72 72)" font-size="14.666667" font-family="Arial"><tspan y="33.15234" x="96"> </tspan></text>
<text xml:space="preserve" transform="matrix(.75 0 0 .75 72 101.09277)" font-size="14.666667" font-family="Arial"><tspan y="13.757161" x="72">&#x25cb;</tspan></text>
<text xml:space="preserve" transform="matrix(.75 0 0 .75 72 101.09277)" font-size="14.666667" font-family="Arial"><tspan y="13.757161" x="80.85243"> </tspan></text>
<text xml:space="preserve" transform="matrix(.75 0 0 .75 72 101.09277)" font-size="14.666667" font-family="Arial"><tspan y="13.757161" x="96 100.071979">In</tspan></text>
<text xml:space="preserve" transform="matrix(.75 0 0 .75 72 101.09277)" font-size="14.666667" font-family="Arial"><tspan y="13.757161" x="108.22308"> </tspan></text>
<text xml:space="preserve" transform="matrix(.75 0 0 .75 72 101.09277)" font-size="14.666667" font-family="Arial" font-weight="bold"><tspan y="13.757161" x="112.29506 122.07066 126.14264 135.09526">Side</tspan></text>
<text xml:space="preserve" transform="matrix(.75 0 0 .75 72 101.09277)" font-size="14.666667" font-family="Arial"><tspan y="13.757161" x="143.24637"> </tspan></text>
<text xml:space="preserve" transform="matrix(.75 0 0 .75 72 101.09277)" font-size="14.666667" font-family="Arial"><tspan y="13.757161" x="147.31835 154.64647 158.71845 166.86956 175.02066">steht</tspan></text>
<text xml:space="preserve" transform="matrix(.75 0 0 .75 72 101.09277)" font-size="14.666667" font-family="Arial"><tspan y="13.757161" x="179.09264"> </tspan></text>
<text xml:space="preserve" transform="matrix(.75 0 0 .75 72 101.09277)" font-size="14.666667" font-family="Arial"><tspan y="13.757161" x="183.16461 191.31572">er</tspan></text>
<text xml:space="preserve" transform="matrix(.75 0 0 .75 72 101.09277)" font-size="14.666667" font-family="Arial"><tspan y="13.757161" x="196.19637"> </tspan></text>
<text xml:space="preserve" transform="matrix(.75 0 0 .75 72 101.09277)" font-size="14.666667" font-family="Arial" font-weight="bold"><tspan y="13.757161" x="200.26834 209.22097 217.37207 225.52318 233.67429 241.8254 245.89737 254.84999">backside</tspan></text>
<text xml:space="preserve" transform="matrix(.75 0 0 .75 72 101.09277)" font-size="14.666667" font-family="Arial" font-weight="bold"><tspan y="13.757161" x="263.0011"> </tspan></text>
<text xml:space="preserve" transform="matrix(.75 0 0 .75 72 101.09277)" font-size="14.666667" font-family="Arial"><tspan y="13.757161" x="267.07307 275.22419 283.3753">und</tspan></text>
<text xml:space="preserve" transform="matrix(.75 0 0 .75 72 101.09277)" font-size="14.666667" font-family="Arial"><tspan y="13.757161" x="291.5264"> </tspan></text>
<text xml:space="preserve" transform="matrix(.75 0 0 .75 72 101.09277)" font-size="14.666667" font-family="Arial" font-weight="bold"><tspan y="13.757161" x="295.5984 303.7495 309.45314 317.60426 326.5569 333.885">kreuzt</tspan></text>
<text xml:space="preserve" transform="matrix(.75 0 0 .75 72 101.09277)" font-size="14.666667" font-family="Arial"><tspan y="13.757161" x="338.76564"> </tspan></text>
<text xml:space="preserve" transform="matrix(.75 0 0 .75 72 101.09277)" font-size="14.666667" font-family="Arial"><tspan y="13.757161" x="342.8376 350.9887 359.1398">den</tspan></text>
<text xml:space="preserve" transform="matrix(.75 0 0 .75 72 101.09277)" font-size="14.666667" font-family="Arial"><tspan y="13.757161" x="367.2909"> </tspan></text>
<text xml:space="preserve" transform="matrix(.75 0 0 .75 72 101.09277)" font-size="14.666667" font-family="Arial"><tspan y="13.757161" x="371.36289 382.763 392.53858">QB.</tspan></text>
<text xml:space="preserve" transform="matrix(.75 0 0 .75 72 101.09277)" font-size="14.666667" font-family="Arial"><tspan y="13.757161" x="396.61058"> </tspan></text>
<text xml:space="preserve" transform="matrix(.75 0 0 .75 72 101.09277)" font-size="14.666667" font-family="Arial"><tspan y="33.15169" x="96"> </tspan></text>
<text xml:space="preserve" transform="matrix(.75 0 0 .75 72 142.18506)" font-size="14.666667" font-family="Arial"><tspan y="13.757161" x="601.7008"> </tspan></text>
<path transform="matrix(.75,0,0,.75,72,152.50293)" stroke-width="1.3333334" stroke-linecap="butt" stroke-miterlimit="10" stroke-linejoin="miter" fill="none" stroke="#888888" d="M4-1.3372396H597.3333"/>
<text xml:space="preserve" transform="matrix(.75 0 0 .75 72 168.73145)" font-size="17.333334" font-family="Arial" font-weight="bold"><tspan y="18.92513" x="155"> </tspan></text>
</svg>
