<svg xmlns="http://www.w3.org/2000/svg" xmlns:xlink="http://www.w3.org/1999/xlink" xmlns:inkscape="http://www.inkscape.org/namespaces/inkscape" version="1.1" width="612" height="792" viewBox="0 0 612 792">
<defs>
<clipPath id="clip_1">
<path transform="matrix(1,0,0,1,28,28)" d="M0 0H555.75V735.39187H0V0Z" clip-rule="evenodd"/>
</clipPath>
</defs>
<g clip-path="url(#clip_1)">
<path transform="matrix(1,0,0,1,28,28)" d="M194.27642 227.40161V225.12216C194.68166 223.77983 195.21353 222.52614 195.87203 221.36109 196.53054 220.19603 197.22704 219.08165 197.96152 218.0179 198.69602 216.95417 199.44316 215.94107 200.20298 214.97864 200.96279 214.0162 201.64662 213.05379 202.25447 212.09136 202.86232 211.12892 203.3562 210.16649 203.73612 209.20406 204.11602 208.24163 204.30597 207.2412 204.30597 206.20279 204.30597 204.75914 203.98938 203.68274 203.3562 202.97357 202.72303 202.26442 201.93788 201.89717 201.00078 201.87184 199.91172 201.87184 199.0126 202.31507 198.30344 203.20153 197.59429 204.08797 197.16371 205.56961 197.01175 207.64644H194.50437C194.58036 206.10147 194.79563 204.8098 195.1502 203.77138 195.50479 202.73297 195.98601 201.90984 196.59386 201.30199 197.2017 200.69414 197.86022 200.2509 198.56937 199.9723 199.27854 199.69371 200.06368 199.56708 200.92479 199.5924 202.72303 199.5924 204.192 200.18759 205.33173 201.37796 206.47144 202.56835 207.0413 204.30326 207.0413 206.58269 207.0413 207.72241 206.88935 208.74817 206.58542 209.65995 206.2815 210.57172 205.85092 211.44551 205.29373 212.2813 204.73653 213.1171 204.12868 213.96556 203.47017 214.82668 202.81168 215.6878 202.07718 216.59958 201.26671 217.56201 200.45624 218.52445 199.69643 219.63884 198.98728 220.9052 198.2781 222.17156 197.54363 223.57721 196.78382 225.12216H207.19327V227.40161H194.27642Z" fill="#171919"/>
<path transform="matrix(1,0,0,1,28,28)" d="M221.62973 213.68697C221.62973 211.43285 221.55376 209.55864 221.4018 208.06433 221.24983 206.57003 220.99655 205.35433 220.64197 204.41722 220.2874 203.48012 219.88216 202.83428 219.42627 202.47969 218.97039 202.12512 218.4132 201.9225 217.75469 201.87184 217.1215 201.87184 216.5643 202.0618 216.08309 202.44171 215.60187 202.82161 215.19664 203.48012 214.86739 204.41722 214.53813 205.35433 214.29753 206.55738 214.14556 208.02634 213.99359 209.49532 213.90496 211.38219 213.87963 213.68697 213.87963 215.94107 213.95561 217.81529 214.10758 219.30959 214.25954 220.8039 214.5128 222.01959 214.86739 222.9567 215.22197 223.8938 215.6272 224.53964 216.08309 224.89423 216.53897 225.24881 217.09618 225.45142 217.75469 225.50208 218.38787 225.50208 218.94506 225.31212 219.42627 224.93222 219.90749 224.5523 220.31273 223.8938 220.64197 222.9567 220.97122 222.01959 221.21184 220.81656 221.3638 219.34758 221.51576 217.8786 221.6044 215.99173 221.62973 213.68697ZM224.36507 213.68697C224.36507 216.16902 224.23844 218.2965 223.98516 220.0694 223.73189 221.8423 223.32666 223.29862 222.76946 224.43834 222.21227 225.57805 221.51576 226.41385 220.67996 226.94573 219.84416 227.47759 218.86908 227.7562 217.75469 227.78153 216.64029 227.78153 215.66519 227.51558 214.82939 226.98372 213.99359 226.45185 213.30977 225.60338 212.7779 224.43834 212.24602 223.27329 211.84079 221.81697 211.5622 220.0694 211.2836 218.32183 211.14429 216.19435 211.14429 213.68697 211.14429 211.2049 211.27094 209.07743 211.5242 207.30452 211.77747 205.53162 212.18271 204.0753 212.7399 202.93558 213.2971 201.79587 213.99359 200.96007 214.82939 200.42819 215.66519 199.89633 216.64029 199.61772 217.75469 199.5924 218.86908 199.5924 219.84416 199.85834 220.67996 200.39022 221.51576 200.92208 222.1996 201.77054 222.73146 202.93558 223.26334 204.10063 223.66857 205.55695 223.94718 207.30452 224.22577 209.0521 224.36507 211.17957 224.36507 213.68697Z" fill="#171919"/>
<path transform="matrix(1,0,0,1,28,28)" d="M228.01216 227.40161V225.12216C228.4174 223.77983 228.94927 222.52614 229.60778 221.36109 230.26628 220.19603 230.96279 219.08165 231.69727 218.0179 232.43175 216.95417 233.17891 215.94107 233.93872 214.97864 234.69853 214.0162 235.38237 213.05379 235.99022 212.09136 236.59807 211.12892 237.09195 210.16649 237.47187 209.20406 237.85176 208.24163 238.04172 207.2412 238.04172 206.20279 238.04172 204.75914 237.72513 203.68274 237.09195 202.97357 236.45877 202.26442 235.67363 201.89717 234.73653 201.87184 233.64746 201.87184 232.74834 202.31507 232.03919 203.20153 231.33002 204.08797 230.89946 205.56961 230.7475 207.64644H228.24011C228.31609 206.10147 228.53137 204.8098 228.88596 203.77138 229.24054 202.73297 229.72176 201.90984 230.3296 201.30199 230.93746 200.69414 231.59597 200.2509 232.30512 199.9723 233.01428 199.69371 233.79943 199.56708 234.66054 199.5924 236.45877 199.5924 237.92775 200.18759 239.06748 201.37796 240.20719 202.56835 240.77706 204.30326 240.77706 206.58269 240.77706 207.72241 240.62509 208.74817 240.32117 209.65995 240.01725 210.57172 239.58667 211.44551 239.02948 212.2813 238.47228 213.1171 237.86443 213.96556 237.20592 214.82668 236.54743 215.6878 235.81293 216.59958 235.00246 217.56201 234.19199 218.52445 233.43218 219.63884 232.72303 220.9052 232.01386 222.17156 231.27938 223.57721 230.51956 225.12216H240.92902V227.40161H228.01216Z" fill="#171919"/>
<path transform="matrix(1,0,0,1,28,28)" d="M247.76734 217.97992C247.76734 219.37291 247.85599 220.53795 248.03327 221.47505 248.21056 222.41216 248.46384 223.18465 248.79309 223.7925 249.12235 224.40035 249.52758 224.8309 250.00879 225.08419 250.49 225.33745 251.03453 225.47675 251.6424 225.50208 252.17426 225.50208 252.65547 225.40077 253.08605 225.19815 253.5166 224.99553 253.8965 224.64095 254.22576 224.13442 254.55501 223.62787 254.79563 222.96936 254.94759 222.15889 255.09955 221.34842 255.18819 220.348 255.21352 219.15763 255.21352 217.94193 255.12488 216.9415 254.94759 216.15636 254.7703 215.37122 254.51703 214.73804 254.18778 214.25682 253.85852 213.7756 253.49127 213.45902 253.08605 213.30706 252.6808 213.15509 252.25025 213.06644 251.79436 213.04113 250.9079 213.04113 250.13542 213.28173 249.47692 213.76294 248.81842 214.24416 248.24855 214.7887 247.76734 215.39655V217.97992ZM254.8336 205.06307C254.7323 204.37923 254.58034 203.8347 254.37772 203.42946 254.17511 203.02423 253.92183 202.69498 253.6179 202.44171 253.31398 202.18843 253.02272 202.03647 252.74413 201.98583 252.46552 201.93517 252.17426 201.89717 251.87033 201.87184 250.65464 201.87184 249.6922 202.74564 248.98303 204.49321 248.27388 206.24079 247.89397 209.02677 247.84333 212.85117 248.40052 212.26865 249.03369 211.77477 249.74286 211.36952 250.45201 210.9643 251.22449 210.76168 252.06029 210.76168 252.8201 210.76168 253.5546 210.90097 254.26375 211.17957 254.97292 211.45818 255.59343 211.93939 256.1253 212.62322 256.65718 213.30706 257.1004 214.18083 257.45497 215.24459 257.80955 216.30832 257.97419 217.62534 257.94886 219.19562 257.94886 221.8803 257.42967 223.98246 256.39125 225.50208 255.35282 227.0217 253.90917 227.78153 252.06029 227.78153 250.86992 227.78153 249.84416 227.59157 248.98303 227.21166 248.12192 226.83176 247.38744 226.16059 246.77957 225.19815 246.17173 224.23572 245.74117 222.94403 245.4879 221.32309 245.23462 219.70217 245.08266 217.65067 245.032 215.1686 245.032 212.40795 245.18396 210.0525 245.4879 208.10233 245.79183 206.15213 246.24771 204.54386 246.85556 203.2775 247.46341 202.01114 248.18523 201.0867 249.02103 200.50418 249.85683 199.92165 250.83193 199.61772 251.94632 199.5924 252.83277 199.5924 253.57991 199.71904 254.18778 199.9723 254.79563 200.22559 255.31484 200.58016 255.74539 201.03606 256.17597 201.49195 256.51786 202.0618 256.77116 202.74564 257.0244 203.42946 257.21437 204.15129 257.341 204.9111L254.8336 205.06307Z" fill="#171919"/>
<path transform="matrix(1,0,0,1,28,28)" d="M273.44908 212.50925H276.5643C278.0586 212.50925 279.211 212.10402 280.02146 211.29355 280.83195 210.48308 281.24983 209.21672 281.27516 207.49448 281.27516 205.77222 280.8699 204.50588 280.05946 203.6954 279.249 202.88494 278.08393 202.47969 276.5643 202.47969H273.44908V212.50925ZM270.48579 199.9723H276.9442C278.03327 199.9723 279.02104 200.1496 279.90748 200.50418 280.79396 200.85877 281.5664 201.3653 282.2249 202.0238 282.88343 202.68231 283.3773 203.46746 283.70655 204.37923 284.0358 205.29102 284.2131 206.32942 284.23844 207.49448 284.23844 208.6342 284.0738 209.65995 283.74455 210.57172 283.41529 211.4835 282.92143 212.2813 282.2629 212.96514 281.6044 213.64897 280.83195 214.15552 279.94548 214.48477 279.05903 214.81401 278.0586 214.9913 276.9442 215.01663H273.44908V227.40161H270.48579V199.9723Z" fill="#171919"/>
<path transform="matrix(1,0,0,1,28,28)" d="M299.5107 213.68697C299.5107 211.35686 299.38407 209.44466 299.1308 207.95037 298.87754 206.45606 298.5356 205.27835 298.10505 204.41722 297.6745 203.5561 297.16795 202.94824 296.58543 202.59368 296.0029 202.23909 295.3824 202.07447 294.72389 202.0998 294.06538 202.0998 293.44486 202.26442 292.86235 202.59368 292.27983 202.92292 291.77326 203.51811 291.3427 204.37923 290.91215 205.24036 290.57023 206.43073 290.31697 207.95037 290.0637 209.46999 289.93705 211.38219 289.93705 213.68697 289.93705 216.01706 290.0637 217.92926 290.31697 219.42356 290.57023 220.91786 290.91215 222.09557 291.3427 222.9567 291.77326 223.81783 292.27983 224.42568 292.86235 224.78026 293.44486 225.13483 294.06538 225.29946 294.72389 225.27413 295.3824 225.27413 296.0029 225.1095 296.58543 224.78026 297.16795 224.451 297.6745 223.8558 298.10505 222.99469 298.5356 222.13356 298.87754 220.94319 299.1308 219.42356 299.38407 217.90393 299.5107 215.99173 299.5107 213.68697ZM302.47398 213.68697C302.47398 216.245 302.2967 218.41048 301.9421 220.18338 301.58753 221.95627 301.05567 223.41259 300.3465 224.5523 299.63734 225.69203 298.82688 226.51517 297.9151 227.0217 297.00334 227.52825 295.93959 227.78153 294.72389 227.78153 293.55885 227.78153 292.50776 227.52825 291.57066 227.0217 290.63356 226.51517 289.8104 225.7047 289.10127 224.5903 288.3921 223.4759 287.8729 222.01959 287.54365 220.22136 287.2144 218.42314 287.0244 216.245 286.97377 213.68697 286.97377 211.12892 287.15107 208.96344 287.50566 207.19055 287.86024 205.41765 288.3921 203.96134 289.10127 202.82161 289.8104 201.68189 290.62089 200.85877 291.53266 200.35222 292.44444 199.84568 293.50819 199.5924 294.72389 199.5924 295.88893 199.5924 296.94 199.84568 297.8771 200.35222 298.8142 200.85877 299.63734 201.66922 300.3465 202.78362 301.05567 203.89801 301.57487 205.35433 301.9041 207.15256 302.23338 208.95078 302.42335 211.12892 302.47398 213.68697Z" fill="#171919"/>
<path transform="matrix(1,0,0,1,28,28)" d="M307.18486 199.9723 310.45204 221.39908H310.528L314.631 199.9723H317.0624L321.31739 221.39908H321.39338L324.43263 199.9723H327.16795L322.76103 227.40161H320.25364L315.9227 205.86087H315.8467L311.51579 227.40161H309.0084L304.4495 199.9723H307.18486Z" fill="#171919"/>
<path transform="matrix(1,0,0,1,28,28)" d="M342.4782 199.9723V202.47969H332.90458V211.82541H339.97084V214.33281H332.90458V224.89423H342.9341V227.40161H329.94129V199.9723H342.4782Z" fill="#171919"/>
<path transform="matrix(1,0,0,1,28,28)" d="M349.77247 211.97737H352.35585C354.4833 211.97737 355.95228 211.57215 356.76277 210.76168 357.5732 209.9512 357.97846 208.7735 357.97846 207.22853 357.97846 205.68358 357.5732 204.50588 356.76277 203.6954 355.95228 202.88494 354.4833 202.47969 352.35585 202.47969H349.77247V211.97737ZM346.80918 199.9723H353.41957C354.50865 199.9723 355.50907 200.12427 356.42085 200.42819 357.3326 200.73212 358.1304 201.20067 358.81425 201.83385 359.49809 202.46703 360.01728 203.20153 360.37187 204.03733 360.72645 204.87311 360.9164 205.8862 360.9417 207.07657 360.9417 208.62154 360.58717 209.9892 359.878 211.17957 359.16883 212.36995 358.05445 213.24373 356.5348 213.80094L361.16969 227.40161H358.05445L353.6475 214.40879 349.77247 214.56075V227.40161H346.80918V199.9723Z" fill="#171919"/>
<path transform="matrix(1,0,0,1,28,28)" d="M229.20345 280.61033H232.01694L230.62757 273.87187H230.59282L229.20345 280.61033ZM231.54802 272.93403 234.3094 285.47315H232.95476L232.20798 281.75657H229.0124L228.26563 285.47315H226.91098L229.67237 272.93403H231.54802Z" fill="#171919"/>
<path transform="matrix(1,0,0,1,28,28)" d="M235.61194 272.93403H240.99578V274.08027H236.96659V278.3526H239.98848V279.49885H236.96659V285.47315H235.61194V272.93403Z" fill="#171919"/>
<path transform="matrix(1,0,0,1,28,28)" d="M247.50847 276.7201C247.41585 275.72438 247.21901 275.00654 246.91799 274.56657 246.61696 274.1266 246.19435 273.9066 245.65018 273.9066 245.25652 273.9066 244.91497 273.9992 244.62552 274.18449 244.33606 274.36973 244.09871 274.67076 243.91345 275.08757 243.72821 275.50437 243.59506 276.04856 243.514 276.7201 243.43297 277.3916 243.38666 278.21946 243.37508 279.20359 243.37508 280.17616 243.4156 280.9982 243.49665 281.66975 243.5777 282.34126 243.71663 282.89125 243.91345 283.3196 244.11029 283.74803 244.34764 284.04905 244.62552 284.22273 244.90338 284.3964 245.24495 284.489 245.65018 284.50059 245.96279 284.50059 246.24066 284.4427 246.48381 284.3269 246.72695 284.21113 246.94113 284.02589 247.12639 283.77116 247.31165 283.51646 247.4448 283.18647 247.52584 282.78123 247.60689 282.376 247.65898 281.8839 247.68215 281.30503H249.03678C249.01363 282.70597 248.71259 283.77696 248.13368 284.51795 247.55478 285.25895 246.72695 285.63523 245.65018 285.64683 245.09442 285.64683 244.59078 285.53684 244.13924 285.31684 243.68769 285.09687 243.3056 284.72636 242.993 284.20536 242.68039 283.68434 242.44304 283.0186 242.28095 282.2081 242.11885 281.39765 242.03202 280.39616 242.02043 279.20359 242.02043 278.0226 242.10149 277.02113 242.26358 276.19908 242.42568 275.377 242.66881 274.71128 242.993 274.20185 243.31719 273.6924 243.69927 273.3277 244.13924 273.1077 244.57921 272.88774 245.08286 272.77195 245.65018 272.76039 246.58802 272.76039 247.32901 273.08457 247.87319 273.7329 248.41735 274.3813 248.74733 275.377 248.86312 276.7201H247.50847Z" fill="#171919"/>
<path transform="matrix(1,0,0,1,28,28)" d="M256.26155 272.93403V284.3269H260.32545V285.47315H254.90689V272.93403H256.26155Z" fill="#171919"/>
<path transform="matrix(1,0,0,1,28,28)" d="M266.97709 285.47315H265.7961V284.48323C265.4951 284.78425 265.15354 285.05055 264.77146 285.2821 264.38938 285.51368 264.04783 285.63523 263.7468 285.64683 263.12159 285.64683 262.63529 285.46159 262.28794 285.09107 261.9406 284.72059 261.76695 284.1185 261.76695 283.28489V276.4422H263.01737V283.1112C263.01737 283.63224 263.09843 284.0085 263.2605 284.24009 263.4226 284.47166 263.67155 284.5932 264.0073 284.6048 264.30833 284.6048 264.59779 284.50639 264.87565 284.30955 265.15354 284.1127 265.4372 283.84065 265.72666 283.4933V276.4422H266.97709V285.47315Z" fill="#171919"/>
<path transform="matrix(1,0,0,1,28,28)" d="M268.90486 276.4422H273.594V277.27583L270.01637 284.43113H273.594V285.47315H268.62699V284.5353L272.1004 277.48423H268.90486V276.4422Z" fill="#171919"/>
<path transform="matrix(1,0,0,1,28,28)" d="M278.891 280.12406C278.86784 279.1515 278.75205 278.43943 278.54365 277.98789 278.33525 277.53636 277.94737 277.31059 277.38005 277.31059 277.14848 277.31059 276.94587 277.35688 276.7722 277.4495 276.5985 277.5421 276.4422 277.69267 276.30329 277.90107 276.16435 278.10948 276.06013 278.3989 275.99067 278.7694 275.9212 279.13993 275.88069 279.59147 275.86909 280.12406H278.891ZM275.86909 281.16609V281.66975C275.86909 282.2255 275.89805 282.6886 275.95594 283.0591 276.01383 283.4296 276.118 283.73063 276.26853 283.9622 276.41908 284.19377 276.5927 284.35588 276.78956 284.4485 276.9864 284.5411 277.2411 284.5932 277.5537 284.6048 277.79685 284.6048 277.99949 284.55848 278.16157 284.46586 278.32368 284.37324 278.46839 284.24009 278.59574 284.0664 278.7231 283.89274 278.8215 283.71327 278.891 283.528 278.96046 283.34278 279.01835 283.13438 279.06468 282.9028L280.24565 283.04176C280.1993 283.3775 280.1009 283.7017 279.95039 284.0143 279.79988 284.3269 279.60304 284.6048 279.3599 284.84794 279.11677 285.09107 278.8331 285.2821 278.5089 285.42106 278.18473 285.55998 277.80845 285.63523 277.38005 285.64683 276.43064 285.64683 275.73594 285.2763 275.296 284.5353 274.85603 283.7943 274.63023 282.60179 274.61866 280.95768 274.61866 279.32518 274.83866 278.1384 275.2786 277.3974 275.71858 276.6564 276.41908 276.28013 277.38005 276.26853 277.85475 276.26853 278.26579 276.36695 278.6131 276.56379 278.96046 276.7606 279.2441 277.05006 279.4641 277.43214 279.68409 277.8142 279.85197 278.27156 279.96775 278.80415 280.08354 279.33674 280.14143 279.92723 280.14143 280.5756V281.16609H275.86909Z" fill="#171919"/>
<path transform="matrix(1,0,0,1,28,28)" d="M281.91288 276.4422H283.1633V277.53636H283.19807C283.3833 277.25846 283.55699 277.03849 283.71907 276.87638 283.88117 276.7143 284.05485 276.58695 284.24009 276.4943 284.42533 276.40168 284.61637 276.34379 284.8132 276.32066 285.01 276.2975 285.23579 276.28013 285.4905 276.26853V277.4495C285.25895 277.4495 285.03898 277.47267 284.83058 277.51899 284.62217 277.56529 284.42533 277.64634 284.24009 277.76213 284.05485 277.8779 283.86958 278.03999 283.68434 278.24839 283.49909 278.4568 283.3254 278.72309 283.1633 279.04728V285.47315H281.91288V276.4422Z" fill="#171919"/>
<path transform="matrix(1,0,0,1,28,28)" d="M286.84516 276.4422H288.02613V277.43214C288.32716 277.1311 288.6687 276.8648 289.05079 276.63325 289.43287 276.40168 289.7744 276.28013 290.07545 276.26853 290.70066 276.26853 291.18696 276.4538 291.5343 276.82429 291.88163 277.1948 292.0553 277.79685 292.0553 278.63047V285.47315H290.80488V278.80415C290.80488 278.28315 290.72383 277.90684 290.56175 277.67527 290.39964 277.44374 290.1507 277.32215 289.81495 277.31059 289.51393 277.31059 289.22447 277.40898 288.9466 277.6058 288.6687 277.80265 288.38505 278.0747 288.09559 278.42207V285.47315H286.84516V276.4422Z" fill="#171919"/>
<path transform="matrix(1,0,0,1,28,28)" d="M299.66215 272.93403V284.3269H303.72608V285.47315H298.3075V272.93403H299.66215Z" fill="#171919"/>
<path transform="matrix(1,0,0,1,28,28)" d="M305.21965 272.93403H306.4701V274.39289H305.21965V272.93403ZM305.21965 276.4422H306.4701V285.47315H305.21965V276.4422Z" fill="#171919"/>
<path transform="matrix(1,0,0,1,28,28)" d="M309.63093 280.95768C309.63093 281.71028 309.65986 282.3181 309.71775 282.78123 309.77565 283.24436 309.86247 283.61488 309.97825 283.89274 310.09403 284.1706 310.25035 284.35588 310.44718 284.4485 310.64399 284.5411 310.87556 284.5932 311.14186 284.6048 311.40815 284.6048 311.6339 284.55848 311.81919 284.46586 312.00444 284.37324 312.16075 284.18797 312.2881 283.9101 312.41545 283.63224 312.5081 283.26173 312.56599 282.79859 312.62385 282.33549 312.6528 281.72184 312.6528 280.95768 312.6528 280.21669 312.62385 279.60884 312.56599 279.13414 312.5081 278.65943 312.42124 278.2889 312.30546 278.0226 312.18968 277.75633 312.03337 277.57109 311.83656 277.46687 311.6397 277.36268 311.40815 277.31059 311.14186 277.31059 310.87556 277.31059 310.64979 277.35688 310.46455 277.4495 310.2793 277.5421 310.123 277.7274 309.9956 278.00526 309.86827 278.28315 309.77565 278.65943 309.71775 279.13414 309.65986 279.60884 309.63093 280.21669 309.63093 280.95768ZM308.38047 280.95768C308.38047 279.32518 308.60047 278.1384 309.04045 277.3974 309.4804 276.6564 310.18089 276.28013 311.14186 276.26853 312.09126 276.26853 312.78596 276.63905 313.22593 277.38005 313.6659 278.12104 313.89167 279.31358 313.90324 280.95768 313.90324 282.59019 313.68327 283.77696 313.2433 284.51795 312.8033 285.25895 312.10285 285.63523 311.14186 285.64683 310.19245 285.64683 309.49778 285.2763 309.0578 284.5353 308.61784 283.7943 308.39207 282.60179 308.38047 280.95768Z" fill="#171919"/>
<path transform="matrix(1,0,0,1,28,28)" d="M315.7789 276.4422H316.95988V277.43214C317.2609 277.1311 317.60246 276.8648 317.98454 276.63325 318.3666 276.40168 318.70817 276.28013 319.0092 276.26853 319.6344 276.26853 320.1207 276.4538 320.46806 276.82429 320.81538 277.1948 320.98905 277.79685 320.98905 278.63047V285.47315H319.73863V278.80415C319.73863 278.28315 319.65757 277.90684 319.49549 277.67527 319.33338 277.44374 319.08445 277.32215 318.7487 277.31059 318.44767 277.31059 318.1582 277.40898 317.8803 277.6058 317.60246 277.80265 317.3188 278.0747 317.02934 278.42207V285.47315H315.7789V276.4422Z" fill="#171919"/>
<path transform="matrix(1,0,0,1,28,28)" d="M326.9981 278.73469C326.94023 278.53785 326.87654 278.3526 326.80708 278.17893 326.73759 278.00526 326.6392 277.85475 326.5118 277.7274 326.38447 277.6 326.23976 277.50163 326.07765 277.43214 325.91557 277.36268 325.70137 277.32215 325.43507 277.31059 325.13404 277.31059 324.89088 277.41477 324.70564 277.62318 324.5204 277.83158 324.42778 278.0863 324.42778 278.38734 324.42778 278.68836 324.5204 278.94889 324.70564 279.16886 324.89088 279.38883 325.12825 279.60304 325.4177 279.81144 325.70716 280.01985 326.01396 280.21669 326.33815 280.40193 326.66233 280.5872 326.96916 280.80717 327.2586 281.0619 327.54808 281.3166 327.77964 281.61186 327.9533 281.9476 328.12696 282.28337 328.22538 282.68284 328.24855 283.14595 328.24855 283.50486 328.19065 283.83485 328.07487 284.13587 327.95909 284.4369 327.7854 284.69743 327.55387 284.9174 327.3223 285.1374 327.06178 285.31684 326.77235 285.45579 326.48289 285.59474 326.1529 285.6584 325.7824 285.64683 324.96037 285.64683 324.32936 285.43843 323.88938 285.0216 323.4494 284.6048 323.11943 284.0143 322.89945 283.25016L324.0457 283.007C324.11515 283.20384 324.1962 283.39488 324.28883 283.5801 324.38145 283.76539 324.49143 283.93907 324.6188 284.10115 324.74617 284.26325 324.90248 284.3848 325.0877 284.46586 325.27296 284.5469 325.4756 284.5932 325.69557 284.6048 325.86924 284.6048 326.0313 284.57005 326.18186 284.50059 326.33238 284.43113 326.47129 284.3327 326.59867 284.20536 326.726 284.07798 326.82444 283.93327 326.8939 283.77116 326.96339 283.60908 326.9981 283.4296 326.9981 283.2328 326.9981 282.88545 326.9055 282.59019 326.7202 282.34706 326.53498 282.1039 326.29765 281.87815 326.00819 281.66975 325.71873 281.46134 325.4119 281.2587 325.0877 281.0619 324.76353 280.86506 324.4567 280.65086 324.16725 280.41929 323.8778 280.18775 323.64625 279.90986 323.47257 279.58567 323.2989 279.26148 323.20048 278.8852 323.1773 278.4568 323.1773 278.16737 323.2352 277.88948 323.35099 277.62318 323.46678 277.35688 323.62889 277.1253 323.83729 276.9285 324.0457 276.73167 324.28883 276.56959 324.56669 276.4422 324.84458 276.31486 325.16297 276.25697 325.52189 276.26853 326.21659 276.26853 326.77235 276.4538 327.18916 276.82429 327.60597 277.1948 327.88963 277.7274 328.04014 278.42207L326.9981 278.73469Z" fill="#171919"/>
<path transform="matrix(1,0,0,1,28,28)" d="M261.3154 310.8987C261.29225 310.57453 261.2401 310.27928 261.1591 310.01298 261.07804 309.74668 260.96226 309.50935 260.81175 309.30094 260.66123 309.09254 260.4644 308.93043 260.22126 308.81465 259.97813 308.69886 259.70024 308.64097 259.38764 308.64097 258.8666 308.64097 258.4498 308.79148 258.13719 309.09254 257.8246 309.39356 257.66828 309.793 257.66828 310.29087 257.66828 310.76557 257.78987 311.17079 258.033 311.50657 258.27613 311.84233 258.58876 312.15495 258.97084 312.4444 259.3529 312.73384 259.75813 313.01753 260.18653 313.29539 260.6149 313.57325 261.02015 313.88587 261.40223 314.23323 261.7843 314.58055 262.09114 314.99159 262.3227 315.46629 262.55424 315.94099 262.6816 316.5141 262.70478 317.18565 262.70478 318.19294 262.43269 318.97447 261.8885 319.5302 261.34434 320.08595 260.54545 320.3696 259.49183 320.3812 259.00556 320.3812 258.56559 320.29435 258.17195 320.1207 257.77827 319.94703 257.4483 319.70387 257.182 319.39128 256.9157 319.07865 256.70729 318.70817 256.55677 318.27976 256.40626 317.85139 256.32524 317.37089 256.31364 316.8383H257.56407C257.58723 317.57929 257.7667 318.16398 258.10246 318.59239 258.43824 319.02076 258.94767 319.23497 259.63078 319.23497 260.1981 319.23497 260.64964 319.06129 260.9854 318.71394 261.32118 318.3666 261.48905 317.85139 261.48905 317.16828 261.48905 316.69358 261.3675 316.28254 261.12437 315.93519 260.8812 315.58787 260.5686 315.25788 260.18653 314.94526 259.80445 314.63267 259.3992 314.3432 258.97084 314.0769 258.54243 313.8106 258.13719 313.49223 257.7551 313.1217 257.37306 312.75123 257.06623 312.36335 256.83467 311.9581 256.6031 311.55287 256.47575 311.03767 256.45259 310.4124 256.45259 309.97245 256.52204 309.573 256.66099 309.21409 256.79994 308.85517 257.00834 308.54835 257.2862 308.29365 257.56407 308.0389 257.88249 307.84208 258.2414 307.70317 258.6003 307.5642 259.01133 307.49476 259.47447 307.49476 260.37757 307.49476 261.1012 307.78419 261.64537 308.3631 262.18955 308.94203 262.49635 309.7872 262.56584 310.8987H261.3154Z" fill="#171919"/>
<path transform="matrix(1,0,0,1,28,28)" d="M268.27964 314.85844C268.25648 313.88587 268.1407 313.1738 267.93229 312.72227 267.72389 312.27073 267.336 312.04496 266.76869 312.04496 266.5371 312.04496 266.3345 312.09126 266.16084 312.18388 265.98716 312.2765 265.83088 312.42704 265.69194 312.63545 265.55299 312.84385 265.4488 313.13328 265.3793 313.50379 265.30986 313.8743 265.26933 314.32585 265.25776 314.85844H268.27964ZM265.25776 315.90046V316.4041C265.25776 316.95988 265.28669 317.42298 265.34458 317.7935 265.40248 318.16398 265.50669 318.465 265.6572 318.69657 265.8077 318.92814 265.98139 319.09025 266.1782 319.18287 266.37504 319.27549 266.62977 319.32759 266.94236 319.33918 267.1855 319.33918 267.38813 319.29286 267.5502 319.20024 267.7123 319.1076 267.85704 318.97447 267.98439 318.80079 268.11177 318.6271 268.21018 318.44764 268.27964 318.2624 268.3491 318.07716 268.40699 317.86875 268.4533 317.63719L269.63429 317.77613C269.58796 318.11189 269.48954 318.43608 269.33903 318.7487 269.1885 319.06129 268.9917 319.33918 268.74855 319.5823 268.5054 319.82545 268.22175 320.01649 267.89756 320.15544 267.57337 320.29435 267.19709 320.3696 266.76869 320.3812 265.81929 320.3812 265.1246 320.01069 264.68464 319.26969 264.24467 318.5287 264.0189 317.33616 264.0073 315.69206 264.0073 314.05955 264.2273 312.87278 264.66728 312.13179 265.10725 311.39079 265.8077 311.0145 266.76869 311.0029 267.24339 311.0029 267.65443 311.10133 268.00178 311.29817 268.3491 311.49497 268.63276 311.78443 268.85276 312.1665 269.07273 312.54859 269.2406 313.00593 269.35639 313.5385 269.47218 314.0711 269.53007 314.6616 269.53007 315.30998V315.90046H265.25776Z" fill="#171919"/>
<path transform="matrix(1,0,0,1,28,28)" d="M271.40574 311.17658H272.5867V312.1665C272.88774 311.86549 273.22929 311.59919 273.61137 311.3676 273.99345 311.13606 274.335 311.0145 274.63603 311.0029 275.26124 311.0029 275.74754 311.18818 276.09489 311.55867 276.4422 311.92918 276.61589 312.53123 276.61589 313.36485V320.20753H275.36546V313.5385C275.36546 313.01753 275.2844 312.6412 275.1223 312.40965 274.9602 312.1781 274.71128 312.05653 274.37553 312.04496 274.0745 312.04496 273.78504 312.14335 273.50715 312.34019 273.22929 312.53703 272.94563 312.80909 272.65617 313.15644V320.20753H271.40574V311.17658Z" fill="#171919"/>
<path transform="matrix(1,0,0,1,28,28)" d="M279.16886 307.6684H280.4193V309.12727H279.16886V307.6684ZM279.16886 311.17658H280.4193V320.20753H279.16886V311.17658Z" fill="#171919"/>
<path transform="matrix(1,0,0,1,28,28)" d="M283.58015 315.69206C283.58015 316.44465 283.60908 317.0525 283.66697 317.5156 283.72486 317.97874 283.81169 318.34925 283.92747 318.6271 284.04325 318.90498 284.19956 319.09025 284.3964 319.18287 284.5932 319.27549 284.82478 319.32759 285.09107 319.33918 285.35737 319.33918 285.58314 319.29286 285.7684 319.20024 285.95365 319.1076 286.10997 318.92234 286.2373 318.64448 286.36466 318.3666 286.4573 317.9961 286.51518 317.53297 286.57307 317.06986 286.60203 316.4562 286.60203 315.69206 286.60203 314.95106 286.57307 314.3432 286.51518 313.8685 286.4573 313.3938 286.37046 313.0233 286.25468 312.757 286.1389 312.4907 285.98258 312.30546 285.78578 312.20124 285.58894 312.09706 285.35737 312.04496 285.09107 312.04496 284.82478 312.04496 284.599 312.09126 284.41377 312.18388 284.22853 312.2765 284.0722 312.46177 283.94483 312.73963 283.81748 313.01753 283.72486 313.3938 283.66697 313.8685 283.60908 314.3432 283.58015 314.95106 283.58015 315.69206ZM282.32969 315.69206C282.32969 314.05955 282.54969 312.87278 282.98966 312.13179 283.42964 311.39079 284.1301 311.0145 285.09107 311.0029 286.04048 311.0029 286.73518 311.3734 287.17515 312.1144 287.6151 312.8554 287.84089 314.04795 287.85246 315.69206 287.85246 317.32456 287.63249 318.51133 287.1925 319.25233 286.75254 319.99333 286.05207 320.3696 285.09107 320.3812 284.14167 320.3812 283.447 320.01069 283.00703 319.26969 282.56706 318.5287 282.34129 317.33616 282.32969 315.69206Z" fill="#171919"/>
<path transform="matrix(1,0,0,1,28,28)" d="M289.6239 311.17658H290.87437V312.27073H290.9091C291.09434 311.99284 291.268 311.77287 291.43009 311.61076 291.5922 311.44868 291.76588 311.32133 291.9511 311.22868 292.13636 311.13606 292.3274 311.07817 292.52424 311.05503 292.72108 311.03187 292.94685 311.0145 293.20155 311.0029V312.18388C292.97 312.18388 292.75 312.20704 292.5416 312.25337 292.3332 312.29966 292.13636 312.3807 291.9511 312.4965 291.76588 312.61228 291.5806 312.77436 291.39537 312.98277 291.2101 313.19117 291.03645 313.45747 290.87437 313.78166V320.20753H289.6239V311.17658Z" fill="#171919"/>
<path transform="matrix(1,0,0,1,28,28)" d="M298.06437 313.46907C298.00648 313.27223 297.94279 313.08699 297.87333 312.9133 297.80387 312.73963 297.70545 312.5891 297.57807 312.46177 297.4507 312.33439 297.306 312.236 297.1439 312.1665 296.9818 312.09706 296.7676 312.05653 296.5013 312.04496 296.2003 312.04496 295.95716 312.14915 295.77189 312.35755 295.58665 312.56596 295.49403 312.82069 295.49403 313.1217 295.49403 313.42274 295.58665 313.68327 295.77189 313.90324 295.95716 314.1232 296.1945 314.3374 296.48396 314.5458 296.7734 314.7542 297.08024 314.95106 297.40443 315.1363 297.7286 315.32157 298.0354 315.54154 298.32487 315.79627 298.61433 316.05097 298.8459 316.34623 299.01957 316.68199 299.19325 317.01774 299.29164 317.4172 299.3148 317.8803 299.3148 318.23924 299.2569 318.5692 299.1411 318.87025 299.02534 319.17127 298.85169 319.4318 298.62013 319.65177 298.38856 319.87178 298.12806 320.0512 297.8386 320.19017 297.54914 320.3291 297.21916 320.39277 296.84867 320.3812 296.0266 320.3812 295.3956 320.1728 294.95564 319.75599 294.51567 319.33918 294.1857 318.7487 293.9657 317.98454L295.11195 317.74137C295.1814 317.9382 295.26246 318.12925 295.35508 318.31449 295.4477 318.49977 295.5577 318.67344 295.68507 318.8355 295.8124 318.99763 295.96873 319.11918 296.15397 319.20024 296.3392 319.28129 296.54185 319.32759 296.7618 319.33918 296.9355 319.33918 297.0976 319.3044 297.2481 319.23497 297.39863 319.1655 297.53758 319.06709 297.66493 318.93974 297.79228 318.81236 297.8907 318.66764 297.96015 318.50553 298.02964 318.34346 298.06437 318.16398 298.06437 317.96717 298.06437 317.6198 297.97175 317.32456 297.7865 317.08143 297.60124 316.8383 297.3639 316.61253 297.07444 316.4041 296.78498 316.1957 296.47816 315.99308 296.15397 315.79627 295.82978 315.59944 295.52296 315.38523 295.23353 315.15367 294.94407 314.92213 294.7125 314.64424 294.53883 314.32005 294.36515 313.99586 294.26673 313.61958 294.2436 313.19117 294.2436 312.90174 294.30149 312.62385 294.41725 312.35755 294.53303 312.09126 294.69514 311.85969 294.90354 311.66288 295.11195 311.46604 295.35508 311.30397 295.63298 311.17658 295.91084 311.04924 296.22923 310.99134 296.58815 311.0029 297.28285 311.0029 297.8386 311.18818 298.2554 311.55867 298.6722 311.92918 298.95588 312.46177 299.10639 313.15644L298.06437 313.46907Z" fill="#171919"/>
<path transform="matrix(1,0,0,1,28,28)" d="M261.89549 364.4857C262.78913 364.57823 263.51255 364.9465 264.06568 365.59059 264.6188 366.23466 264.8723 367.0054 264.8262 367.90284 264.72209 368.86549 264.2984 369.62464 263.5552 370.18025L263.44938 371.5998C263.08525 372.2213 262.6084 372.72016 262.01887 373.0963 261.42936 373.47248 260.7963 373.7823 260.11976 374.0258L260.38539 370.55067C259.77229 370.27507 259.2909 369.85746 258.94126 369.29786 258.59159 368.73823 258.43763 368.11177 258.47938 367.41847 258.50025 367.15879 258.55113 366.90983 258.63203 366.6715 258.27964 366.02006 257.7663 365.40913 257.09199 364.83869 256.41767 364.26826 255.60541 363.83717 254.6552 363.54545 254.3372 363.4635 254.01667 363.40653 253.69358 363.37449 254.02733 363.27763 254.35807 363.2047 254.68573 363.1557 256.21183 362.9008 257.6219 363.04936 258.91593 363.6014 259.53059 363.84309 260.17268 364.17179 260.8423 364.58747 261.1786 364.49504 261.52967 364.46113 261.89549 364.4857ZM258.0001 376.3663C259.14024 376.25608 260.19438 375.9509 261.16255 375.4508 262.1307 374.9507 262.8913 374.22709 263.4443 373.27989 263.1578 374.70094 262.61827 375.88755 261.82566 376.83973 261.03306 377.7919 259.99665 378.6076 258.7165 379.28684 258.5086 380.03157 258.1016 380.62437 257.49549 381.06523 256.88935 381.50608 256.1895 381.7043 255.39603 381.65989 254.59758 381.58299 253.9313 381.28294 253.39719 380.7598 252.86307 380.23667 252.54737 379.59474 252.45005 378.83399L252.2801 378.719 250.98265 377.8408C250.40431 376.5247 250.25643 375.15669 250.53899 373.7368L252.54978 375.18385 253.6722 375.97654C254.29735 375.48878 255.03342 375.2676 255.8804 375.31306 256.74674 375.39958 257.45329 375.75065 258.0001 376.3663ZM249.80731 370.90379C249.30672 371.798 249.02117 372.7563 248.95063 373.77864 248.88008 374.80097 249.00893 375.788 249.33718 376.73976 248.35169 375.80027 247.66823 374.81108 247.28682 373.77217 246.90541 372.73323 246.74018 371.50538 246.79113 370.08866 246.1146 369.42027 245.79778 368.59159 245.84069 367.60264 245.9318 366.70854 246.29958 365.98478 246.94402 365.4313 247.58846 364.87788 248.35973 364.62373 249.25782 364.66889 249.61652 364.6994 249.95232 364.78285 250.26525 364.9192L252.03079 364.07563C252.49347 364.16145 252.93885 364.29203 253.36692 364.4674 253.786 364.62834 254.17609 364.84577 254.53716 365.1197 254.8594 365.34388 255.1562 365.60169 255.42757 365.89308L254.44252 366.35609 253.1807 366.91883 252.16207 367.37165C252.19718 367.60334 252.20633 367.8411 252.18955 368.085 252.12476 368.78388 251.87604 369.38468 251.44338 369.88743 251.01073 370.39018 250.46537 370.72895 249.80731 370.90379ZM271.9444 372.1778H272.93858C274.07695 372.09608 274.61289 372.52925 274.54643 373.4773V379.41914C274.5644 379.42225 274.77699 379.4348 275.18418 379.45677 275.5914 379.47874 276.08537 379.49128 276.66609 379.49443 277.23197 379.49128 277.70957 379.47874 278.09889 379.45677 278.4882 379.43479 278.69105 379.42225 278.7074 379.41914V373.45594C278.74186 371.93577 278.33003 370.87055 277.4719 370.26026 276.61378 369.64997 275.10267 369.35633 272.93858 369.3794H271.9454V364.7401C271.92018 364.73674 271.70198 364.72315 271.29084 364.6994 270.87968 364.67567 270.4269 364.66209 269.93257 364.6587 269.34825 364.66209 268.84474 364.67567 268.42207 364.6994 267.9994 364.72315 267.778 364.7367 267.75794 364.7401V379.4191C267.77366 379.42225 267.97727 379.43479 268.36875 379.45677 268.76026 379.47874 269.2452 379.49128 269.8237 379.49443 270.36973 379.49128 270.8539 379.47874 271.2763 379.45677 271.6987 379.43479 271.9214 379.42225 271.9444 379.4191V372.1778ZM291.27897 376.44566 291.27894 369.45674C291.24986 369.4535 291.0193 369.4406 290.58723 369.41804 290.15516 369.39549 289.69615 369.3826 289.21015 369.3794 288.66526 369.3826 288.18565 369.3955 287.77125 369.41807 287.35688 369.4406 287.13877 369.4535 287.1169 369.45674V376.04066C287.12083 376.59864 286.6836 376.87678 285.80525 376.8751 284.94535 376.8773 284.5159 376.59916 284.51695 376.04066V369.45674C284.4896 369.4535 284.26268 369.4406 283.83616 369.41804 283.40965 369.39549 282.94767 369.3826 282.45018 369.3794 281.9167 369.3826 281.43638 369.3955 281.00923 369.41807 280.5821 369.4406 280.35618 369.4535 280.3315 369.45674V376.44566C280.33827 377.69416 280.8079 378.5227 281.7404 378.93128 282.6729 379.33988 284.02784 379.5276 285.80525 379.49443 287.58216 379.52766 288.93699 379.3401 289.8697 378.93168 290.80238 378.5233 291.27214 377.6946 291.27897 376.44566ZM300.03953 364.7401 300.04057 369.3794H298.29536C296.2764 369.36045 294.78205 369.74333 293.81227 370.528 292.8425 371.3127 292.36067 372.61299 292.36677 374.42878 292.3394 375.9781 292.7966 377.19306 293.73838 378.0737 294.68016 378.9543 296.27073 379.4028 298.51008 379.4191H304.22599V364.7401C304.20256 364.73674 303.98103 364.72315 303.56147 364.6994 303.14195 364.67567 302.665 364.66209 302.1307 364.6587 301.56278 364.66209 301.07685 364.67567 300.673 364.6994 300.26914 364.72315 300.05799 364.7367 300.03953 364.7401ZM300.03953 372.0964V376.78047H298.6444C297.7567 376.77946 297.17097 376.58149 296.88713 376.18656 296.60325 375.7916 296.47364 375.2057 296.49827 374.42878 296.49314 373.55827 296.6438 372.94859 296.95033 372.59974 297.25685 372.2509 297.74998 372.0831 298.4297 372.0964H300.03953ZM306.11976 365.08815V379.41914C306.14326 379.42225 306.3781 379.4348 306.8243 379.45677 307.2705 379.47874 307.787 379.49128 308.37376 379.49443 308.87028 379.49128 309.33168 379.47874 309.75794 379.45677 310.18424 379.43479 310.41108 379.42225 310.43849 379.41914V364.6587L306.11976 365.08815Z" fill="#171919"/>
<text fill="#171919" xml:space="preserve" transform="matrix(.5427246 0 0 .5427246 28 28)" font-size="16" font-family="Arial"><tspan y="1344" x="457.73439 466.5 471.5 474.5 482.5 486.5 494.5 502.5 506.5 510.5 518.5 526.5 530.5 538.5 546.5 550.5 558.5">Printed: 10/12/25</tspan></text>
</g>
</svg>
