<svg xmlns="http://www.w3.org/2000/svg" xmlns:xlink="http://www.w3.org/1999/xlink" xmlns:inkscape="http://www.inkscape.org/namespaces/inkscape" version="1.1" width="596" height="842" viewBox="0 0 596 842">
<path transform="matrix(.75,0,0,.75,0,0)" d="M0 0H794V1123H0Z" fill="#ffffff"/>
<text xml:space="preserve" transform="matrix(.75 0 0 .75 72 72)" font-size="17.333334" font-family="Arial" font-weight="bold"><tspan y="16.258463" x="0 13.478378 24.063096 34.64781 46.205537 58.71936 70.277088 75.0914 86.649127">OFFENSIVE</tspan></text>
<text xml:space="preserve" transform="matrix(.75 0 0 .75 72 72)" font-size="17.333334" font-family="Arial" font-weight="bold"><tspan y="16.258463" x="98.20685"> </tspan></text>
<text xml:space="preserve" transform="matrix(.75 0 0 .75 72 72)" font-size="17.333334" font-family="Arial" font-weight="bold"><tspan y="16.258463" x="103.021167 114.57889 127.09271 131.90703 142.49175 155.97013 167.52785 181.00623 192.56395 205.07778 209.89209">PHILOSOPHIE</tspan></text>
<text xml:space="preserve" transform="matrix(.75 0 0 .75 72 72)" font-size="17.333334" font-family="Arial" font-weight="bold"><tspan y="16.258463" x="221.44982"> </tspan></text>
<text xml:space="preserve" transform="matrix(.75 0 0 .75 72 93.19104)" font-size="14.666667" font-family="Arial"><tspan y="24.423829" x="0 10.584274 18.735383 26.063508 34.214616 39.09526">Unsere</tspan></text>
<text xml:space="preserve" transform="matrix(.75 0 0 .75 72 93.19104)" font-size="14.666667" font-family="Arial"><tspan y="24.423829" x="47.24637"> </tspan></text>
<text xml:space="preserve" transform="matrix(.75 0 0 .75 72 93.19104)" font-size="14.666667" font-family="Arial" font-weight="bold"><tspan y="24.423829" x="51.318346 61.90262 70.85524 79.80786 84.68851 94.46411 103.41673 107.48871 111.560688 120.513309 128.66442 137.61704 146.56966 155.52228 159.59426">Run-Philosophie</tspan></text>
<text xml:space="preserve" transform="matrix(.75 0 0 .75 72 93.19104)" font-size="14.666667" font-family="Arial"><tspan y="24.423829" x="167.74536"> </tspan></text>
<text xml:space="preserve" transform="matrix(.75 0 0 .75 72 93.19104)" font-size="14.666667" font-family="Arial"><tspan y="24.423829" x="171.81734 175.07349 182.40161">ist</tspan></text>
<text xml:space="preserve" transform="matrix(.75 0 0 .75 72 93.19104)" font-size="14.666667" font-family="Arial"><tspan y="24.423829" x="186.47359"> </tspan></text>
<text xml:space="preserve" transform="matrix(.75 0 0 .75 72 93.19104)" font-size="14.666667" font-family="Arial"><tspan y="24.423829" x="190.54557 198.69667 201.95282 210.10393 214.1759 222.32701 229.65514 237.80625">einfach:</tspan></text>
<text xml:space="preserve" transform="matrix(.75 0 0 .75 72 93.19104)" font-size="14.666667" font-family="Arial"><tspan y="24.423829" x="241.87822"> </tspan></text>
<text xml:space="preserve" transform="matrix(.75 0 0 .75 72 93.19104)" font-size="14.666667" font-family="Arial" font-weight="bold"><tspan y="43.818849" x="0 13.704361 17.776337">Wir</tspan></text>
<text xml:space="preserve" transform="matrix(.75 0 0 .75 72 93.19104)" font-size="14.666667" font-family="Arial" font-weight="bold"><tspan y="43.818849" x="23.479966"> </tspan></text>
<text xml:space="preserve" transform="matrix(.75 0 0 .75 72 93.19104)" font-size="14.666667" font-family="Arial" font-weight="bold"><tspan y="43.818849" x="27.55194 35.70305 44.65567 53.60829 62.560914 70.71202">k&#x00f6;nnen</tspan></text>
<text xml:space="preserve" transform="matrix(.75 0 0 .75 72 93.19104)" font-size="14.666667" font-family="Arial" font-weight="bold"><tspan y="43.818849" x="79.66464"> </tspan></text>
<text xml:space="preserve" transform="matrix(.75 0 0 .75 72 93.19104)" font-size="14.666667" font-family="Arial" font-weight="bold"><tspan y="43.818849" x="83.73662 87.80859 95.9597 104.91232 113.06343">jedes</tspan></text>
<text xml:space="preserve" transform="matrix(.75 0 0 .75 72 93.19104)" font-size="14.666667" font-family="Arial" font-weight="bold"><tspan y="43.818849" x="121.21454"> </tspan></text>
<text xml:space="preserve" transform="matrix(.75 0 0 .75 72 93.19104)" font-size="14.666667" font-family="Arial" font-weight="bold"><tspan y="43.818849" x="125.286518 135.06212 139.1341 147.2852">Play</tspan></text>
<text xml:space="preserve" transform="matrix(.75 0 0 .75 72 93.19104)" font-size="14.666667" font-family="Arial" font-weight="bold"><tspan y="43.818849" x="155.43631"> </tspan></text>
<text xml:space="preserve" transform="matrix(.75 0 0 .75 72 93.19104)" font-size="14.666667" font-family="Arial" font-weight="bold"><tspan y="43.818849" x="159.50829 167.6594 176.61202">aus</tspan></text>
<text xml:space="preserve" transform="matrix(.75 0 0 .75 72 93.19104)" font-size="14.666667" font-family="Arial" font-weight="bold"><tspan y="43.818849" x="184.76313"> </tspan></text>
<text xml:space="preserve" transform="matrix(.75 0 0 .75 72 93.19104)" font-size="14.666667" font-family="Arial" font-weight="bold"><tspan y="43.818849" x="188.8351 192.90708 201.05818 210.0108 218.16191">jeder</tspan></text>
<text xml:space="preserve" transform="matrix(.75 0 0 .75 72 93.19104)" font-size="14.666667" font-family="Arial" font-weight="bold"><tspan y="43.818849" x="223.86554"> </tspan></text>
<text xml:space="preserve" transform="matrix(.75 0 0 .75 72 93.19104)" font-size="14.666667" font-family="Arial" font-weight="bold"><tspan y="43.818849" x="227.93752 236.89014 245.84276 251.54639 264.57814 272.72926 277.6099 281.6819 290.6345">Formation</tspan></text>
<text xml:space="preserve" transform="matrix(.75 0 0 .75 72 93.19104)" font-size="14.666667" font-family="Arial" font-weight="bold"><tspan y="43.818849" x="299.5871"> </tspan></text>
<text xml:space="preserve" transform="matrix(.75 0 0 .75 72 93.19104)" font-size="14.666667" font-family="Arial" font-weight="bold"><tspan y="43.818849" x="303.6591 310.9872">zu</tspan></text>
<text xml:space="preserve" transform="matrix(.75 0 0 .75 72 93.19104)" font-size="14.666667" font-family="Arial" font-weight="bold"><tspan y="43.818849" x="319.93983"> </tspan></text>
<text xml:space="preserve" transform="matrix(.75 0 0 .75 72 93.19104)" font-size="14.666667" font-family="Arial" font-weight="bold"><tspan y="43.818849" x="324.0118 328.0838 336.2349 345.1875 353.33863">jeder</tspan></text>
<text xml:space="preserve" transform="matrix(.75 0 0 .75 72 93.19104)" font-size="14.666667" font-family="Arial" font-weight="bold"><tspan y="43.818849" x="359.04225"> </tspan></text>
<text xml:space="preserve" transform="matrix(.75 0 0 .75 72 93.19104)" font-size="14.666667" font-family="Arial" font-weight="bold"><tspan y="43.818849" x="363.11424 372.06684 380.21797 384.28993">Zeit</tspan></text>
<text xml:space="preserve" transform="matrix(.75 0 0 .75 72 93.19104)" font-size="14.666667" font-family="Arial" font-weight="bold"><tspan y="43.818849" x="389.1706"> </tspan></text>
<text xml:space="preserve" transform="matrix(.75 0 0 .75 72 93.19104)" font-size="14.666667" font-family="Arial" font-weight="bold"><tspan y="43.818849" x="393.24256 397.3145 405.46565 414.41828 419.2989 427.45 436.40266">laufen.</tspan></text>
<text xml:space="preserve" transform="matrix(.75 0 0 .75 72 93.19104)" font-size="14.666667" font-family="Arial" font-weight="bold"><tspan y="43.818849" x="440.4746"> </tspan></text>
<text xml:space="preserve" transform="matrix(.75 0 0 .75 72 142.28357)" font-size="14.666667" font-family="Arial"><tspan y="13.757161" x="0 10.584274 13.840424">Die</tspan></text>
<text xml:space="preserve" transform="matrix(.75 0 0 .75 72 142.28357)" font-size="14.666667" font-family="Arial"><tspan y="13.757161" x="21.991532"> </tspan></text>
<text xml:space="preserve" transform="matrix(.75 0 0 .75 72 142.28357)" font-size="14.666667" font-family="Arial"><tspan y="13.757161" x="26.063508 36.64778 44.79889 48.870866 57.021974 65.17308 72.501209">Defense</tspan></text>
<text xml:space="preserve" transform="matrix(.75 0 0 .75 72 142.28357)" font-size="14.666667" font-family="Arial"><tspan y="13.757161" x="80.65231"> </tspan></text>
<text xml:space="preserve" transform="matrix(.75 0 0 .75 72 142.28357)" font-size="14.666667" font-family="Arial"><tspan y="13.757161" x="84.72429 92.052417 100.20352 103.45967">soll</tspan></text>
<text xml:space="preserve" transform="matrix(.75 0 0 .75 72 142.28357)" font-size="14.666667" font-family="Arial"><tspan y="13.757161" x="106.71582"> </tspan></text>
<text xml:space="preserve" transform="matrix(.75 0 0 .75 72 142.28357)" font-size="14.666667" font-family="Arial" font-weight="bold"><tspan y="13.757161" x="110.787799 119.74042 123.81239 131.9635 144.99526 153.14636 157.21834">niemals</tspan></text>
<text xml:space="preserve" transform="matrix(.75 0 0 .75 72 142.28357)" font-size="14.666667" font-family="Arial" font-weight="bold"><tspan y="13.757161" x="165.36945"> </tspan></text>
<text xml:space="preserve" transform="matrix(.75 0 0 .75 72 142.28357)" font-size="14.666667" font-family="Arial" font-weight="bold"><tspan y="13.757161" x="169.44142 180.84152 184.9135 193.0646 201.21572 209.36682 218.31945">wissen,</tspan></text>
<text xml:space="preserve" transform="matrix(.75 0 0 .75 72 142.28357)" font-size="14.666667" font-family="Arial" font-weight="bold"><tspan y="13.757161" x="222.39142"> </tspan></text>
<text xml:space="preserve" transform="matrix(.75 0 0 .75 72 142.28357)" font-size="14.666667" font-family="Arial" font-weight="bold"><tspan y="13.757161" x="226.4634 237.8635 246.0146">was</tspan></text>
<text xml:space="preserve" transform="matrix(.75 0 0 .75 72 142.28357)" font-size="14.666667" font-family="Arial" font-weight="bold"><tspan y="13.757161" x="254.16571"> </tspan></text>
<text xml:space="preserve" transform="matrix(.75 0 0 .75 72 142.28357)" font-size="14.666667" font-family="Arial" font-weight="bold"><tspan y="13.757161" x="258.23768 266.3888 275.3414 288.37318 301.4049">kommt</tspan></text>
<text xml:space="preserve" transform="matrix(.75 0 0 .75 72 142.28357)" font-size="14.666667" font-family="Arial"><tspan y="13.757161" x="306.28559">,</tspan></text>
<text xml:space="preserve" transform="matrix(.75 0 0 .75 72 142.28357)" font-size="14.666667" font-family="Arial"><tspan y="13.757161" x="310.35755"> </tspan></text>
<text xml:space="preserve" transform="matrix(.75 0 0 .75 72 142.28357)" font-size="14.666667" font-family="Arial"><tspan y="13.757161" x="314.4295 322.58064 330.73173">nur</tspan></text>
<text xml:space="preserve" transform="matrix(.75 0 0 .75 72 142.28357)" font-size="14.666667" font-family="Arial"><tspan y="13.757161" x="335.61238"> </tspan></text>
<text xml:space="preserve" transform="matrix(.75 0 0 .75 72 142.28357)" font-size="14.666667" font-family="Arial"><tspan y="13.757161" x="339.68437 350.26863 358.41975 361.6759">weil</tspan></text>
<text xml:space="preserve" transform="matrix(.75 0 0 .75 72 142.28357)" font-size="14.666667" font-family="Arial"><tspan y="13.757161" x="364.93205"> </tspan></text>
<text xml:space="preserve" transform="matrix(.75 0 0 .75 72 142.28357)" font-size="14.666667" font-family="Arial"><tspan y="13.757161" x="369.00404 376.33216 379.58833">sie</tspan></text>
<text xml:space="preserve" transform="matrix(.75 0 0 .75 72 142.28357)" font-size="14.666667" font-family="Arial"><tspan y="13.757161" x="387.73939"> </tspan></text>
<text xml:space="preserve" transform="matrix(.75 0 0 .75 72 142.28357)" font-size="14.666667" font-family="Arial"><tspan y="13.757161" x="391.81138 399.96247 408.1136 415.4417 423.59284 428.47346">unsere</tspan></text>
<text xml:space="preserve" transform="matrix(.75 0 0 .75 72 142.28357)" font-size="14.666667" font-family="Arial"><tspan y="13.757161" x="436.62458"> </tspan></text>
<text xml:space="preserve" transform="matrix(.75 0 0 .75 72 142.28357)" font-size="14.666667" font-family="Arial"><tspan y="13.757161" x="440.69654 449.64918 457.80027 462.6809 474.88969 483.04078 487.11277 490.3689 498.52003">Formation</tspan></text>
<text xml:space="preserve" transform="matrix(.75 0 0 .75 72 142.28357)" font-size="14.666667" font-family="Arial"><tspan y="13.757161" x="506.67115"> </tspan></text>
<text xml:space="preserve" transform="matrix(.75 0 0 .75 72 142.28357)" font-size="14.666667" font-family="Arial"><tspan y="13.757161" x="510.7431 518.8942 527.0453 535.1964">oder</tspan></text>
<text xml:space="preserve" transform="matrix(.75 0 0 .75 72 142.28357)" font-size="14.666667" font-family="Arial"><tspan y="13.757161" x="540.0771"> </tspan></text>
<text xml:space="preserve" transform="matrix(.75 0 0 .75 72 142.28357)" font-size="14.666667" font-family="Arial"><tspan y="13.757161" x="544.14907 556.3578 564.5089 568.58096 571.83706 579.98818">Motion</tspan></text>
<text xml:space="preserve" transform="matrix(.75 0 0 .75 72 142.28357)" font-size="14.666667" font-family="Arial"><tspan y="13.757161" x="588.1393"> </tspan></text>
<text xml:space="preserve" transform="matrix(.75 0 0 .75 72 142.28357)" font-size="14.666667" font-family="Arial"><tspan y="33.15218" x="0 7.328125 10.584274 18.735383 26.88649 30.958466">sieht.</tspan></text>
<text xml:space="preserve" transform="matrix(.75 0 0 .75 72 142.28357)" font-size="14.666667" font-family="Arial"><tspan y="33.15218" x="35.03044"> </tspan></text>
<text xml:space="preserve" transform="matrix(.75 0 0 .75 72 142.28357)" font-size="14.666667" font-family="Arial"><tspan y="52.5472" x="0 10.584274 18.735383 26.063508 34.214616">Unser</tspan></text>
<text xml:space="preserve" transform="matrix(.75 0 0 .75 72 142.28357)" font-size="14.666667" font-family="Arial"><tspan y="52.5472" x="39.09526"> </tspan></text>
<text xml:space="preserve" transform="matrix(.75 0 0 .75 72 142.28357)" font-size="14.666667" font-family="Arial"><tspan y="52.5472" x="43.167238 52.119859 55.376008 63.527116">Ziel</tspan></text>
<text xml:space="preserve" transform="matrix(.75 0 0 .75 72 142.28357)" font-size="14.666667" font-family="Arial"><tspan y="52.5472" x="66.783267"> </tspan></text>
<text xml:space="preserve" transform="matrix(.75 0 0 .75 72 142.28357)" font-size="14.666667" font-family="Arial"><tspan y="52.5472" x="70.85524 74.11139 81.439517">ist</tspan></text>
<text xml:space="preserve" transform="matrix(.75 0 0 .75 72 142.28357)" font-size="14.666667" font-family="Arial"><tspan y="52.5472" x="85.51149"> </tspan></text>
<text xml:space="preserve" transform="matrix(.75 0 0 .75 72 142.28357)" font-size="14.666667" font-family="Arial"><tspan y="52.5472" x="89.583469 97.73457 105.0627">es,</tspan></text>
<text xml:space="preserve" transform="matrix(.75 0 0 .75 72 142.28357)" font-size="14.666667" font-family="Arial"><tspan y="52.5472" x="109.134677"> </tspan></text>
<text xml:space="preserve" transform="matrix(.75 0 0 .75 72 142.28357)" font-size="14.666667" font-family="Arial" font-weight="bold"><tspan y="52.5472" x="113.20665 121.35776 129.50887 138.46149 147.41411 155.56522 159.63719 163.70917">schnell,</tspan></text>
<text xml:space="preserve" transform="matrix(.75 0 0 .75 72 142.28357)" font-size="14.666667" font-family="Arial" font-weight="bold"><tspan y="52.5472" x="167.78115"> </tspan></text>
<text xml:space="preserve" transform="matrix(.75 0 0 .75 72 142.28357)" font-size="14.666667" font-family="Arial" font-weight="bold"><tspan y="52.5472" x="171.85312 180.80574 189.75836 197.90947 206.06058 210.13256 218.28366 226.43477">physisch</tspan></text>
<text xml:space="preserve" transform="matrix(.75 0 0 .75 72 142.28357)" font-size="14.666667" font-family="Arial" font-weight="bold"><tspan y="52.5472" x="235.38739"> </tspan></text>
<text xml:space="preserve" transform="matrix(.75 0 0 .75 72 142.28357)" font-size="14.666667" font-family="Arial" font-weight="bold"><tspan y="52.5472" x="239.45937 248.41199 257.36463">und</tspan></text>
<text xml:space="preserve" transform="matrix(.75 0 0 .75 72 142.28357)" font-size="14.666667" font-family="Arial" font-weight="bold"><tspan y="52.5472" x="266.31724"> </tspan></text>
<text xml:space="preserve" transform="matrix(.75 0 0 .75 72 142.28357)" font-size="14.666667" font-family="Arial" font-weight="bold"><tspan y="52.5472" x="270.38923 278.54035 291.57209 299.7232 305.42683">smart</tspan></text>
<text xml:space="preserve" transform="matrix(.75 0 0 .75 72 142.28357)" font-size="14.666667" font-family="Arial"><tspan y="52.5472" x="310.30744"> </tspan></text>
<text xml:space="preserve" transform="matrix(.75 0 0 .75 72 142.28357)" font-size="14.666667" font-family="Arial"><tspan y="52.5472" x="314.37944 321.70756">zu</tspan></text>
<text xml:space="preserve" transform="matrix(.75 0 0 .75 72 142.28357)" font-size="14.666667" font-family="Arial"><tspan y="52.5472" x="329.85865"> </tspan></text>
<text xml:space="preserve" transform="matrix(.75 0 0 .75 72 142.28357)" font-size="14.666667" font-family="Arial"><tspan y="52.5472" x="333.93064 341.25877 349.40986 352.66603 360.81715 364.07328 372.22438 380.3755">spielen.</tspan></text>
<text xml:space="preserve" transform="matrix(.75 0 0 .75 72 142.28357)" font-size="14.666667" font-family="Arial"><tspan y="52.5472" x="384.44746"> </tspan></text>
<text xml:space="preserve" transform="matrix(.75 0 0 .75 72 197.92237)" font-size="14.666667" font-family="Arial"><tspan y="13.757161" x="0 7.328125 15.479233 23.63034 31.781449">Jeder</tspan></text>
<text xml:space="preserve" transform="matrix(.75 0 0 .75 72 197.92237)" font-size="14.666667" font-family="Arial"><tspan y="13.757161" x="36.662096"> </tspan></text>
<text xml:space="preserve" transform="matrix(.75 0 0 .75 72 197.92237)" font-size="14.666667" font-family="Arial"><tspan y="13.757161" x="40.73407 50.509675 58.66078 61.91693 70.06804 73.32419 81.475299">Spieler</tspan></text>
<text xml:space="preserve" transform="matrix(.75 0 0 .75 72 197.92237)" font-size="14.666667" font-family="Arial"><tspan y="13.757161" x="86.35594"> </tspan></text>
<text xml:space="preserve" transform="matrix(.75 0 0 .75 72 197.92237)" font-size="14.666667" font-family="Arial"><tspan y="13.757161" x="90.42792 93.68407">in</tspan></text>
<text xml:space="preserve" transform="matrix(.75 0 0 .75 72 197.92237)" font-size="14.666667" font-family="Arial"><tspan y="13.757161" x="101.835178"> </tspan></text>
<text xml:space="preserve" transform="matrix(.75 0 0 .75 72 197.92237)" font-size="14.666667" font-family="Arial"><tspan y="13.757161" x="105.90715 114.05826 117.31441 125.465518 132.79364 140.94475">dieser</tspan></text>
<text xml:space="preserve" transform="matrix(.75 0 0 .75 72 197.92237)" font-size="14.666667" font-family="Arial"><tspan y="13.757161" x="145.8254"> </tspan></text>
<text xml:space="preserve" transform="matrix(.75 0 0 .75 72 197.92237)" font-size="14.666667" font-family="Arial"><tspan y="13.757161" x="149.89737 161.29747 165.10448 169.17646 177.32756 185.47867 192.8068">Offense</tspan></text>
<text xml:space="preserve" transform="matrix(.75 0 0 .75 72 197.92237)" font-size="14.666667" font-family="Arial"><tspan y="13.757161" x="200.9579"> </tspan></text>
<text xml:space="preserve" transform="matrix(.75 0 0 .75 72 197.92237)" font-size="14.666667" font-family="Arial"><tspan y="13.757161" x="205.02988 213.18099 221.33209">hat</tspan></text>
<text xml:space="preserve" transform="matrix(.75 0 0 .75 72 197.92237)" font-size="14.666667" font-family="Arial"><tspan y="13.757161" x="225.40407"> </tspan></text>
<text xml:space="preserve" transform="matrix(.75 0 0 .75 72 197.92237)" font-size="14.666667" font-family="Arial"><tspan y="13.757161" x="229.47605 237.62715 240.8833 249.03441">eine</tspan></text>
<text xml:space="preserve" transform="matrix(.75 0 0 .75 72 197.92237)" font-size="14.666667" font-family="Arial"><tspan y="13.757161" x="257.18553"> </tspan></text>
<text xml:space="preserve" transform="matrix(.75 0 0 .75 72 197.92237)" font-size="14.666667" font-family="Arial"><tspan y="13.757161" x="261.2575 268.58564 271.8418 279.9929 284.87355">klare</tspan></text>
<text xml:space="preserve" transform="matrix(.75 0 0 .75 72 197.92237)" font-size="14.666667" font-family="Arial"><tspan y="13.757161" x="293.02464"> </tspan></text>
<text xml:space="preserve" transform="matrix(.75 0 0 .75 72 197.92237)" font-size="14.666667" font-family="Arial"><tspan y="13.757161" x="297.09663 306.87223 315.02333 319.0953 327.2464 335.39753 343.54866 351.69975">Aufgabe.</tspan></text>
<text xml:space="preserve" transform="matrix(.75 0 0 .75 72 197.92237)" font-size="14.666667" font-family="Arial"><tspan y="13.757161" x="355.7717"> </tspan></text>
<text xml:space="preserve" transform="matrix(.75 0 0 .75 72 197.92237)" font-size="14.666667" font-family="Arial"><tspan y="13.757161" x="359.8437 373.412 381.5631 389.7142">Wenn</tspan></text>
<text xml:space="preserve" transform="matrix(.75 0 0 .75 72 197.92237)" font-size="14.666667" font-family="Arial"><tspan y="13.757161" x="397.8653"> </tspan></text>
<text xml:space="preserve" transform="matrix(.75 0 0 .75 72 197.92237)" font-size="14.666667" font-family="Arial" font-weight="bold"><tspan y="13.757161" x="401.93727 410.08839 414.16035 418.2323">alle</tspan></text>
<text xml:space="preserve" transform="matrix(.75 0 0 .75 72 197.92237)" font-size="14.666667" font-family="Arial" font-weight="bold"><tspan y="13.757161" x="426.38343"> </tspan></text>
<text xml:space="preserve" transform="matrix(.75 0 0 .75 72 197.92237)" font-size="14.666667" font-family="Arial" font-weight="bold"><tspan y="13.757161" x="430.4554 437.79728">11</tspan></text>
<text xml:space="preserve" transform="matrix(.75 0 0 .75 72 197.92237)" font-size="14.666667" font-family="Arial" font-weight="bold"><tspan y="13.757161" x="445.94837"> </tspan></text>
<text xml:space="preserve" transform="matrix(.75 0 0 .75 72 197.92237)" font-size="14.666667" font-family="Arial" font-weight="bold"><tspan y="13.757161" x="450.02037 454.09236 463.04496 468.7486 476.8997">ihren</tspan></text>
<text xml:space="preserve" transform="matrix(.75 0 0 .75 72 197.92237)" font-size="14.666667" font-family="Arial" font-weight="bold"><tspan y="13.757161" x="485.8523"> </tspan></text>
<text xml:space="preserve" transform="matrix(.75 0 0 .75 72 197.92237)" font-size="14.666667" font-family="Arial" font-weight="bold"><tspan y="13.757161" x="489.9243 498.07539 507.028">Job</tspan></text>
<text xml:space="preserve" transform="matrix(.75 0 0 .75 72 197.92237)" font-size="14.666667" font-family="Arial" font-weight="bold"><tspan y="13.757161" x="515.98068"> </tspan></text>
<text xml:space="preserve" transform="matrix(.75 0 0 .75 72 197.92237)" font-size="14.666667" font-family="Arial" font-weight="bold"><tspan y="13.757161" x="520.0526 533.08438 537.1564">mit</tspan></text>
<text xml:space="preserve" transform="matrix(.75 0 0 .75 72 197.92237)" font-size="14.666667" font-family="Arial" font-weight="bold"><tspan y="13.757161" x="542.037"> </tspan></text>
<text xml:space="preserve" transform="matrix(.75 0 0 .75 72 197.92237)" font-size="14.666667" font-family="Arial" font-weight="bold"><tspan y="33.15218" x="0 10.584274 19.536896 27.688004 33.391633 40.719758 48.870866 57.823488 66.77611 75.72873 84.68135">&#x00dc;berzeugung</tspan></text>
<text xml:space="preserve" transform="matrix(.75 0 0 .75 72 197.92237)" font-size="14.666667" font-family="Arial" font-weight="bold"><tspan y="33.15218" x="93.63397"> </tspan></text>
<text xml:space="preserve" transform="matrix(.75 0 0 .75 72 197.92237)" font-size="14.666667" font-family="Arial" font-weight="bold"><tspan y="33.15218" x="97.70595 106.65857 115.61119">und</tspan></text>
<text xml:space="preserve" transform="matrix(.75 0 0 .75 72 197.92237)" font-size="14.666667" font-family="Arial" font-weight="bold"><tspan y="33.15218" x="124.56381"> </tspan></text>
<text xml:space="preserve" transform="matrix(.75 0 0 .75 72 197.92237)" font-size="14.666667" font-family="Arial" font-weight="bold"><tspan y="33.15218" x="128.63579 139.22006 143.29204 151.44315 158.77127 162.84325 171.79587 175.86785 179.93982">Disziplin</tspan></text>
<text xml:space="preserve" transform="matrix(.75 0 0 .75 72 197.92237)" font-size="14.666667" font-family="Arial" font-weight="bold"><tspan y="33.15218" x="188.89244"> </tspan></text>
<text xml:space="preserve" transform="matrix(.75 0 0 .75 72 197.92237)" font-size="14.666667" font-family="Arial" font-weight="bold"><tspan y="33.15218" x="192.96442 201.11553 210.06815 218.21926 223.0999 232.05252 241.00514 246.70877 254.85988">ausf&#x00fc;hren</tspan></text>
<text xml:space="preserve" transform="matrix(.75 0 0 .75 72 197.92237)" font-size="14.666667" font-family="Arial"><tspan y="33.15218" x="263.8125">,</tspan></text>
<text xml:space="preserve" transform="matrix(.75 0 0 .75 72 197.92237)" font-size="14.666667" font-family="Arial"><tspan y="33.15218" x="267.88447"> </tspan></text>
<text xml:space="preserve" transform="matrix(.75 0 0 .75 72 197.92237)" font-size="14.666667" font-family="Arial"><tspan y="33.15218" x="271.95646 275.2126 282.5407">ist</tspan></text>
<text xml:space="preserve" transform="matrix(.75 0 0 .75 72 197.92237)" font-size="14.666667" font-family="Arial"><tspan y="33.15218" x="286.6127"> </tspan></text>
<text xml:space="preserve" transform="matrix(.75 0 0 .75 72 197.92237)" font-size="14.666667" font-family="Arial"><tspan y="33.15218" x="290.6847 298.83583 306.9869 314.31504 322.46614 327.3468">unsere</tspan></text>
<text xml:space="preserve" transform="matrix(.75 0 0 .75 72 197.92237)" font-size="14.666667" font-family="Arial"><tspan y="33.15218" x="335.49787"> </tspan></text>
<text xml:space="preserve" transform="matrix(.75 0 0 .75 72 197.92237)" font-size="14.666667" font-family="Arial"><tspan y="33.15218" x="339.56986 350.96998 354.77699 358.84895 367.00007 375.15116 382.47929">Offense</tspan></text>
<text xml:space="preserve" transform="matrix(.75 0 0 .75 72 197.92237)" font-size="14.666667" font-family="Arial"><tspan y="33.15218" x="390.63038"> </tspan></text>
<text xml:space="preserve" transform="matrix(.75 0 0 .75 72 197.92237)" font-size="14.666667" font-family="Arial"><tspan y="33.15218" x="394.70237 402.85346 406.10963 413.43775 421.58888">nicht</tspan></text>
<text xml:space="preserve" transform="matrix(.75 0 0 .75 72 197.92237)" font-size="14.666667" font-family="Arial"><tspan y="33.15218" x="425.66084"> </tspan></text>
<text xml:space="preserve" transform="matrix(.75 0 0 .75 72 197.92237)" font-size="14.666667" font-family="Arial"><tspan y="33.15218" x="429.7328 437.0609">zu</tspan></text>
<text xml:space="preserve" transform="matrix(.75 0 0 .75 72 197.92237)" font-size="14.666667" font-family="Arial"><tspan y="33.15218" x="445.21205"> </tspan></text>
<text xml:space="preserve" transform="matrix(.75 0 0 .75 72 197.92237)" font-size="14.666667" font-family="Arial"><tspan y="33.15218" x="449.284 456.61213 460.68409 468.8352 476.98634 485.13743 493.2885 501.43965">stoppen.</tspan></text>
<text xml:space="preserve" transform="matrix(.75 0 0 .75 72 197.92237)" font-size="14.666667" font-family="Arial"><tspan y="33.15218" x="505.51164"> </tspan></text>
<text xml:space="preserve" transform="matrix(.75 0 0 .75 72 239.0149)" font-size="14.666667" font-family="Arial"><tspan y="13.757161" x="0"> </tspan></text>
<text xml:space="preserve" transform="matrix(.75 0 0 .75 72 265.56117)" font-size="17.333334" font-family="Arial" font-weight="bold"><tspan y="18.92513" x="155"> </tspan></text>
</svg>
