<svg xmlns="http://www.w3.org/2000/svg" xmlns:xlink="http://www.w3.org/1999/xlink" xmlns:inkscape="http://www.inkscape.org/namespaces/inkscape" version="1.1" width="612" height="792" viewBox="0 0 612 792">
<defs>
<clipPath id="clip_1">
<path transform="matrix(1,0,0,1,28,28)" d="M0 0H555.75V735.39187H0V0Z" clip-rule="evenodd"/>
</clipPath>
</defs>
<g clip-path="url(#clip_1)">
<path transform="matrix(1,0,0,1,28,28)" d="M207.99106 227.40161V225.12216C208.3963 223.77983 208.92818 222.52614 209.58667 221.36109 210.24518 220.19603 210.94168 219.08165 211.67617 218.0179 212.41066 216.95417 213.1578 215.94107 213.91762 214.97864 214.67743 214.0162 215.36127 213.05379 215.96912 212.09136 216.57697 211.12892 217.07085 210.16649 217.45076 209.20406 217.83066 208.24163 218.02062 207.2412 218.02062 206.20279 218.02062 204.75914 217.70403 203.68274 217.07085 202.97357 216.43767 202.26442 215.65253 201.89717 214.71543 201.87184 213.62636 201.87184 212.72725 202.31507 212.01808 203.20153 211.30893 204.08797 210.87836 205.56961 210.7264 207.64644H208.21901C208.295 206.10147 208.51027 204.8098 208.86486 203.77138 209.21944 202.73297 209.70066 201.90984 210.3085 201.30199 210.91635 200.69414 211.57486 200.2509 212.28401 199.9723 212.99318 199.69371 213.77832 199.56708 214.63944 199.5924 216.43767 199.5924 217.90665 200.18759 219.04637 201.37796 220.18608 202.56835 220.75595 204.30326 220.75595 206.58269 220.75595 207.72241 220.60399 208.74817 220.30007 209.65995 219.99614 210.57172 219.56557 211.44551 219.00838 212.2813 218.45117 213.1171 217.84333 213.96556 217.18482 214.82668 216.52632 215.6878 215.79183 216.59958 214.98136 217.56201 214.17089 218.52445 213.41107 219.63884 212.70192 220.9052 211.99275 222.17156 211.25827 223.57721 210.49846 225.12216H220.90792V227.40161H207.99106Z" fill="#171919"/>
<path transform="matrix(1,0,0,1,28,28)" d="M235.34438 213.68697C235.34438 211.43285 235.2684 209.55864 235.11644 208.06433 234.96448 206.57003 234.7112 205.35433 234.35662 204.41722 234.00205 203.48012 233.5968 202.83428 233.14092 202.47969 232.68503 202.12512 232.12784 201.9225 231.46933 201.87184 230.83615 201.87184 230.27895 202.0618 229.79773 202.44171 229.31652 202.82161 228.91129 203.48012 228.58203 204.41722 228.25278 205.35433 228.01218 206.55738 227.8602 208.02634 227.70824 209.49532 227.6196 211.38219 227.59427 213.68697 227.59427 215.94107 227.67026 217.81529 227.82222 219.30959 227.97418 220.8039 228.22745 222.01959 228.58203 222.9567 228.93662 223.8938 229.34185 224.53964 229.79773 224.89423 230.25362 225.24881 230.81082 225.45142 231.46933 225.50208 232.10251 225.50208 232.6597 225.31212 233.14092 224.93222 233.62213 224.5523 234.02738 223.8938 234.35662 222.9567 234.68587 222.01959 234.92649 220.81656 235.07845 219.34758 235.23041 217.8786 235.31905 215.99173 235.34438 213.68697ZM238.07971 213.68697C238.07971 216.16902 237.95308 218.2965 237.6998 220.0694 237.44654 221.8423 237.0413 223.29862 236.4841 224.43834 235.92691 225.57805 235.23041 226.41385 234.3946 226.94573 233.5588 227.47759 232.58373 227.7562 231.46933 227.78153 230.35494 227.78153 229.37984 227.51558 228.54404 226.98372 227.70824 226.45185 227.02442 225.60338 226.49254 224.43834 225.96067 223.27329 225.55544 221.81697 225.27684 220.0694 224.99825 218.32183 224.85894 216.19435 224.85894 213.68697 224.85894 211.2049 224.98558 209.07743 225.23885 207.30452 225.49211 205.53162 225.89736 204.0753 226.45455 202.93558 227.01175 201.79587 227.70824 200.96007 228.54404 200.42819 229.37984 199.89633 230.35494 199.61772 231.46933 199.5924 232.58373 199.5924 233.5588 199.85834 234.3946 200.39022 235.23041 200.92208 235.91425 201.77054 236.4461 202.93558 236.97798 204.10063 237.38321 205.55695 237.66182 207.30452 237.94042 209.0521 238.07971 211.17957 238.07971 213.68697Z" fill="#171919"/>
<path transform="matrix(1,0,0,1,28,28)" d="M241.7268 227.40161V225.12216C242.13205 223.77983 242.66391 222.52614 243.32242 221.36109 243.98093 220.19603 244.67743 219.08165 245.41191 218.0179 246.1464 216.95417 246.89356 215.94107 247.65337 214.97864 248.41318 214.0162 249.09702 213.05379 249.70487 212.09136 250.31272 211.12892 250.8066 210.16649 251.18651 209.20406 251.5664 208.24163 251.75637 207.2412 251.75637 206.20279 251.75637 204.75914 251.43978 203.68274 250.8066 202.97357 250.17342 202.26442 249.38828 201.89717 248.45117 201.87184 247.3621 201.87184 246.46298 202.31507 245.75383 203.20153 245.04467 204.08797 244.6141 205.56961 244.46215 207.64644H241.95476C242.03073 206.10147 242.24602 204.8098 242.6006 203.77138 242.95519 202.73297 243.4364 201.90984 244.04425 201.30199 244.6521 200.69414 245.31061 200.2509 246.01976 199.9723 246.72893 199.69371 247.51407 199.56708 248.37519 199.5924 250.17342 199.5924 251.6424 200.18759 252.78212 201.37796 253.92183 202.56835 254.4917 204.30326 254.4917 206.58269 254.4917 207.72241 254.33974 208.74817 254.03582 209.65995 253.73189 210.57172 253.30132 211.44551 252.74413 212.2813 252.18692 213.1171 251.57907 213.96556 250.92057 214.82668 250.26206 215.6878 249.52758 216.59958 248.7171 217.56201 247.90663 218.52445 247.14682 219.63884 246.43767 220.9052 245.7285 222.17156 244.99402 223.57721 244.2342 225.12216H254.64366V227.40161H241.7268Z" fill="#171919"/>
<path transform="matrix(1,0,0,1,28,28)" d="M261.482 217.97992C261.482 219.37291 261.57063 220.53795 261.74794 221.47505 261.9252 222.41216 262.17848 223.18465 262.50773 223.7925 262.83699 224.40035 263.24223 224.8309 263.72343 225.08419 264.20466 225.33745 264.74919 225.47675 265.35704 225.50208 265.88893 225.50208 266.37013 225.40077 266.8007 225.19815 267.23124 224.99553 267.61116 224.64095 267.9404 224.13442 268.26966 223.62787 268.51026 222.96936 268.66224 222.15889 268.81419 221.34842 268.90284 220.348 268.92817 219.15763 268.92817 217.94193 268.8395 216.9415 268.66224 216.15636 268.48493 215.37122 268.23167 214.73804 267.9024 214.25682 267.57316 213.7756 267.2059 213.45902 266.8007 213.30706 266.39546 213.15509 265.96488 213.06644 265.509 213.04113 264.62257 213.04113 263.85008 213.28173 263.19157 213.76294 262.53306 214.24416 261.9632 214.7887 261.482 215.39655V217.97992ZM268.54826 205.06307C268.44697 204.37923 268.29499 203.8347 268.09239 203.42946 267.88975 203.02423 267.63648 202.69498 267.33256 202.44171 267.02864 202.18843 266.73738 202.03647 266.45878 201.98583 266.18019 201.93517 265.88893 201.89717 265.585 201.87184 264.36927 201.87184 263.40684 202.74564 262.6977 204.49321 261.98854 206.24079 261.6086 209.02677 261.55796 212.85117 262.11518 212.26865 262.74836 211.77477 263.4575 211.36952 264.16667 210.9643 264.93916 210.76168 265.77494 210.76168 266.53477 210.76168 267.26924 210.90097 267.9784 211.17957 268.68757 211.45818 269.30809 211.93939 269.83995 212.62322 270.3718 213.30706 270.81504 214.18083 271.16963 215.24459 271.5242 216.30832 271.6888 217.62534 271.66349 219.19562 271.66349 221.8803 271.1443 223.98246 270.10588 225.50208 269.06748 227.0217 267.6238 227.78153 265.77494 227.78153 264.58457 227.78153 263.5588 227.59157 262.6977 227.21166 261.83656 226.83176 261.10209 226.16059 260.49424 225.19815 259.88639 224.23572 259.4558 222.94403 259.20256 221.32309 258.94929 219.70217 258.7973 217.65067 258.74665 215.1686 258.74665 212.40795 258.89863 210.0525 259.20256 208.10233 259.50648 206.15213 259.96235 204.54386 260.5702 203.2775 261.17808 202.01114 261.89988 201.0867 262.7357 200.50418 263.57148 199.92165 264.54658 199.61772 265.66096 199.5924 266.54743 199.5924 267.29457 199.71904 267.9024 199.9723 268.51026 200.22559 269.02949 200.58016 269.46003 201.03606 269.8906 201.49195 270.2325 202.0618 270.48579 202.74564 270.73905 203.42946 270.92903 204.15129 271.05564 204.9111L268.54826 205.06307Z" fill="#171919"/>
<path transform="matrix(1,0,0,1,28,28)" d="M296.5474 199.9723V202.47969H290.92478V227.40161H287.9615V202.47969H282.33888V199.9723H296.5474Z" fill="#171919"/>
<path transform="matrix(1,0,0,1,28,28)" d="M302.322 211.97737H304.90534C307.03285 211.97737 308.5018 211.57215 309.31227 210.76168 310.12275 209.9512 310.52799 208.7735 310.52799 207.22853 310.52799 205.68358 310.12275 204.50588 309.31227 203.6954 308.5018 202.88494 307.03285 202.47969 304.90534 202.47969H302.322V211.97737ZM299.3587 199.9723H305.9691C307.05818 199.9723 308.05857 200.12427 308.97038 200.42819 309.88215 200.73212 310.67994 201.20067 311.36378 201.83385 312.0476 202.46703 312.5668 203.20153 312.9214 204.03733 313.27598 204.87311 313.4659 205.8862 313.49125 207.07657 313.49125 208.62154 313.13667 209.9892 312.42753 211.17957 311.71836 212.36995 310.60395 213.24373 309.08433 213.80094L313.7192 227.40161H310.60395L306.19703 214.40879 302.322 214.56075V227.40161H299.3587V199.9723Z" fill="#171919"/>
<path transform="matrix(1,0,0,1,28,28)" d="M330.891 199.9723V202.47969H321.31736V211.82541H328.3836V214.33281H321.31736V224.89423H331.3469V227.40161H318.35408V199.9723H330.891Z" fill="#171919"/>
<path transform="matrix(1,0,0,1,28,28)" d="M336.51365 199.9723 341.2245 211.97737 345.7834 199.9723H348.9746L342.66813 215.77645V227.40161H339.70487V215.77645L333.32243 199.9723H336.51365Z" fill="#171919"/>
<path transform="matrix(1,0,0,1,28,28)" d="M229.20345 280.61033H232.01694L230.62757 273.87187H230.59282L229.20345 280.61033ZM231.54802 272.93403 234.3094 285.47315H232.95476L232.20798 281.75657H229.0124L228.26563 285.47315H226.91098L229.67237 272.93403H231.54802Z" fill="#171919"/>
<path transform="matrix(1,0,0,1,28,28)" d="M235.61194 272.93403H240.99578V274.08027H236.96659V278.3526H239.98848V279.49885H236.96659V285.47315H235.61194V272.93403Z" fill="#171919"/>
<path transform="matrix(1,0,0,1,28,28)" d="M247.50847 276.7201C247.41585 275.72438 247.21901 275.00654 246.91799 274.56657 246.61696 274.1266 246.19435 273.9066 245.65018 273.9066 245.25652 273.9066 244.91497 273.9992 244.62552 274.18449 244.33606 274.36973 244.09871 274.67076 243.91345 275.08757 243.72821 275.50437 243.59506 276.04856 243.514 276.7201 243.43297 277.3916 243.38666 278.21946 243.37508 279.20359 243.37508 280.17616 243.4156 280.9982 243.49665 281.66975 243.5777 282.34126 243.71663 282.89125 243.91345 283.3196 244.11029 283.74803 244.34764 284.04905 244.62552 284.22273 244.90338 284.3964 245.24495 284.489 245.65018 284.50059 245.96279 284.50059 246.24066 284.4427 246.48381 284.3269 246.72695 284.21113 246.94113 284.02589 247.12639 283.77116 247.31165 283.51646 247.4448 283.18647 247.52584 282.78123 247.60689 282.376 247.65898 281.8839 247.68215 281.30503H249.03678C249.01363 282.70597 248.71259 283.77696 248.13368 284.51795 247.55478 285.25895 246.72695 285.63523 245.65018 285.64683 245.09442 285.64683 244.59078 285.53684 244.13924 285.31684 243.68769 285.09687 243.3056 284.72636 242.993 284.20536 242.68039 283.68434 242.44304 283.0186 242.28095 282.2081 242.11885 281.39765 242.03202 280.39616 242.02043 279.20359 242.02043 278.0226 242.10149 277.02113 242.26358 276.19908 242.42568 275.377 242.66881 274.71128 242.993 274.20185 243.31719 273.6924 243.69927 273.3277 244.13924 273.1077 244.57921 272.88774 245.08286 272.77195 245.65018 272.76039 246.58802 272.76039 247.32901 273.08457 247.87319 273.7329 248.41735 274.3813 248.74733 275.377 248.86312 276.7201H247.50847Z" fill="#171919"/>
<path transform="matrix(1,0,0,1,28,28)" d="M256.26155 272.93403V284.3269H260.32545V285.47315H254.90689V272.93403H256.26155Z" fill="#171919"/>
<path transform="matrix(1,0,0,1,28,28)" d="M266.97709 285.47315H265.7961V284.48323C265.4951 284.78425 265.15354 285.05055 264.77146 285.2821 264.38938 285.51368 264.04783 285.63523 263.7468 285.64683 263.12159 285.64683 262.63529 285.46159 262.28794 285.09107 261.9406 284.72059 261.76695 284.1185 261.76695 283.28489V276.4422H263.01737V283.1112C263.01737 283.63224 263.09843 284.0085 263.2605 284.24009 263.4226 284.47166 263.67155 284.5932 264.0073 284.6048 264.30833 284.6048 264.59779 284.50639 264.87565 284.30955 265.15354 284.1127 265.4372 283.84065 265.72666 283.4933V276.4422H266.97709V285.47315Z" fill="#171919"/>
<path transform="matrix(1,0,0,1,28,28)" d="M268.90486 276.4422H273.594V277.27583L270.01637 284.43113H273.594V285.47315H268.62699V284.5353L272.1004 277.48423H268.90486V276.4422Z" fill="#171919"/>
<path transform="matrix(1,0,0,1,28,28)" d="M278.891 280.12406C278.86784 279.1515 278.75205 278.43943 278.54365 277.98789 278.33525 277.53636 277.94737 277.31059 277.38005 277.31059 277.14848 277.31059 276.94587 277.35688 276.7722 277.4495 276.5985 277.5421 276.4422 277.69267 276.30329 277.90107 276.16435 278.10948 276.06013 278.3989 275.99067 278.7694 275.9212 279.13993 275.88069 279.59147 275.86909 280.12406H278.891ZM275.86909 281.16609V281.66975C275.86909 282.2255 275.89805 282.6886 275.95594 283.0591 276.01383 283.4296 276.118 283.73063 276.26853 283.9622 276.41908 284.19377 276.5927 284.35588 276.78956 284.4485 276.9864 284.5411 277.2411 284.5932 277.5537 284.6048 277.79685 284.6048 277.99949 284.55848 278.16157 284.46586 278.32368 284.37324 278.46839 284.24009 278.59574 284.0664 278.7231 283.89274 278.8215 283.71327 278.891 283.528 278.96046 283.34278 279.01835 283.13438 279.06468 282.9028L280.24565 283.04176C280.1993 283.3775 280.1009 283.7017 279.95039 284.0143 279.79988 284.3269 279.60304 284.6048 279.3599 284.84794 279.11677 285.09107 278.8331 285.2821 278.5089 285.42106 278.18473 285.55998 277.80845 285.63523 277.38005 285.64683 276.43064 285.64683 275.73594 285.2763 275.296 284.5353 274.85603 283.7943 274.63023 282.60179 274.61866 280.95768 274.61866 279.32518 274.83866 278.1384 275.2786 277.3974 275.71858 276.6564 276.41908 276.28013 277.38005 276.26853 277.85475 276.26853 278.26579 276.36695 278.6131 276.56379 278.96046 276.7606 279.2441 277.05006 279.4641 277.43214 279.68409 277.8142 279.85197 278.27156 279.96775 278.80415 280.08354 279.33674 280.14143 279.92723 280.14143 280.5756V281.16609H275.86909Z" fill="#171919"/>
<path transform="matrix(1,0,0,1,28,28)" d="M281.91288 276.4422H283.1633V277.53636H283.19807C283.3833 277.25846 283.55699 277.03849 283.71907 276.87638 283.88117 276.7143 284.05485 276.58695 284.24009 276.4943 284.42533 276.40168 284.61637 276.34379 284.8132 276.32066 285.01 276.2975 285.23579 276.28013 285.4905 276.26853V277.4495C285.25895 277.4495 285.03898 277.47267 284.83058 277.51899 284.62217 277.56529 284.42533 277.64634 284.24009 277.76213 284.05485 277.8779 283.86958 278.03999 283.68434 278.24839 283.49909 278.4568 283.3254 278.72309 283.1633 279.04728V285.47315H281.91288V276.4422Z" fill="#171919"/>
<path transform="matrix(1,0,0,1,28,28)" d="M286.84516 276.4422H288.02613V277.43214C288.32716 277.1311 288.6687 276.8648 289.05079 276.63325 289.43287 276.40168 289.7744 276.28013 290.07545 276.26853 290.70066 276.26853 291.18696 276.4538 291.5343 276.82429 291.88163 277.1948 292.0553 277.79685 292.0553 278.63047V285.47315H290.80488V278.80415C290.80488 278.28315 290.72383 277.90684 290.56175 277.67527 290.39964 277.44374 290.1507 277.32215 289.81495 277.31059 289.51393 277.31059 289.22447 277.40898 288.9466 277.6058 288.6687 277.80265 288.38505 278.0747 288.09559 278.42207V285.47315H286.84516V276.4422Z" fill="#171919"/>
<path transform="matrix(1,0,0,1,28,28)" d="M299.66215 272.93403V284.3269H303.72608V285.47315H298.3075V272.93403H299.66215Z" fill="#171919"/>
<path transform="matrix(1,0,0,1,28,28)" d="M305.21965 272.93403H306.4701V274.39289H305.21965V272.93403ZM305.21965 276.4422H306.4701V285.47315H305.21965V276.4422Z" fill="#171919"/>
<path transform="matrix(1,0,0,1,28,28)" d="M309.63093 280.95768C309.63093 281.71028 309.65986 282.3181 309.71775 282.78123 309.77565 283.24436 309.86247 283.61488 309.97825 283.89274 310.09403 284.1706 310.25035 284.35588 310.44718 284.4485 310.64399 284.5411 310.87556 284.5932 311.14186 284.6048 311.40815 284.6048 311.6339 284.55848 311.81919 284.46586 312.00444 284.37324 312.16075 284.18797 312.2881 283.9101 312.41545 283.63224 312.5081 283.26173 312.56599 282.79859 312.62385 282.33549 312.6528 281.72184 312.6528 280.95768 312.6528 280.21669 312.62385 279.60884 312.56599 279.13414 312.5081 278.65943 312.42124 278.2889 312.30546 278.0226 312.18968 277.75633 312.03337 277.57109 311.83656 277.46687 311.6397 277.36268 311.40815 277.31059 311.14186 277.31059 310.87556 277.31059 310.64979 277.35688 310.46455 277.4495 310.2793 277.5421 310.123 277.7274 309.9956 278.00526 309.86827 278.28315 309.77565 278.65943 309.71775 279.13414 309.65986 279.60884 309.63093 280.21669 309.63093 280.95768ZM308.38047 280.95768C308.38047 279.32518 308.60047 278.1384 309.04045 277.3974 309.4804 276.6564 310.18089 276.28013 311.14186 276.26853 312.09126 276.26853 312.78596 276.63905 313.22593 277.38005 313.6659 278.12104 313.89167 279.31358 313.90324 280.95768 313.90324 282.59019 313.68327 283.77696 313.2433 284.51795 312.8033 285.25895 312.10285 285.63523 311.14186 285.64683 310.19245 285.64683 309.49778 285.2763 309.0578 284.5353 308.61784 283.7943 308.39207 282.60179 308.38047 280.95768Z" fill="#171919"/>
<path transform="matrix(1,0,0,1,28,28)" d="M315.7789 276.4422H316.95988V277.43214C317.2609 277.1311 317.60246 276.8648 317.98454 276.63325 318.3666 276.40168 318.70817 276.28013 319.0092 276.26853 319.6344 276.26853 320.1207 276.4538 320.46806 276.82429 320.81538 277.1948 320.98905 277.79685 320.98905 278.63047V285.47315H319.73863V278.80415C319.73863 278.28315 319.65757 277.90684 319.49549 277.67527 319.33338 277.44374 319.08445 277.32215 318.7487 277.31059 318.44767 277.31059 318.1582 277.40898 317.8803 277.6058 317.60246 277.80265 317.3188 278.0747 317.02934 278.42207V285.47315H315.7789V276.4422Z" fill="#171919"/>
<path transform="matrix(1,0,0,1,28,28)" d="M326.9981 278.73469C326.94023 278.53785 326.87654 278.3526 326.80708 278.17893 326.73759 278.00526 326.6392 277.85475 326.5118 277.7274 326.38447 277.6 326.23976 277.50163 326.07765 277.43214 325.91557 277.36268 325.70137 277.32215 325.43507 277.31059 325.13404 277.31059 324.89088 277.41477 324.70564 277.62318 324.5204 277.83158 324.42778 278.0863 324.42778 278.38734 324.42778 278.68836 324.5204 278.94889 324.70564 279.16886 324.89088 279.38883 325.12825 279.60304 325.4177 279.81144 325.70716 280.01985 326.01396 280.21669 326.33815 280.40193 326.66233 280.5872 326.96916 280.80717 327.2586 281.0619 327.54808 281.3166 327.77964 281.61186 327.9533 281.9476 328.12696 282.28337 328.22538 282.68284 328.24855 283.14595 328.24855 283.50486 328.19065 283.83485 328.07487 284.13587 327.95909 284.4369 327.7854 284.69743 327.55387 284.9174 327.3223 285.1374 327.06178 285.31684 326.77235 285.45579 326.48289 285.59474 326.1529 285.6584 325.7824 285.64683 324.96037 285.64683 324.32936 285.43843 323.88938 285.0216 323.4494 284.6048 323.11943 284.0143 322.89945 283.25016L324.0457 283.007C324.11515 283.20384 324.1962 283.39488 324.28883 283.5801 324.38145 283.76539 324.49143 283.93907 324.6188 284.10115 324.74617 284.26325 324.90248 284.3848 325.0877 284.46586 325.27296 284.5469 325.4756 284.5932 325.69557 284.6048 325.86924 284.6048 326.0313 284.57005 326.18186 284.50059 326.33238 284.43113 326.47129 284.3327 326.59867 284.20536 326.726 284.07798 326.82444 283.93327 326.8939 283.77116 326.96339 283.60908 326.9981 283.4296 326.9981 283.2328 326.9981 282.88545 326.9055 282.59019 326.7202 282.34706 326.53498 282.1039 326.29765 281.87815 326.00819 281.66975 325.71873 281.46134 325.4119 281.2587 325.0877 281.0619 324.76353 280.86506 324.4567 280.65086 324.16725 280.41929 323.8778 280.18775 323.64625 279.90986 323.47257 279.58567 323.2989 279.26148 323.20048 278.8852 323.1773 278.4568 323.1773 278.16737 323.2352 277.88948 323.35099 277.62318 323.46678 277.35688 323.62889 277.1253 323.83729 276.9285 324.0457 276.73167 324.28883 276.56959 324.56669 276.4422 324.84458 276.31486 325.16297 276.25697 325.52189 276.26853 326.21659 276.26853 326.77235 276.4538 327.18916 276.82429 327.60597 277.1948 327.88963 277.7274 328.04014 278.42207L326.9981 278.73469Z" fill="#171919"/>
<path transform="matrix(1,0,0,1,28,28)" d="M261.3154 310.8987C261.29225 310.57453 261.2401 310.27928 261.1591 310.01298 261.07804 309.74668 260.96226 309.50935 260.81175 309.30094 260.66123 309.09254 260.4644 308.93043 260.22126 308.81465 259.97813 308.69886 259.70024 308.64097 259.38764 308.64097 258.8666 308.64097 258.4498 308.79148 258.13719 309.09254 257.8246 309.39356 257.66828 309.793 257.66828 310.29087 257.66828 310.76557 257.78987 311.17079 258.033 311.50657 258.27613 311.84233 258.58876 312.15495 258.97084 312.4444 259.3529 312.73384 259.75813 313.01753 260.18653 313.29539 260.6149 313.57325 261.02015 313.88587 261.40223 314.23323 261.7843 314.58055 262.09114 314.99159 262.3227 315.46629 262.55424 315.94099 262.6816 316.5141 262.70478 317.18565 262.70478 318.19294 262.43269 318.97447 261.8885 319.5302 261.34434 320.08595 260.54545 320.3696 259.49183 320.3812 259.00556 320.3812 258.56559 320.29435 258.17195 320.1207 257.77827 319.94703 257.4483 319.70387 257.182 319.39128 256.9157 319.07865 256.70729 318.70817 256.55677 318.27976 256.40626 317.85139 256.32524 317.37089 256.31364 316.8383H257.56407C257.58723 317.57929 257.7667 318.16398 258.10246 318.59239 258.43824 319.02076 258.94767 319.23497 259.63078 319.23497 260.1981 319.23497 260.64964 319.06129 260.9854 318.71394 261.32118 318.3666 261.48905 317.85139 261.48905 317.16828 261.48905 316.69358 261.3675 316.28254 261.12437 315.93519 260.8812 315.58787 260.5686 315.25788 260.18653 314.94526 259.80445 314.63267 259.3992 314.3432 258.97084 314.0769 258.54243 313.8106 258.13719 313.49223 257.7551 313.1217 257.37306 312.75123 257.06623 312.36335 256.83467 311.9581 256.6031 311.55287 256.47575 311.03767 256.45259 310.4124 256.45259 309.97245 256.52204 309.573 256.66099 309.21409 256.79994 308.85517 257.00834 308.54835 257.2862 308.29365 257.56407 308.0389 257.88249 307.84208 258.2414 307.70317 258.6003 307.5642 259.01133 307.49476 259.47447 307.49476 260.37757 307.49476 261.1012 307.78419 261.64537 308.3631 262.18955 308.94203 262.49635 309.7872 262.56584 310.8987H261.3154Z" fill="#171919"/>
<path transform="matrix(1,0,0,1,28,28)" d="M268.27964 314.85844C268.25648 313.88587 268.1407 313.1738 267.93229 312.72227 267.72389 312.27073 267.336 312.04496 266.76869 312.04496 266.5371 312.04496 266.3345 312.09126 266.16084 312.18388 265.98716 312.2765 265.83088 312.42704 265.69194 312.63545 265.55299 312.84385 265.4488 313.13328 265.3793 313.50379 265.30986 313.8743 265.26933 314.32585 265.25776 314.85844H268.27964ZM265.25776 315.90046V316.4041C265.25776 316.95988 265.28669 317.42298 265.34458 317.7935 265.40248 318.16398 265.50669 318.465 265.6572 318.69657 265.8077 318.92814 265.98139 319.09025 266.1782 319.18287 266.37504 319.27549 266.62977 319.32759 266.94236 319.33918 267.1855 319.33918 267.38813 319.29286 267.5502 319.20024 267.7123 319.1076 267.85704 318.97447 267.98439 318.80079 268.11177 318.6271 268.21018 318.44764 268.27964 318.2624 268.3491 318.07716 268.40699 317.86875 268.4533 317.63719L269.63429 317.77613C269.58796 318.11189 269.48954 318.43608 269.33903 318.7487 269.1885 319.06129 268.9917 319.33918 268.74855 319.5823 268.5054 319.82545 268.22175 320.01649 267.89756 320.15544 267.57337 320.29435 267.19709 320.3696 266.76869 320.3812 265.81929 320.3812 265.1246 320.01069 264.68464 319.26969 264.24467 318.5287 264.0189 317.33616 264.0073 315.69206 264.0073 314.05955 264.2273 312.87278 264.66728 312.13179 265.10725 311.39079 265.8077 311.0145 266.76869 311.0029 267.24339 311.0029 267.65443 311.10133 268.00178 311.29817 268.3491 311.49497 268.63276 311.78443 268.85276 312.1665 269.07273 312.54859 269.2406 313.00593 269.35639 313.5385 269.47218 314.0711 269.53007 314.6616 269.53007 315.30998V315.90046H265.25776Z" fill="#171919"/>
<path transform="matrix(1,0,0,1,28,28)" d="M271.40574 311.17658H272.5867V312.1665C272.88774 311.86549 273.22929 311.59919 273.61137 311.3676 273.99345 311.13606 274.335 311.0145 274.63603 311.0029 275.26124 311.0029 275.74754 311.18818 276.09489 311.55867 276.4422 311.92918 276.61589 312.53123 276.61589 313.36485V320.20753H275.36546V313.5385C275.36546 313.01753 275.2844 312.6412 275.1223 312.40965 274.9602 312.1781 274.71128 312.05653 274.37553 312.04496 274.0745 312.04496 273.78504 312.14335 273.50715 312.34019 273.22929 312.53703 272.94563 312.80909 272.65617 313.15644V320.20753H271.40574V311.17658Z" fill="#171919"/>
<path transform="matrix(1,0,0,1,28,28)" d="M279.16886 307.6684H280.4193V309.12727H279.16886V307.6684ZM279.16886 311.17658H280.4193V320.20753H279.16886V311.17658Z" fill="#171919"/>
<path transform="matrix(1,0,0,1,28,28)" d="M283.58015 315.69206C283.58015 316.44465 283.60908 317.0525 283.66697 317.5156 283.72486 317.97874 283.81169 318.34925 283.92747 318.6271 284.04325 318.90498 284.19956 319.09025 284.3964 319.18287 284.5932 319.27549 284.82478 319.32759 285.09107 319.33918 285.35737 319.33918 285.58314 319.29286 285.7684 319.20024 285.95365 319.1076 286.10997 318.92234 286.2373 318.64448 286.36466 318.3666 286.4573 317.9961 286.51518 317.53297 286.57307 317.06986 286.60203 316.4562 286.60203 315.69206 286.60203 314.95106 286.57307 314.3432 286.51518 313.8685 286.4573 313.3938 286.37046 313.0233 286.25468 312.757 286.1389 312.4907 285.98258 312.30546 285.78578 312.20124 285.58894 312.09706 285.35737 312.04496 285.09107 312.04496 284.82478 312.04496 284.599 312.09126 284.41377 312.18388 284.22853 312.2765 284.0722 312.46177 283.94483 312.73963 283.81748 313.01753 283.72486 313.3938 283.66697 313.8685 283.60908 314.3432 283.58015 314.95106 283.58015 315.69206ZM282.32969 315.69206C282.32969 314.05955 282.54969 312.87278 282.98966 312.13179 283.42964 311.39079 284.1301 311.0145 285.09107 311.0029 286.04048 311.0029 286.73518 311.3734 287.17515 312.1144 287.6151 312.8554 287.84089 314.04795 287.85246 315.69206 287.85246 317.32456 287.63249 318.51133 287.1925 319.25233 286.75254 319.99333 286.05207 320.3696 285.09107 320.3812 284.14167 320.3812 283.447 320.01069 283.00703 319.26969 282.56706 318.5287 282.34129 317.33616 282.32969 315.69206Z" fill="#171919"/>
<path transform="matrix(1,0,0,1,28,28)" d="M289.6239 311.17658H290.87437V312.27073H290.9091C291.09434 311.99284 291.268 311.77287 291.43009 311.61076 291.5922 311.44868 291.76588 311.32133 291.9511 311.22868 292.13636 311.13606 292.3274 311.07817 292.52424 311.05503 292.72108 311.03187 292.94685 311.0145 293.20155 311.0029V312.18388C292.97 312.18388 292.75 312.20704 292.5416 312.25337 292.3332 312.29966 292.13636 312.3807 291.9511 312.4965 291.76588 312.61228 291.5806 312.77436 291.39537 312.98277 291.2101 313.19117 291.03645 313.45747 290.87437 313.78166V320.20753H289.6239V311.17658Z" fill="#171919"/>
<path transform="matrix(1,0,0,1,28,28)" d="M298.06437 313.46907C298.00648 313.27223 297.94279 313.08699 297.87333 312.9133 297.80387 312.73963 297.70545 312.5891 297.57807 312.46177 297.4507 312.33439 297.306 312.236 297.1439 312.1665 296.9818 312.09706 296.7676 312.05653 296.5013 312.04496 296.2003 312.04496 295.95716 312.14915 295.77189 312.35755 295.58665 312.56596 295.49403 312.82069 295.49403 313.1217 295.49403 313.42274 295.58665 313.68327 295.77189 313.90324 295.95716 314.1232 296.1945 314.3374 296.48396 314.5458 296.7734 314.7542 297.08024 314.95106 297.40443 315.1363 297.7286 315.32157 298.0354 315.54154 298.32487 315.79627 298.61433 316.05097 298.8459 316.34623 299.01957 316.68199 299.19325 317.01774 299.29164 317.4172 299.3148 317.8803 299.3148 318.23924 299.2569 318.5692 299.1411 318.87025 299.02534 319.17127 298.85169 319.4318 298.62013 319.65177 298.38856 319.87178 298.12806 320.0512 297.8386 320.19017 297.54914 320.3291 297.21916 320.39277 296.84867 320.3812 296.0266 320.3812 295.3956 320.1728 294.95564 319.75599 294.51567 319.33918 294.1857 318.7487 293.9657 317.98454L295.11195 317.74137C295.1814 317.9382 295.26246 318.12925 295.35508 318.31449 295.4477 318.49977 295.5577 318.67344 295.68507 318.8355 295.8124 318.99763 295.96873 319.11918 296.15397 319.20024 296.3392 319.28129 296.54185 319.32759 296.7618 319.33918 296.9355 319.33918 297.0976 319.3044 297.2481 319.23497 297.39863 319.1655 297.53758 319.06709 297.66493 318.93974 297.79228 318.81236 297.8907 318.66764 297.96015 318.50553 298.02964 318.34346 298.06437 318.16398 298.06437 317.96717 298.06437 317.6198 297.97175 317.32456 297.7865 317.08143 297.60124 316.8383 297.3639 316.61253 297.07444 316.4041 296.78498 316.1957 296.47816 315.99308 296.15397 315.79627 295.82978 315.59944 295.52296 315.38523 295.23353 315.15367 294.94407 314.92213 294.7125 314.64424 294.53883 314.32005 294.36515 313.99586 294.26673 313.61958 294.2436 313.19117 294.2436 312.90174 294.30149 312.62385 294.41725 312.35755 294.53303 312.09126 294.69514 311.85969 294.90354 311.66288 295.11195 311.46604 295.35508 311.30397 295.63298 311.17658 295.91084 311.04924 296.22923 310.99134 296.58815 311.0029 297.28285 311.0029 297.8386 311.18818 298.2554 311.55867 298.6722 311.92918 298.95588 312.46177 299.10639 313.15644L298.06437 313.46907Z" fill="#171919"/>
<path transform="matrix(1,0,0,1,28,28)" d="M261.89549 364.4857C262.78913 364.57823 263.51255 364.9465 264.06568 365.59059 264.6188 366.23466 264.8723 367.0054 264.8262 367.90284 264.72209 368.86549 264.2984 369.62464 263.5552 370.18025L263.44938 371.5998C263.08525 372.2213 262.6084 372.72016 262.01887 373.0963 261.42936 373.47248 260.7963 373.7823 260.11976 374.0258L260.38539 370.55067C259.77229 370.27507 259.2909 369.85746 258.94126 369.29786 258.59159 368.73823 258.43763 368.11177 258.47938 367.41847 258.50025 367.15879 258.55113 366.90983 258.63203 366.6715 258.27964 366.02006 257.7663 365.40913 257.09199 364.83869 256.41767 364.26826 255.60541 363.83717 254.6552 363.54545 254.3372 363.4635 254.01667 363.40653 253.69358 363.37449 254.02733 363.27763 254.35807 363.2047 254.68573 363.1557 256.21183 362.9008 257.6219 363.04936 258.91593 363.6014 259.53059 363.84309 260.17268 364.17179 260.8423 364.58747 261.1786 364.49504 261.52967 364.46113 261.89549 364.4857ZM258.0001 376.3663C259.14024 376.25608 260.19438 375.9509 261.16255 375.4508 262.1307 374.9507 262.8913 374.22709 263.4443 373.27989 263.1578 374.70094 262.61827 375.88755 261.82566 376.83973 261.03306 377.7919 259.99665 378.6076 258.7165 379.28684 258.5086 380.03157 258.1016 380.62437 257.49549 381.06523 256.88935 381.50608 256.1895 381.7043 255.39603 381.65989 254.59758 381.58299 253.9313 381.28294 253.39719 380.7598 252.86307 380.23667 252.54737 379.59474 252.45005 378.83399L252.2801 378.719 250.98265 377.8408C250.40431 376.5247 250.25643 375.15669 250.53899 373.7368L252.54978 375.18385 253.6722 375.97654C254.29735 375.48878 255.03342 375.2676 255.8804 375.31306 256.74674 375.39958 257.45329 375.75065 258.0001 376.3663ZM249.80731 370.90379C249.30672 371.798 249.02117 372.7563 248.95063 373.77864 248.88008 374.80097 249.00893 375.788 249.33718 376.73976 248.35169 375.80027 247.66823 374.81108 247.28682 373.77217 246.90541 372.73323 246.74018 371.50538 246.79113 370.08866 246.1146 369.42027 245.79778 368.59159 245.84069 367.60264 245.9318 366.70854 246.29958 365.98478 246.94402 365.4313 247.58846 364.87788 248.35973 364.62373 249.25782 364.66889 249.61652 364.6994 249.95232 364.78285 250.26525 364.9192L252.03079 364.07563C252.49347 364.16145 252.93885 364.29203 253.36692 364.4674 253.786 364.62834 254.17609 364.84577 254.53716 365.1197 254.8594 365.34388 255.1562 365.60169 255.42757 365.89308L254.44252 366.35609 253.1807 366.91883 252.16207 367.37165C252.19718 367.60334 252.20633 367.8411 252.18955 368.085 252.12476 368.78388 251.87604 369.38468 251.44338 369.88743 251.01073 370.39018 250.46537 370.72895 249.80731 370.90379ZM271.9444 372.1778H272.93858C274.07695 372.09608 274.61289 372.52925 274.54643 373.4773V379.41914C274.5644 379.42225 274.77699 379.4348 275.18418 379.45677 275.5914 379.47874 276.08537 379.49128 276.66609 379.49443 277.23197 379.49128 277.70957 379.47874 278.09889 379.45677 278.4882 379.43479 278.69105 379.42225 278.7074 379.41914V373.45594C278.74186 371.93577 278.33003 370.87055 277.4719 370.26026 276.61378 369.64997 275.10267 369.35633 272.93858 369.3794H271.9454V364.7401C271.92018 364.73674 271.70198 364.72315 271.29084 364.6994 270.87968 364.67567 270.4269 364.66209 269.93257 364.6587 269.34825 364.66209 268.84474 364.67567 268.42207 364.6994 267.9994 364.72315 267.778 364.7367 267.75794 364.7401V379.4191C267.77366 379.42225 267.97727 379.43479 268.36875 379.45677 268.76026 379.47874 269.2452 379.49128 269.8237 379.49443 270.36973 379.49128 270.8539 379.47874 271.2763 379.45677 271.6987 379.43479 271.9214 379.42225 271.9444 379.4191V372.1778ZM291.27897 376.44566 291.27894 369.45674C291.24986 369.4535 291.0193 369.4406 290.58723 369.41804 290.15516 369.39549 289.69615 369.3826 289.21015 369.3794 288.66526 369.3826 288.18565 369.3955 287.77125 369.41807 287.35688 369.4406 287.13877 369.4535 287.1169 369.45674V376.04066C287.12083 376.59864 286.6836 376.87678 285.80525 376.8751 284.94535 376.8773 284.5159 376.59916 284.51695 376.04066V369.45674C284.4896 369.4535 284.26268 369.4406 283.83616 369.41804 283.40965 369.39549 282.94767 369.3826 282.45018 369.3794 281.9167 369.3826 281.43638 369.3955 281.00923 369.41807 280.5821 369.4406 280.35618 369.4535 280.3315 369.45674V376.44566C280.33827 377.69416 280.8079 378.5227 281.7404 378.93128 282.6729 379.33988 284.02784 379.5276 285.80525 379.49443 287.58216 379.52766 288.93699 379.3401 289.8697 378.93168 290.80238 378.5233 291.27214 377.6946 291.27897 376.44566ZM300.03953 364.7401 300.04057 369.3794H298.29536C296.2764 369.36045 294.78205 369.74333 293.81227 370.528 292.8425 371.3127 292.36067 372.61299 292.36677 374.42878 292.3394 375.9781 292.7966 377.19306 293.73838 378.0737 294.68016 378.9543 296.27073 379.4028 298.51008 379.4191H304.22599V364.7401C304.20256 364.73674 303.98103 364.72315 303.56147 364.6994 303.14195 364.67567 302.665 364.66209 302.1307 364.6587 301.56278 364.66209 301.07685 364.67567 300.673 364.6994 300.26914 364.72315 300.05799 364.7367 300.03953 364.7401ZM300.03953 372.0964V376.78047H298.6444C297.7567 376.77946 297.17097 376.58149 296.88713 376.18656 296.60325 375.7916 296.47364 375.2057 296.49827 374.42878 296.49314 373.55827 296.6438 372.94859 296.95033 372.59974 297.25685 372.2509 297.74998 372.0831 298.4297 372.0964H300.03953ZM306.11976 365.08815V379.41914C306.14326 379.42225 306.3781 379.4348 306.8243 379.45677 307.2705 379.47874 307.787 379.49128 308.37376 379.49443 308.87028 379.49128 309.33168 379.47874 309.75794 379.45677 310.18424 379.43479 310.41108 379.42225 310.43849 379.41914V364.6587L306.11976 365.08815Z" fill="#171919"/>
<text fill="#171919" xml:space="preserve" transform="matrix(.5427246 0 0 .5427246 28 28)" font-size="16" font-family="Arial"><tspan y="1344" x="457.73439 466.5 471.5 474.5 482.5 486.5 494.5 502.5 506.5 510.5 518.5 526.5 530.5 538.5 546.5 550.5 558.5">Printed: 10/12/25</tspan></text>
</g>
</svg>
