<svg xmlns="http://www.w3.org/2000/svg" xmlns:xlink="http://www.w3.org/1999/xlink" xmlns:inkscape="http://www.inkscape.org/namespaces/inkscape" version="1.1" width="596" height="842" viewBox="0 0 596 842">
<path transform="matrix(.75,0,0,.75,0,0)" d="M0 0H794V1123H0Z" fill="#ffffff"/>
<text xml:space="preserve" transform="matrix(.75 0 0 .75 72 72)" font-size="14.666667" font-family="Arial"><tspan y="13.757161" x="72">&#x25cb;</tspan></text>
<text xml:space="preserve" transform="matrix(.75 0 0 .75 72 72)" font-size="14.666667" font-family="Arial"><tspan y="13.757161" x="80.85243"> </tspan></text>
<text xml:space="preserve" transform="matrix(.75 0 0 .75 72 72)" font-size="14.666667" font-family="Arial"><tspan y="13.757161" x="96 109.5683 117.719409 125.870517">Wenn</tspan></text>
<text xml:space="preserve" transform="matrix(.75 0 0 .75 72 72)" font-size="14.666667" font-family="Arial"><tspan y="13.757161" x="134.02162"> </tspan></text>
<text xml:space="preserve" transform="matrix(.75 0 0 .75 72 72)" font-size="14.666667" font-family="Arial" font-weight="bold"><tspan y="13.757161" x="138.0936 147.04622 151.1182 159.2693 167.42041 175.57152 179.6435 188.59612">playside</tspan></text>
<text xml:space="preserve" transform="matrix(.75 0 0 .75 72 72)" font-size="14.666667" font-family="Arial"><tspan y="13.757161" x="196.74723">,</tspan></text>
<text xml:space="preserve" transform="matrix(.75 0 0 .75 72 72)" font-size="14.666667" font-family="Arial"><tspan y="13.757161" x="200.8192"> </tspan></text>
<text xml:space="preserve" transform="matrix(.75 0 0 .75 72 72)" font-size="14.666667" font-family="Arial" font-weight="bold"><tspan y="13.757161" x="204.89118 209.77182 218.72444 227.67707 233.38069">f&#x00fc;hrt</tspan></text>
<text xml:space="preserve" transform="matrix(.75 0 0 .75 72 72)" font-size="14.666667" font-family="Arial"><tspan y="13.757161" x="238.26134"> </tspan></text>
<text xml:space="preserve" transform="matrix(.75 0 0 .75 72 72)" font-size="14.666667" font-family="Arial"><tspan y="13.757161" x="242.33332 250.48442">er</tspan></text>
<text xml:space="preserve" transform="matrix(.75 0 0 .75 72 72)" font-size="14.666667" font-family="Arial"><tspan y="13.757161" x="255.36507"> </tspan></text>
<text xml:space="preserve" transform="matrix(.75 0 0 .75 72 72)" font-size="14.666667" font-family="Arial"><tspan y="13.757161" x="259.43705 267.58815 275.73927 283.06739">nach</tspan></text>
<text xml:space="preserve" transform="matrix(.75 0 0 .75 72 72)" font-size="14.666667" font-family="Arial"><tspan y="13.757161" x="291.2185"> </tspan></text>
<text xml:space="preserve" transform="matrix(.75 0 0 .75 72 72)" font-size="14.666667" font-family="Arial"><tspan y="13.757161" x="295.29048 302.6186 310.7697 315.65037 323.80146">vorne</tspan></text>
<text xml:space="preserve" transform="matrix(.75 0 0 .75 72 72)" font-size="14.666667" font-family="Arial"><tspan y="13.757161" x="331.95259"> </tspan></text>
<text xml:space="preserve" transform="matrix(.75 0 0 .75 72 72)" font-size="14.666667" font-family="Arial"><tspan y="13.757161" x="336.02455 344.17567 352.32676">und</tspan></text>
<text xml:space="preserve" transform="matrix(.75 0 0 .75 72 72)" font-size="14.666667" font-family="Arial"><tspan y="13.757161" x="360.47785"> </tspan></text>
<text xml:space="preserve" transform="matrix(.75 0 0 .75 72 72)" font-size="14.666667" font-family="Arial" font-weight="bold"><tspan y="13.757161" x="364.54985 372.70094 380.85206 386.55567 390.62767 398.77876 407.73139 416.68403 424.8351 430.53877">verl&#x00e4;ngert</tspan></text>
<text xml:space="preserve" transform="matrix(.75 0 0 .75 72 72)" font-size="14.666667" font-family="Arial" font-weight="bold"><tspan y="13.757161" x="435.41938"> </tspan></text>
<text xml:space="preserve" transform="matrix(.75 0 0 .75 72 72)" font-size="14.666667" font-family="Arial" font-weight="bold"><tspan y="13.757161" x="439.49137 448.44398 452.51597">die</tspan></text>
<text xml:space="preserve" transform="matrix(.75 0 0 .75 72 72)" font-size="14.666667" font-family="Arial" font-weight="bold"><tspan y="13.757161" x="460.66706"> </tspan></text>
<text xml:space="preserve" transform="matrix(.75 0 0 .75 72 72)" font-size="14.666667" font-family="Arial" font-weight="bold"><tspan y="13.757161" x="464.73905 478.02806 486.17915 495.13179">Wand</tspan></text>
<text xml:space="preserve" transform="matrix(.75 0 0 .75 72 72)" font-size="14.666667" font-family="Arial"><tspan y="13.757161" x="504.0844">.</tspan></text>
<text xml:space="preserve" transform="matrix(.75 0 0 .75 72 72)" font-size="14.666667" font-family="Arial"><tspan y="13.757161" x="508.15638"> </tspan></text>
<text xml:space="preserve" transform="matrix(.75 0 0 .75 72 72)" font-size="14.666667" font-family="Arial"><tspan y="33.15169" x="96"> </tspan></text>
<text xml:space="preserve" transform="matrix(.75 0 0 .75 72 101.09277)" font-size="14.666667" font-family="Arial"><tspan y="13.757161" x="24">&#x25cf;</tspan></text>
<text xml:space="preserve" transform="matrix(.75 0 0 .75 72 101.09277)" font-size="14.666667" font-family="Arial"><tspan y="13.757161" x="32.852434"> </tspan></text>
<text xml:space="preserve" transform="matrix(.75 0 0 .75 72 101.09277)" font-size="14.666667" font-family="Arial"><tspan y="13.757161" x="48 58.584276 66.73538">Das</tspan></text>
<text xml:space="preserve" transform="matrix(.75 0 0 .75 72 101.09277)" font-size="14.666667" font-family="Arial"><tspan y="13.757161" x="74.06351"> </tspan></text>
<text xml:space="preserve" transform="matrix(.75 0 0 .75 72 101.09277)" font-size="14.666667" font-family="Arial"><tspan y="13.757161" x="78.13548 81.39163 88.71976">ist</tspan></text>
<text xml:space="preserve" transform="matrix(.75 0 0 .75 72 101.09277)" font-size="14.666667" font-family="Arial"><tspan y="13.757161" x="92.79173"> </tspan></text>
<text xml:space="preserve" transform="matrix(.75 0 0 .75 72 101.09277)" font-size="14.666667" font-family="Arial"><tspan y="13.757161" x="96.86371 105.01482 108.270969">ein</tspan></text>
<text xml:space="preserve" transform="matrix(.75 0 0 .75 72 101.09277)" font-size="14.666667" font-family="Arial"><tspan y="13.757161" x="116.42207"> </tspan></text>
<text xml:space="preserve" transform="matrix(.75 0 0 .75 72 101.09277)" font-size="14.666667" font-family="Arial" font-weight="bold"><tspan y="13.757161" x="120.49405 128.35813 136.50923 149.54099 158.4936 167.44623 172.32688 182.10248 186.17446 194.32556">Tempo-Play</tspan></text>
<text xml:space="preserve" transform="matrix(.75 0 0 .75 72 101.09277)" font-size="14.666667" font-family="Arial"><tspan y="13.757161" x="202.47667"> </tspan></text>
<text xml:space="preserve" transform="matrix(.75 0 0 .75 72 101.09277)" font-size="14.666667" font-family="Arial"><tspan y="13.757161" x="206.54865">&#x2013;</tspan></text>
<text xml:space="preserve" transform="matrix(.75 0 0 .75 72 101.09277)" font-size="14.666667" font-family="Arial"><tspan y="13.757161" x="214.69976"> </tspan></text>
<text xml:space="preserve" transform="matrix(.75 0 0 .75 72 101.09277)" font-size="14.666667" font-family="Arial"><tspan y="13.757161" x="218.77173 227.18009 230.43624 242.645 245.90116 254.05226">Timing</tspan></text>
<text xml:space="preserve" transform="matrix(.75 0 0 .75 72 101.09277)" font-size="14.666667" font-family="Arial"><tspan y="13.757161" x="262.20338"> </tspan></text>
<text xml:space="preserve" transform="matrix(.75 0 0 .75 72 101.09277)" font-size="14.666667" font-family="Arial"><tspan y="13.757161" x="266.27534 269.5315 276.85963">ist</tspan></text>
<text xml:space="preserve" transform="matrix(.75 0 0 .75 72 101.09277)" font-size="14.666667" font-family="Arial"><tspan y="13.757161" x="280.93159"> </tspan></text>
<text xml:space="preserve" transform="matrix(.75 0 0 .75 72 101.09277)" font-size="14.666667" font-family="Arial"><tspan y="13.757161" x="285.00358 293.15467 301.3058 305.37776 312.70588 320.034 328.18513 336.33625 339.59239 347.74348 355.8946 364.04573 372.1968">entscheidend!</tspan></text>
<text xml:space="preserve" transform="matrix(.75 0 0 .75 72 101.09277)" font-size="14.666667" font-family="Arial"><tspan y="13.757161" x="376.2688"> </tspan></text>
<text xml:space="preserve" transform="matrix(.75 0 0 .75 72 101.09277)" font-size="14.666667" font-family="Arial"><tspan y="33.15234" x="48"> </tspan></text>
<text xml:space="preserve" transform="matrix(.75 0 0 .75 72 130.18506)" font-size="14.666667" font-family="Arial"><tspan y="13.757161" x="24">&#x25cf;</tspan></text>
<text xml:space="preserve" transform="matrix(.75 0 0 .75 72 130.18506)" font-size="14.666667" font-family="Arial"><tspan y="13.757161" x="32.852434"> </tspan></text>
<text xml:space="preserve" transform="matrix(.75 0 0 .75 72 130.18506)" font-size="14.666667" font-family="Arial" font-weight="bold"><tspan y="13.757161" x="48 58.584276 66.73538 75.688 84.640628 93.59325 98.47389 103.35454">Handoff:</tspan></text>
<text xml:space="preserve" transform="matrix(.75 0 0 .75 72 130.18506)" font-size="14.666667" font-family="Arial"><tspan y="13.757161" x="108.23518"> </tspan></text>
<text xml:space="preserve" transform="matrix(.75 0 0 .75 72 130.18506)" font-size="14.666667" font-family="Arial"><tspan y="13.757161" x="112.30716 116.379138 128.5879 140.79668 148.94779">Immer</tspan></text>
<text xml:space="preserve" transform="matrix(.75 0 0 .75 72 130.18506)" font-size="14.666667" font-family="Arial"><tspan y="13.757161" x="153.82843"> </tspan></text>
<text xml:space="preserve" transform="matrix(.75 0 0 .75 72 130.18506)" font-size="14.666667" font-family="Arial" font-weight="bold"><tspan y="13.757161" x="157.9004 167.67601 171.74799 179.8991 188.0502 196.20131 200.27329 209.2259">Playside</tspan></text>
<text xml:space="preserve" transform="matrix(.75 0 0 .75 72 130.18506)" font-size="14.666667" font-family="Arial"><tspan y="13.757161" x="217.37702">.</tspan></text>
<text xml:space="preserve" transform="matrix(.75 0 0 .75 72 130.18506)" font-size="14.666667" font-family="Arial"><tspan y="13.757161" x="221.44899"> </tspan></text>
<text xml:space="preserve" transform="matrix(.75 0 0 .75 72 130.18506)" font-size="14.666667" font-family="Arial"><tspan y="33.15169" x="48"> </tspan></text>
<text xml:space="preserve" transform="matrix(.75 0 0 .75 72 159.27735)" font-size="14.666667" font-family="Arial"><tspan y="13.757161" x="24">&#x25cf;</tspan></text>
<text xml:space="preserve" transform="matrix(.75 0 0 .75 72 159.27735)" font-size="14.666667" font-family="Arial"><tspan y="13.757161" x="32.852434"> </tspan></text>
<text xml:space="preserve" transform="matrix(.75 0 0 .75 72 159.27735)" font-size="14.666667" font-family="Arial" font-weight="bold"><tspan y="13.757161" x="48 52.071977">In</tspan></text>
<text xml:space="preserve" transform="matrix(.75 0 0 .75 72 159.27735)" font-size="14.666667" font-family="Arial" font-weight="bold"><tspan y="13.757161" x="61.024599"> </tspan></text>
<text xml:space="preserve" transform="matrix(.75 0 0 .75 72 159.27735)" font-size="14.666667" font-family="Arial" font-weight="bold"><tspan y="13.757161" x="65.09657 74.87218 78.94415 87.896778 96.04788">Side:</tspan></text>
<text xml:space="preserve" transform="matrix(.75 0 0 .75 72 159.27735)" font-size="14.666667" font-family="Arial"><tspan y="13.757161" x="100.92853"> </tspan></text>
<text xml:space="preserve" transform="matrix(.75 0 0 .75 72 159.27735)" font-size="14.666667" font-family="Arial"><tspan y="13.757161" x="105.0005 115.58478">RB</tspan></text>
<text xml:space="preserve" transform="matrix(.75 0 0 .75 72 159.27735)" font-size="14.666667" font-family="Arial"><tspan y="13.757161" x="125.36038"> </tspan></text>
<text xml:space="preserve" transform="matrix(.75 0 0 .75 72 159.27735)" font-size="14.666667" font-family="Arial"><tspan y="13.757161" x="129.43236 136.76049 140.83246 148.98357 157.13468">steht</tspan></text>
<text xml:space="preserve" transform="matrix(.75 0 0 .75 72 159.27735)" font-size="14.666667" font-family="Arial"><tspan y="13.757161" x="161.20665"> </tspan></text>
<text xml:space="preserve" transform="matrix(.75 0 0 .75 72 159.27735)" font-size="14.666667" font-family="Arial" font-weight="bold"><tspan y="13.757161" x="165.27863 174.23125 182.38236 190.53347 198.68457 206.83568 210.90766 219.86028">backside</tspan></text>
<text xml:space="preserve" transform="matrix(.75 0 0 .75 72 159.27735)" font-size="14.666667" font-family="Arial" font-weight="bold"><tspan y="13.757161" x="228.01139"> </tspan></text>
<text xml:space="preserve" transform="matrix(.75 0 0 .75 72 159.27735)" font-size="14.666667" font-family="Arial"><tspan y="13.757161" x="232.08336 240.23447 248.38558">und</tspan></text>
<text xml:space="preserve" transform="matrix(.75 0 0 .75 72 159.27735)" font-size="14.666667" font-family="Arial"><tspan y="13.757161" x="256.53669"> </tspan></text>
<text xml:space="preserve" transform="matrix(.75 0 0 .75 72 159.27735)" font-size="14.666667" font-family="Arial" font-weight="bold"><tspan y="13.757161" x="260.60865 268.75978 274.46339 282.6145 291.56715 298.89527">kreuzt</tspan></text>
<text xml:space="preserve" transform="matrix(.75 0 0 .75 72 159.27735)" font-size="14.666667" font-family="Arial"><tspan y="13.757161" x="303.77589"> </tspan></text>
<text xml:space="preserve" transform="matrix(.75 0 0 .75 72 159.27735)" font-size="14.666667" font-family="Arial"><tspan y="13.757161" x="307.84788 315.99897 324.1501">den</tspan></text>
<text xml:space="preserve" transform="matrix(.75 0 0 .75 72 159.27735)" font-size="14.666667" font-family="Arial"><tspan y="13.757161" x="332.3012"> </tspan></text>
<text xml:space="preserve" transform="matrix(.75 0 0 .75 72 159.27735)" font-size="14.666667" font-family="Arial"><tspan y="13.757161" x="336.37318 347.77326 357.5489">QB.</tspan></text>
<text xml:space="preserve" transform="matrix(.75 0 0 .75 72 159.27735)" font-size="14.666667" font-family="Arial"><tspan y="13.757161" x="361.62086"> </tspan></text>
<text xml:space="preserve" transform="matrix(.75 0 0 .75 72 159.27735)" font-size="14.666667" font-family="Arial"><tspan y="33.152997" x="48"> </tspan></text>
<text xml:space="preserve" transform="matrix(.75 0 0 .75 72 200.37012)" font-size="14.666667" font-family="Arial"><tspan y="13.757161" x="601.7008"> </tspan></text>
<path transform="matrix(.75,0,0,.75,72,210.6875)" stroke-width="1.3333334" stroke-linecap="butt" stroke-miterlimit="10" stroke-linejoin="miter" fill="none" stroke="#888888" d="M4-1.5839844H597.3333"/>
<text xml:space="preserve" transform="matrix(.75 0 0 .75 72 226.91602)" font-size="17.333334" font-family="Arial" font-weight="bold"><tspan y="18.92513" x="155"> </tspan></text>
</svg>
