<svg xmlns="http://www.w3.org/2000/svg" xmlns:xlink="http://www.w3.org/1999/xlink" xmlns:inkscape="http://www.inkscape.org/namespaces/inkscape" version="1.1" width="612" height="792" viewBox="0 0 612 792">
<defs>
<clipPath id="clip_1">
<path transform="matrix(1,0,0,1,28,28)" d="M0 0H555.75V735.39187H0V0Z" clip-rule="evenodd"/>
</clipPath>
</defs>
<g clip-path="url(#clip_1)">
<path transform="matrix(1,0,0,1,28,28)" d="M219.59723 227.40161V225.12216C220.00247 223.77983 220.53435 222.52614 221.19284 221.36109 221.85135 220.19603 222.54785 219.08165 223.28234 218.0179 224.01683 216.95417 224.76398 215.94107 225.52379 214.97864 226.2836 214.0162 226.96744 213.05379 227.57529 212.09136 228.18314 211.12892 228.67702 210.16649 229.05693 209.20406 229.43683 208.24163 229.62679 207.2412 229.62679 206.20279 229.62679 204.75914 229.3102 203.68274 228.67702 202.97357 228.04384 202.26442 227.2587 201.89717 226.3216 201.87184 225.23253 201.87184 224.33342 202.31507 223.62425 203.20153 222.9151 204.08797 222.48453 205.56961 222.33257 207.64644H219.82518C219.90117 206.10147 220.11644 204.8098 220.47103 203.77138 220.8256 202.73297 221.30683 201.90984 221.91468 201.30199 222.52252 200.69414 223.18103 200.2509 223.89019 199.9723 224.59935 199.69371 225.38449 199.56708 226.2456 199.5924 228.04384 199.5924 229.51282 200.18759 230.65254 201.37796 231.79225 202.56835 232.36212 204.30326 232.36212 206.58269 232.36212 207.72241 232.21016 208.74817 231.90624 209.65995 231.60231 210.57172 231.17174 211.44551 230.61455 212.2813 230.05735 213.1171 229.4495 213.96556 228.79099 214.82668 228.13249 215.6878 227.398 216.59958 226.58753 217.56201 225.77706 218.52445 225.01725 219.63884 224.30809 220.9052 223.59893 222.17156 222.86444 223.57721 222.10463 225.12216H232.51409V227.40161H219.59723Z" fill="#171919"/>
<path transform="matrix(1,0,0,1,28,28)" d="M246.95055 213.68697C246.95055 211.43285 246.87458 209.55864 246.72261 208.06433 246.57065 206.57003 246.31737 205.35433 245.96279 204.41722 245.60822 203.48012 245.20298 202.83428 244.74709 202.47969 244.2912 202.12512 243.73401 201.9225 243.0755 201.87184 242.44232 201.87184 241.88512 202.0618 241.4039 202.44171 240.92269 202.82161 240.51746 203.48012 240.1882 204.41722 239.85895 205.35433 239.61835 206.55738 239.46637 208.02634 239.3144 209.49532 239.22577 211.38219 239.20044 213.68697 239.20044 215.94107 239.27643 217.81529 239.42839 219.30959 239.58036 220.8039 239.83362 222.01959 240.1882 222.9567 240.54279 223.8938 240.94802 224.53964 241.4039 224.89423 241.85979 225.24881 242.41699 225.45142 243.0755 225.50208 243.70868 225.50208 244.26587 225.31212 244.74709 224.93222 245.2283 224.5523 245.63355 223.8938 245.96279 222.9567 246.29204 222.01959 246.53266 220.81656 246.68462 219.34758 246.83658 217.8786 246.92522 215.99173 246.95055 213.68697ZM249.68589 213.68697C249.68589 216.16902 249.55925 218.2965 249.30597 220.0694 249.0527 221.8423 248.64748 223.29862 248.09027 224.43834 247.53308 225.57805 246.83658 226.41385 246.00078 226.94573 245.16498 227.47759 244.1899 227.7562 243.0755 227.78153 241.9611 227.78153 240.98601 227.51558 240.1502 226.98372 239.3144 226.45185 238.63059 225.60338 238.09871 224.43834 237.56684 223.27329 237.1616 221.81697 236.88301 220.0694 236.60442 218.32183 236.4651 216.19435 236.4651 213.68697 236.4651 211.2049 236.59175 209.07743 236.84502 207.30452 237.09828 205.53162 237.50353 204.0753 238.06072 202.93558 238.61792 201.79587 239.3144 200.96007 240.1502 200.42819 240.98601 199.89633 241.9611 199.61772 243.0755 199.5924 244.1899 199.5924 245.16498 199.85834 246.00078 200.39022 246.83658 200.92208 247.52042 201.77054 248.05228 202.93558 248.58415 204.10063 248.98938 205.55695 249.26799 207.30452 249.54659 209.0521 249.68589 211.17957 249.68589 213.68697Z" fill="#171919"/>
<path transform="matrix(1,0,0,1,28,28)" d="M253.33298 227.40161V225.12216C253.73822 223.77983 254.27008 222.52614 254.92859 221.36109 255.5871 220.19603 256.2836 219.08165 257.0181 218.0179 257.75257 216.95417 258.49974 215.94107 259.25953 214.97864 260.01936 214.0162 260.7032 213.05379 261.31105 212.09136 261.91889 211.12892 262.41279 210.16649 262.79267 209.20406 263.17259 208.24163 263.36256 207.2412 263.36256 206.20279 263.36256 204.75914 263.04597 203.68274 262.41279 202.97357 261.7796 202.26442 260.99446 201.89717 260.05735 201.87184 258.96827 201.87184 258.06916 202.31507 257.36 203.20153 256.65086 204.08797 256.22029 205.56961 256.06834 207.64644H253.56093C253.6369 206.10147 253.85219 204.8098 254.20677 203.77138 254.56136 202.73297 255.04257 201.90984 255.65042 201.30199 256.25828 200.69414 256.91679 200.2509 257.62596 199.9723 258.33509 199.69371 259.12025 199.56708 259.98136 199.5924 261.7796 199.5924 263.24858 200.18759 264.38829 201.37796 265.528 202.56835 266.09788 204.30326 266.09788 206.58269 266.09788 207.72241 265.9459 208.74817 265.64198 209.65995 265.33805 210.57172 264.9075 211.44551 264.35029 212.2813 263.7931 213.1171 263.18525 213.96556 262.52674 214.82668 261.86824 215.6878 261.13377 216.59958 260.32328 217.56201 259.51283 218.52445 258.753 219.63884 258.04383 220.9052 257.3347 222.17156 256.6002 223.57721 255.84038 225.12216H266.24983V227.40161H253.33298Z" fill="#171919"/>
<path transform="matrix(1,0,0,1,28,28)" d="M273.08818 217.97992C273.08818 219.37291 273.1768 220.53795 273.3541 221.47505 273.53138 222.41216 273.78465 223.18465 274.1139 223.7925 274.44316 224.40035 274.8484 224.8309 275.3296 225.08419 275.81083 225.33745 276.35536 225.47675 276.9632 225.50208 277.4951 225.50208 277.9763 225.40077 278.40687 225.19815 278.8374 224.99553 279.21733 224.64095 279.54658 224.13442 279.87583 223.62787 280.11643 222.96936 280.2684 222.15889 280.42036 221.34842 280.509 220.348 280.53434 219.15763 280.53434 217.94193 280.44569 216.9415 280.2684 216.15636 280.0911 215.37122 279.83784 214.73804 279.50859 214.25682 279.17933 213.7756 278.81208 213.45902 278.40687 213.30706 278.00163 213.15509 277.57106 213.06644 277.11518 213.04113 276.22874 213.04113 275.45625 213.28173 274.79774 213.76294 274.13923 214.24416 273.56938 214.7887 273.08818 215.39655V217.97992ZM280.15443 205.06307C280.05314 204.37923 279.90116 203.8347 279.69856 203.42946 279.4959 203.02423 279.24266 202.69498 278.93873 202.44171 278.6348 202.18843 278.34355 202.03647 278.06495 201.98583 277.78636 201.93517 277.4951 201.89717 277.19117 201.87184 275.97544 201.87184 275.013 202.74564 274.30387 204.49321 273.5947 206.24079 273.21479 209.02677 273.16413 212.85117 273.72135 212.26865 274.35453 211.77477 275.06367 211.36952 275.77284 210.9643 276.54533 210.76168 277.3811 210.76168 278.14094 210.76168 278.8754 210.90097 279.58457 211.17957 280.29374 211.45818 280.91426 211.93939 281.4461 212.62322 281.97798 213.30706 282.4212 214.18083 282.7758 215.24459 283.13038 216.30832 283.29499 217.62534 283.26966 219.19562 283.26966 221.8803 282.75047 223.98246 281.71205 225.50208 280.67366 227.0217 279.22999 227.78153 277.3811 227.78153 276.19075 227.78153 275.16499 227.59157 274.30387 227.21166 273.44273 226.83176 272.70826 226.16059 272.1004 225.19815 271.49256 224.23572 271.06199 222.94403 270.80873 221.32309 270.55546 219.70217 270.40348 217.65067 270.3528 215.1686 270.3528 212.40795 270.5048 210.0525 270.80873 208.10233 271.11265 206.15213 271.5685 204.54386 272.17637 203.2775 272.78425 202.01114 273.50605 201.0867 274.34187 200.50418 275.17765 199.92165 276.15275 199.61772 277.26713 199.5924 278.1536 199.5924 278.90074 199.71904 279.50859 199.9723 280.11643 200.22559 280.63566 200.58016 281.0662 201.03606 281.49678 201.49195 281.83869 202.0618 282.09196 202.74564 282.3452 203.42946 282.5352 204.15129 282.6618 204.9111L280.15443 205.06307Z" fill="#171919"/>
<path transform="matrix(1,0,0,1,28,28)" d="M299.37773 199.9723V227.40161H296.41444V199.9723H299.37773Z" fill="#171919"/>
<path transform="matrix(1,0,0,1,28,28)" d="M314.42204 207.03859C314.37138 206.32942 314.25743 205.68358 314.0801 205.10106 313.90284 204.51853 313.64955 203.99933 313.32029 203.54344 312.99107 203.08756 312.5605 202.73297 312.02864 202.47969 311.49674 202.22643 310.8889 202.0998 310.20506 202.0998 309.06535 202.0998 308.15357 202.42905 307.46974 203.08756 306.7859 203.74605 306.44398 204.61985 306.44398 205.70891 306.44398 206.74732 306.7099 207.63378 307.2418 208.36826 307.77366 209.10274 308.4575 209.78658 309.29328 210.41976 310.1291 211.05294 311.01554 211.67345 311.95265 212.2813 312.88975 212.88916 313.77619 213.57299 314.61198 214.33281 315.44779 215.09262 316.11897 215.99173 316.6255 217.03014 317.13203 218.06856 317.41065 219.32225 317.46128 220.79123 317.46128 222.99469 316.8661 224.70427 315.67573 225.91997 314.48536 227.13568 312.73777 227.7562 310.433 227.78153 309.36927 227.78153 308.40684 227.59157 307.54573 227.21166 306.68458 226.83176 305.96278 226.29988 305.38026 225.61605 304.7977 224.93222 304.34184 224.12175 304.01258 223.18465 303.68333 222.24755 303.506 221.19646 303.4807 220.03142H306.21604C306.2667 221.65235 306.65928 222.93137 307.39375 223.86847 308.12825 224.80558 309.2426 225.27413 310.73695 225.27413 311.97798 225.27413 312.96574 224.89423 313.7002 224.13442 314.4347 223.37459 314.80195 222.24755 314.80195 220.75324 314.80195 219.71483 314.536 218.8157 314.00413 218.0559 313.47227 217.29608 312.78843 216.57425 311.95265 215.89043 311.11683 215.20659 310.23039 214.57341 309.29328 213.99089 308.35618 213.40836 307.46974 212.71187 306.63395 211.9014 305.79814 211.09093 305.12696 210.24246 304.62043 209.35602 304.1139 208.46958 303.83528 207.34252 303.78465 205.97484 303.78465 205.0124 303.93659 204.13863 304.2405 203.35349 304.54444 202.56835 305.00035 201.89717 305.6082 201.33998 306.21604 200.78278 306.91255 200.35222 307.69767 200.0483 308.48283 199.74437 309.38194 199.5924 310.39503 199.5924 312.3705 199.5924 313.9535 200.22559 315.14387 201.49195 316.33424 202.7583 317.0054 204.60718 317.15736 207.03859H314.42204Z" fill="#171919"/>
<path transform="matrix(1,0,0,1,28,28)" d="M333.26545 213.68697C333.26545 211.35686 333.1388 209.44466 332.88554 207.95037 332.63227 206.45606 332.29035 205.27835 331.85978 204.41722 331.42924 203.5561 330.92268 202.94824 330.34016 202.59368 329.75764 202.23909 329.13713 202.07447 328.4786 202.0998 327.8201 202.0998 327.1996 202.26442 326.61708 202.59368 326.03456 202.92292 325.52799 203.51811 325.09745 204.37923 324.66688 205.24036 324.32496 206.43073 324.0717 207.95037 323.81843 209.46999 323.69178 211.38219 323.69178 213.68697 323.69178 216.01706 323.81843 217.92926 324.0717 219.42356 324.32496 220.91786 324.66688 222.09557 325.09745 222.9567 325.52799 223.81783 326.03456 224.42568 326.61708 224.78026 327.1996 225.13483 327.8201 225.29946 328.4786 225.27413 329.13713 225.27413 329.75764 225.1095 330.34016 224.78026 330.92268 224.451 331.42924 223.8558 331.85978 222.99469 332.29035 222.13356 332.63227 220.94319 332.88554 219.42356 333.1388 217.90393 333.26545 215.99173 333.26545 213.68697ZM336.2287 213.68697C336.2287 216.245 336.05143 218.41048 335.69685 220.18338 335.34226 221.95627 334.8104 223.41259 334.10124 224.5523 333.39207 225.69203 332.5816 226.51517 331.66984 227.0217 330.75807 227.52825 329.6943 227.78153 328.4786 227.78153 327.31358 227.78153 326.26249 227.52825 325.32539 227.0217 324.38829 226.51517 323.56513 225.7047 322.856 224.5903 322.14683 223.4759 321.62763 222.01959 321.29838 220.22136 320.96913 218.42314 320.77915 216.245 320.7285 213.68697 320.7285 211.12892 320.9058 208.96344 321.26039 207.19055 321.61497 205.41765 322.14683 203.96134 322.856 202.82161 323.56513 201.68189 324.3756 200.85877 325.28739 200.35222 326.19917 199.84568 327.2629 199.5924 328.4786 199.5924 329.64366 199.5924 330.69474 199.84568 331.63185 200.35222 332.56895 200.85877 333.39207 201.66922 334.10124 202.78362 334.8104 203.89801 335.3296 205.35433 335.65885 207.15256 335.9881 208.95078 336.17808 211.12892 336.2287 213.68697Z" fill="#171919"/>
<path transform="matrix(1,0,0,1,28,28)" d="M229.20345 280.61033H232.01694L230.62757 273.87187H230.59282L229.20345 280.61033ZM231.54802 272.93403 234.3094 285.47315H232.95476L232.20798 281.75657H229.0124L228.26563 285.47315H226.91098L229.67237 272.93403H231.54802Z" fill="#171919"/>
<path transform="matrix(1,0,0,1,28,28)" d="M235.61194 272.93403H240.99578V274.08027H236.96659V278.3526H239.98848V279.49885H236.96659V285.47315H235.61194V272.93403Z" fill="#171919"/>
<path transform="matrix(1,0,0,1,28,28)" d="M247.50847 276.7201C247.41585 275.72438 247.21901 275.00654 246.91799 274.56657 246.61696 274.1266 246.19435 273.9066 245.65018 273.9066 245.25652 273.9066 244.91497 273.9992 244.62552 274.18449 244.33606 274.36973 244.09871 274.67076 243.91345 275.08757 243.72821 275.50437 243.59506 276.04856 243.514 276.7201 243.43297 277.3916 243.38666 278.21946 243.37508 279.20359 243.37508 280.17616 243.4156 280.9982 243.49665 281.66975 243.5777 282.34126 243.71663 282.89125 243.91345 283.3196 244.11029 283.74803 244.34764 284.04905 244.62552 284.22273 244.90338 284.3964 245.24495 284.489 245.65018 284.50059 245.96279 284.50059 246.24066 284.4427 246.48381 284.3269 246.72695 284.21113 246.94113 284.02589 247.12639 283.77116 247.31165 283.51646 247.4448 283.18647 247.52584 282.78123 247.60689 282.376 247.65898 281.8839 247.68215 281.30503H249.03678C249.01363 282.70597 248.71259 283.77696 248.13368 284.51795 247.55478 285.25895 246.72695 285.63523 245.65018 285.64683 245.09442 285.64683 244.59078 285.53684 244.13924 285.31684 243.68769 285.09687 243.3056 284.72636 242.993 284.20536 242.68039 283.68434 242.44304 283.0186 242.28095 282.2081 242.11885 281.39765 242.03202 280.39616 242.02043 279.20359 242.02043 278.0226 242.10149 277.02113 242.26358 276.19908 242.42568 275.377 242.66881 274.71128 242.993 274.20185 243.31719 273.6924 243.69927 273.3277 244.13924 273.1077 244.57921 272.88774 245.08286 272.77195 245.65018 272.76039 246.58802 272.76039 247.32901 273.08457 247.87319 273.7329 248.41735 274.3813 248.74733 275.377 248.86312 276.7201H247.50847Z" fill="#171919"/>
<path transform="matrix(1,0,0,1,28,28)" d="M256.26155 272.93403V284.3269H260.32545V285.47315H254.90689V272.93403H256.26155Z" fill="#171919"/>
<path transform="matrix(1,0,0,1,28,28)" d="M266.97709 285.47315H265.7961V284.48323C265.4951 284.78425 265.15354 285.05055 264.77146 285.2821 264.38938 285.51368 264.04783 285.63523 263.7468 285.64683 263.12159 285.64683 262.63529 285.46159 262.28794 285.09107 261.9406 284.72059 261.76695 284.1185 261.76695 283.28489V276.4422H263.01737V283.1112C263.01737 283.63224 263.09843 284.0085 263.2605 284.24009 263.4226 284.47166 263.67155 284.5932 264.0073 284.6048 264.30833 284.6048 264.59779 284.50639 264.87565 284.30955 265.15354 284.1127 265.4372 283.84065 265.72666 283.4933V276.4422H266.97709V285.47315Z" fill="#171919"/>
<path transform="matrix(1,0,0,1,28,28)" d="M268.90486 276.4422H273.594V277.27583L270.01637 284.43113H273.594V285.47315H268.62699V284.5353L272.1004 277.48423H268.90486V276.4422Z" fill="#171919"/>
<path transform="matrix(1,0,0,1,28,28)" d="M278.891 280.12406C278.86784 279.1515 278.75205 278.43943 278.54365 277.98789 278.33525 277.53636 277.94737 277.31059 277.38005 277.31059 277.14848 277.31059 276.94587 277.35688 276.7722 277.4495 276.5985 277.5421 276.4422 277.69267 276.30329 277.90107 276.16435 278.10948 276.06013 278.3989 275.99067 278.7694 275.9212 279.13993 275.88069 279.59147 275.86909 280.12406H278.891ZM275.86909 281.16609V281.66975C275.86909 282.2255 275.89805 282.6886 275.95594 283.0591 276.01383 283.4296 276.118 283.73063 276.26853 283.9622 276.41908 284.19377 276.5927 284.35588 276.78956 284.4485 276.9864 284.5411 277.2411 284.5932 277.5537 284.6048 277.79685 284.6048 277.99949 284.55848 278.16157 284.46586 278.32368 284.37324 278.46839 284.24009 278.59574 284.0664 278.7231 283.89274 278.8215 283.71327 278.891 283.528 278.96046 283.34278 279.01835 283.13438 279.06468 282.9028L280.24565 283.04176C280.1993 283.3775 280.1009 283.7017 279.95039 284.0143 279.79988 284.3269 279.60304 284.6048 279.3599 284.84794 279.11677 285.09107 278.8331 285.2821 278.5089 285.42106 278.18473 285.55998 277.80845 285.63523 277.38005 285.64683 276.43064 285.64683 275.73594 285.2763 275.296 284.5353 274.85603 283.7943 274.63023 282.60179 274.61866 280.95768 274.61866 279.32518 274.83866 278.1384 275.2786 277.3974 275.71858 276.6564 276.41908 276.28013 277.38005 276.26853 277.85475 276.26853 278.26579 276.36695 278.6131 276.56379 278.96046 276.7606 279.2441 277.05006 279.4641 277.43214 279.68409 277.8142 279.85197 278.27156 279.96775 278.80415 280.08354 279.33674 280.14143 279.92723 280.14143 280.5756V281.16609H275.86909Z" fill="#171919"/>
<path transform="matrix(1,0,0,1,28,28)" d="M281.91288 276.4422H283.1633V277.53636H283.19807C283.3833 277.25846 283.55699 277.03849 283.71907 276.87638 283.88117 276.7143 284.05485 276.58695 284.24009 276.4943 284.42533 276.40168 284.61637 276.34379 284.8132 276.32066 285.01 276.2975 285.23579 276.28013 285.4905 276.26853V277.4495C285.25895 277.4495 285.03898 277.47267 284.83058 277.51899 284.62217 277.56529 284.42533 277.64634 284.24009 277.76213 284.05485 277.8779 283.86958 278.03999 283.68434 278.24839 283.49909 278.4568 283.3254 278.72309 283.1633 279.04728V285.47315H281.91288V276.4422Z" fill="#171919"/>
<path transform="matrix(1,0,0,1,28,28)" d="M286.84516 276.4422H288.02613V277.43214C288.32716 277.1311 288.6687 276.8648 289.05079 276.63325 289.43287 276.40168 289.7744 276.28013 290.07545 276.26853 290.70066 276.26853 291.18696 276.4538 291.5343 276.82429 291.88163 277.1948 292.0553 277.79685 292.0553 278.63047V285.47315H290.80488V278.80415C290.80488 278.28315 290.72383 277.90684 290.56175 277.67527 290.39964 277.44374 290.1507 277.32215 289.81495 277.31059 289.51393 277.31059 289.22447 277.40898 288.9466 277.6058 288.6687 277.80265 288.38505 278.0747 288.09559 278.42207V285.47315H286.84516V276.4422Z" fill="#171919"/>
<path transform="matrix(1,0,0,1,28,28)" d="M299.66215 272.93403V284.3269H303.72608V285.47315H298.3075V272.93403H299.66215Z" fill="#171919"/>
<path transform="matrix(1,0,0,1,28,28)" d="M305.21965 272.93403H306.4701V274.39289H305.21965V272.93403ZM305.21965 276.4422H306.4701V285.47315H305.21965V276.4422Z" fill="#171919"/>
<path transform="matrix(1,0,0,1,28,28)" d="M309.63093 280.95768C309.63093 281.71028 309.65986 282.3181 309.71775 282.78123 309.77565 283.24436 309.86247 283.61488 309.97825 283.89274 310.09403 284.1706 310.25035 284.35588 310.44718 284.4485 310.64399 284.5411 310.87556 284.5932 311.14186 284.6048 311.40815 284.6048 311.6339 284.55848 311.81919 284.46586 312.00444 284.37324 312.16075 284.18797 312.2881 283.9101 312.41545 283.63224 312.5081 283.26173 312.56599 282.79859 312.62385 282.33549 312.6528 281.72184 312.6528 280.95768 312.6528 280.21669 312.62385 279.60884 312.56599 279.13414 312.5081 278.65943 312.42124 278.2889 312.30546 278.0226 312.18968 277.75633 312.03337 277.57109 311.83656 277.46687 311.6397 277.36268 311.40815 277.31059 311.14186 277.31059 310.87556 277.31059 310.64979 277.35688 310.46455 277.4495 310.2793 277.5421 310.123 277.7274 309.9956 278.00526 309.86827 278.28315 309.77565 278.65943 309.71775 279.13414 309.65986 279.60884 309.63093 280.21669 309.63093 280.95768ZM308.38047 280.95768C308.38047 279.32518 308.60047 278.1384 309.04045 277.3974 309.4804 276.6564 310.18089 276.28013 311.14186 276.26853 312.09126 276.26853 312.78596 276.63905 313.22593 277.38005 313.6659 278.12104 313.89167 279.31358 313.90324 280.95768 313.90324 282.59019 313.68327 283.77696 313.2433 284.51795 312.8033 285.25895 312.10285 285.63523 311.14186 285.64683 310.19245 285.64683 309.49778 285.2763 309.0578 284.5353 308.61784 283.7943 308.39207 282.60179 308.38047 280.95768Z" fill="#171919"/>
<path transform="matrix(1,0,0,1,28,28)" d="M315.7789 276.4422H316.95988V277.43214C317.2609 277.1311 317.60246 276.8648 317.98454 276.63325 318.3666 276.40168 318.70817 276.28013 319.0092 276.26853 319.6344 276.26853 320.1207 276.4538 320.46806 276.82429 320.81538 277.1948 320.98905 277.79685 320.98905 278.63047V285.47315H319.73863V278.80415C319.73863 278.28315 319.65757 277.90684 319.49549 277.67527 319.33338 277.44374 319.08445 277.32215 318.7487 277.31059 318.44767 277.31059 318.1582 277.40898 317.8803 277.6058 317.60246 277.80265 317.3188 278.0747 317.02934 278.42207V285.47315H315.7789V276.4422Z" fill="#171919"/>
<path transform="matrix(1,0,0,1,28,28)" d="M326.9981 278.73469C326.94023 278.53785 326.87654 278.3526 326.80708 278.17893 326.73759 278.00526 326.6392 277.85475 326.5118 277.7274 326.38447 277.6 326.23976 277.50163 326.07765 277.43214 325.91557 277.36268 325.70137 277.32215 325.43507 277.31059 325.13404 277.31059 324.89088 277.41477 324.70564 277.62318 324.5204 277.83158 324.42778 278.0863 324.42778 278.38734 324.42778 278.68836 324.5204 278.94889 324.70564 279.16886 324.89088 279.38883 325.12825 279.60304 325.4177 279.81144 325.70716 280.01985 326.01396 280.21669 326.33815 280.40193 326.66233 280.5872 326.96916 280.80717 327.2586 281.0619 327.54808 281.3166 327.77964 281.61186 327.9533 281.9476 328.12696 282.28337 328.22538 282.68284 328.24855 283.14595 328.24855 283.50486 328.19065 283.83485 328.07487 284.13587 327.95909 284.4369 327.7854 284.69743 327.55387 284.9174 327.3223 285.1374 327.06178 285.31684 326.77235 285.45579 326.48289 285.59474 326.1529 285.6584 325.7824 285.64683 324.96037 285.64683 324.32936 285.43843 323.88938 285.0216 323.4494 284.6048 323.11943 284.0143 322.89945 283.25016L324.0457 283.007C324.11515 283.20384 324.1962 283.39488 324.28883 283.5801 324.38145 283.76539 324.49143 283.93907 324.6188 284.10115 324.74617 284.26325 324.90248 284.3848 325.0877 284.46586 325.27296 284.5469 325.4756 284.5932 325.69557 284.6048 325.86924 284.6048 326.0313 284.57005 326.18186 284.50059 326.33238 284.43113 326.47129 284.3327 326.59867 284.20536 326.726 284.07798 326.82444 283.93327 326.8939 283.77116 326.96339 283.60908 326.9981 283.4296 326.9981 283.2328 326.9981 282.88545 326.9055 282.59019 326.7202 282.34706 326.53498 282.1039 326.29765 281.87815 326.00819 281.66975 325.71873 281.46134 325.4119 281.2587 325.0877 281.0619 324.76353 280.86506 324.4567 280.65086 324.16725 280.41929 323.8778 280.18775 323.64625 279.90986 323.47257 279.58567 323.2989 279.26148 323.20048 278.8852 323.1773 278.4568 323.1773 278.16737 323.2352 277.88948 323.35099 277.62318 323.46678 277.35688 323.62889 277.1253 323.83729 276.9285 324.0457 276.73167 324.28883 276.56959 324.56669 276.4422 324.84458 276.31486 325.16297 276.25697 325.52189 276.26853 326.21659 276.26853 326.77235 276.4538 327.18916 276.82429 327.60597 277.1948 327.88963 277.7274 328.04014 278.42207L326.9981 278.73469Z" fill="#171919"/>
<path transform="matrix(1,0,0,1,28,28)" d="M261.3154 310.8987C261.29225 310.57453 261.2401 310.27928 261.1591 310.01298 261.07804 309.74668 260.96226 309.50935 260.81175 309.30094 260.66123 309.09254 260.4644 308.93043 260.22126 308.81465 259.97813 308.69886 259.70024 308.64097 259.38764 308.64097 258.8666 308.64097 258.4498 308.79148 258.13719 309.09254 257.8246 309.39356 257.66828 309.793 257.66828 310.29087 257.66828 310.76557 257.78987 311.17079 258.033 311.50657 258.27613 311.84233 258.58876 312.15495 258.97084 312.4444 259.3529 312.73384 259.75813 313.01753 260.18653 313.29539 260.6149 313.57325 261.02015 313.88587 261.40223 314.23323 261.7843 314.58055 262.09114 314.99159 262.3227 315.46629 262.55424 315.94099 262.6816 316.5141 262.70478 317.18565 262.70478 318.19294 262.43269 318.97447 261.8885 319.5302 261.34434 320.08595 260.54545 320.3696 259.49183 320.3812 259.00556 320.3812 258.56559 320.29435 258.17195 320.1207 257.77827 319.94703 257.4483 319.70387 257.182 319.39128 256.9157 319.07865 256.70729 318.70817 256.55677 318.27976 256.40626 317.85139 256.32524 317.37089 256.31364 316.8383H257.56407C257.58723 317.57929 257.7667 318.16398 258.10246 318.59239 258.43824 319.02076 258.94767 319.23497 259.63078 319.23497 260.1981 319.23497 260.64964 319.06129 260.9854 318.71394 261.32118 318.3666 261.48905 317.85139 261.48905 317.16828 261.48905 316.69358 261.3675 316.28254 261.12437 315.93519 260.8812 315.58787 260.5686 315.25788 260.18653 314.94526 259.80445 314.63267 259.3992 314.3432 258.97084 314.0769 258.54243 313.8106 258.13719 313.49223 257.7551 313.1217 257.37306 312.75123 257.06623 312.36335 256.83467 311.9581 256.6031 311.55287 256.47575 311.03767 256.45259 310.4124 256.45259 309.97245 256.52204 309.573 256.66099 309.21409 256.79994 308.85517 257.00834 308.54835 257.2862 308.29365 257.56407 308.0389 257.88249 307.84208 258.2414 307.70317 258.6003 307.5642 259.01133 307.49476 259.47447 307.49476 260.37757 307.49476 261.1012 307.78419 261.64537 308.3631 262.18955 308.94203 262.49635 309.7872 262.56584 310.8987H261.3154Z" fill="#171919"/>
<path transform="matrix(1,0,0,1,28,28)" d="M268.27964 314.85844C268.25648 313.88587 268.1407 313.1738 267.93229 312.72227 267.72389 312.27073 267.336 312.04496 266.76869 312.04496 266.5371 312.04496 266.3345 312.09126 266.16084 312.18388 265.98716 312.2765 265.83088 312.42704 265.69194 312.63545 265.55299 312.84385 265.4488 313.13328 265.3793 313.50379 265.30986 313.8743 265.26933 314.32585 265.25776 314.85844H268.27964ZM265.25776 315.90046V316.4041C265.25776 316.95988 265.28669 317.42298 265.34458 317.7935 265.40248 318.16398 265.50669 318.465 265.6572 318.69657 265.8077 318.92814 265.98139 319.09025 266.1782 319.18287 266.37504 319.27549 266.62977 319.32759 266.94236 319.33918 267.1855 319.33918 267.38813 319.29286 267.5502 319.20024 267.7123 319.1076 267.85704 318.97447 267.98439 318.80079 268.11177 318.6271 268.21018 318.44764 268.27964 318.2624 268.3491 318.07716 268.40699 317.86875 268.4533 317.63719L269.63429 317.77613C269.58796 318.11189 269.48954 318.43608 269.33903 318.7487 269.1885 319.06129 268.9917 319.33918 268.74855 319.5823 268.5054 319.82545 268.22175 320.01649 267.89756 320.15544 267.57337 320.29435 267.19709 320.3696 266.76869 320.3812 265.81929 320.3812 265.1246 320.01069 264.68464 319.26969 264.24467 318.5287 264.0189 317.33616 264.0073 315.69206 264.0073 314.05955 264.2273 312.87278 264.66728 312.13179 265.10725 311.39079 265.8077 311.0145 266.76869 311.0029 267.24339 311.0029 267.65443 311.10133 268.00178 311.29817 268.3491 311.49497 268.63276 311.78443 268.85276 312.1665 269.07273 312.54859 269.2406 313.00593 269.35639 313.5385 269.47218 314.0711 269.53007 314.6616 269.53007 315.30998V315.90046H265.25776Z" fill="#171919"/>
<path transform="matrix(1,0,0,1,28,28)" d="M271.40574 311.17658H272.5867V312.1665C272.88774 311.86549 273.22929 311.59919 273.61137 311.3676 273.99345 311.13606 274.335 311.0145 274.63603 311.0029 275.26124 311.0029 275.74754 311.18818 276.09489 311.55867 276.4422 311.92918 276.61589 312.53123 276.61589 313.36485V320.20753H275.36546V313.5385C275.36546 313.01753 275.2844 312.6412 275.1223 312.40965 274.9602 312.1781 274.71128 312.05653 274.37553 312.04496 274.0745 312.04496 273.78504 312.14335 273.50715 312.34019 273.22929 312.53703 272.94563 312.80909 272.65617 313.15644V320.20753H271.40574V311.17658Z" fill="#171919"/>
<path transform="matrix(1,0,0,1,28,28)" d="M279.16886 307.6684H280.4193V309.12727H279.16886V307.6684ZM279.16886 311.17658H280.4193V320.20753H279.16886V311.17658Z" fill="#171919"/>
<path transform="matrix(1,0,0,1,28,28)" d="M283.58015 315.69206C283.58015 316.44465 283.60908 317.0525 283.66697 317.5156 283.72486 317.97874 283.81169 318.34925 283.92747 318.6271 284.04325 318.90498 284.19956 319.09025 284.3964 319.18287 284.5932 319.27549 284.82478 319.32759 285.09107 319.33918 285.35737 319.33918 285.58314 319.29286 285.7684 319.20024 285.95365 319.1076 286.10997 318.92234 286.2373 318.64448 286.36466 318.3666 286.4573 317.9961 286.51518 317.53297 286.57307 317.06986 286.60203 316.4562 286.60203 315.69206 286.60203 314.95106 286.57307 314.3432 286.51518 313.8685 286.4573 313.3938 286.37046 313.0233 286.25468 312.757 286.1389 312.4907 285.98258 312.30546 285.78578 312.20124 285.58894 312.09706 285.35737 312.04496 285.09107 312.04496 284.82478 312.04496 284.599 312.09126 284.41377 312.18388 284.22853 312.2765 284.0722 312.46177 283.94483 312.73963 283.81748 313.01753 283.72486 313.3938 283.66697 313.8685 283.60908 314.3432 283.58015 314.95106 283.58015 315.69206ZM282.32969 315.69206C282.32969 314.05955 282.54969 312.87278 282.98966 312.13179 283.42964 311.39079 284.1301 311.0145 285.09107 311.0029 286.04048 311.0029 286.73518 311.3734 287.17515 312.1144 287.6151 312.8554 287.84089 314.04795 287.85246 315.69206 287.85246 317.32456 287.63249 318.51133 287.1925 319.25233 286.75254 319.99333 286.05207 320.3696 285.09107 320.3812 284.14167 320.3812 283.447 320.01069 283.00703 319.26969 282.56706 318.5287 282.34129 317.33616 282.32969 315.69206Z" fill="#171919"/>
<path transform="matrix(1,0,0,1,28,28)" d="M289.6239 311.17658H290.87437V312.27073H290.9091C291.09434 311.99284 291.268 311.77287 291.43009 311.61076 291.5922 311.44868 291.76588 311.32133 291.9511 311.22868 292.13636 311.13606 292.3274 311.07817 292.52424 311.05503 292.72108 311.03187 292.94685 311.0145 293.20155 311.0029V312.18388C292.97 312.18388 292.75 312.20704 292.5416 312.25337 292.3332 312.29966 292.13636 312.3807 291.9511 312.4965 291.76588 312.61228 291.5806 312.77436 291.39537 312.98277 291.2101 313.19117 291.03645 313.45747 290.87437 313.78166V320.20753H289.6239V311.17658Z" fill="#171919"/>
<path transform="matrix(1,0,0,1,28,28)" d="M298.06437 313.46907C298.00648 313.27223 297.94279 313.08699 297.87333 312.9133 297.80387 312.73963 297.70545 312.5891 297.57807 312.46177 297.4507 312.33439 297.306 312.236 297.1439 312.1665 296.9818 312.09706 296.7676 312.05653 296.5013 312.04496 296.2003 312.04496 295.95716 312.14915 295.77189 312.35755 295.58665 312.56596 295.49403 312.82069 295.49403 313.1217 295.49403 313.42274 295.58665 313.68327 295.77189 313.90324 295.95716 314.1232 296.1945 314.3374 296.48396 314.5458 296.7734 314.7542 297.08024 314.95106 297.40443 315.1363 297.7286 315.32157 298.0354 315.54154 298.32487 315.79627 298.61433 316.05097 298.8459 316.34623 299.01957 316.68199 299.19325 317.01774 299.29164 317.4172 299.3148 317.8803 299.3148 318.23924 299.2569 318.5692 299.1411 318.87025 299.02534 319.17127 298.85169 319.4318 298.62013 319.65177 298.38856 319.87178 298.12806 320.0512 297.8386 320.19017 297.54914 320.3291 297.21916 320.39277 296.84867 320.3812 296.0266 320.3812 295.3956 320.1728 294.95564 319.75599 294.51567 319.33918 294.1857 318.7487 293.9657 317.98454L295.11195 317.74137C295.1814 317.9382 295.26246 318.12925 295.35508 318.31449 295.4477 318.49977 295.5577 318.67344 295.68507 318.8355 295.8124 318.99763 295.96873 319.11918 296.15397 319.20024 296.3392 319.28129 296.54185 319.32759 296.7618 319.33918 296.9355 319.33918 297.0976 319.3044 297.2481 319.23497 297.39863 319.1655 297.53758 319.06709 297.66493 318.93974 297.79228 318.81236 297.8907 318.66764 297.96015 318.50553 298.02964 318.34346 298.06437 318.16398 298.06437 317.96717 298.06437 317.6198 297.97175 317.32456 297.7865 317.08143 297.60124 316.8383 297.3639 316.61253 297.07444 316.4041 296.78498 316.1957 296.47816 315.99308 296.15397 315.79627 295.82978 315.59944 295.52296 315.38523 295.23353 315.15367 294.94407 314.92213 294.7125 314.64424 294.53883 314.32005 294.36515 313.99586 294.26673 313.61958 294.2436 313.19117 294.2436 312.90174 294.30149 312.62385 294.41725 312.35755 294.53303 312.09126 294.69514 311.85969 294.90354 311.66288 295.11195 311.46604 295.35508 311.30397 295.63298 311.17658 295.91084 311.04924 296.22923 310.99134 296.58815 311.0029 297.28285 311.0029 297.8386 311.18818 298.2554 311.55867 298.6722 311.92918 298.95588 312.46177 299.10639 313.15644L298.06437 313.46907Z" fill="#171919"/>
<path transform="matrix(1,0,0,1,28,28)" d="M261.89549 364.4857C262.78913 364.57823 263.51255 364.9465 264.06568 365.59059 264.6188 366.23466 264.8723 367.0054 264.8262 367.90284 264.72209 368.86549 264.2984 369.62464 263.5552 370.18025L263.44938 371.5998C263.08525 372.2213 262.6084 372.72016 262.01887 373.0963 261.42936 373.47248 260.7963 373.7823 260.11976 374.0258L260.38539 370.55067C259.77229 370.27507 259.2909 369.85746 258.94126 369.29786 258.59159 368.73823 258.43763 368.11177 258.47938 367.41847 258.50025 367.15879 258.55113 366.90983 258.63203 366.6715 258.27964 366.02006 257.7663 365.40913 257.09199 364.83869 256.41767 364.26826 255.60541 363.83717 254.6552 363.54545 254.3372 363.4635 254.01667 363.40653 253.69358 363.37449 254.02733 363.27763 254.35807 363.2047 254.68573 363.1557 256.21183 362.9008 257.6219 363.04936 258.91593 363.6014 259.53059 363.84309 260.17268 364.17179 260.8423 364.58747 261.1786 364.49504 261.52967 364.46113 261.89549 364.4857ZM258.0001 376.3663C259.14024 376.25608 260.19438 375.9509 261.16255 375.4508 262.1307 374.9507 262.8913 374.22709 263.4443 373.27989 263.1578 374.70094 262.61827 375.88755 261.82566 376.83973 261.03306 377.7919 259.99665 378.6076 258.7165 379.28684 258.5086 380.03157 258.1016 380.62437 257.49549 381.06523 256.88935 381.50608 256.1895 381.7043 255.39603 381.65989 254.59758 381.58299 253.9313 381.28294 253.39719 380.7598 252.86307 380.23667 252.54737 379.59474 252.45005 378.83399L252.2801 378.719 250.98265 377.8408C250.40431 376.5247 250.25643 375.15669 250.53899 373.7368L252.54978 375.18385 253.6722 375.97654C254.29735 375.48878 255.03342 375.2676 255.8804 375.31306 256.74674 375.39958 257.45329 375.75065 258.0001 376.3663ZM249.80731 370.90379C249.30672 371.798 249.02117 372.7563 248.95063 373.77864 248.88008 374.80097 249.00893 375.788 249.33718 376.73976 248.35169 375.80027 247.66823 374.81108 247.28682 373.77217 246.90541 372.73323 246.74018 371.50538 246.79113 370.08866 246.1146 369.42027 245.79778 368.59159 245.84069 367.60264 245.9318 366.70854 246.29958 365.98478 246.94402 365.4313 247.58846 364.87788 248.35973 364.62373 249.25782 364.66889 249.61652 364.6994 249.95232 364.78285 250.26525 364.9192L252.03079 364.07563C252.49347 364.16145 252.93885 364.29203 253.36692 364.4674 253.786 364.62834 254.17609 364.84577 254.53716 365.1197 254.8594 365.34388 255.1562 365.60169 255.42757 365.89308L254.44252 366.35609 253.1807 366.91883 252.16207 367.37165C252.19718 367.60334 252.20633 367.8411 252.18955 368.085 252.12476 368.78388 251.87604 369.38468 251.44338 369.88743 251.01073 370.39018 250.46537 370.72895 249.80731 370.90379ZM271.9444 372.1778H272.93858C274.07695 372.09608 274.61289 372.52925 274.54643 373.4773V379.41914C274.5644 379.42225 274.77699 379.4348 275.18418 379.45677 275.5914 379.47874 276.08537 379.49128 276.66609 379.49443 277.23197 379.49128 277.70957 379.47874 278.09889 379.45677 278.4882 379.43479 278.69105 379.42225 278.7074 379.41914V373.45594C278.74186 371.93577 278.33003 370.87055 277.4719 370.26026 276.61378 369.64997 275.10267 369.35633 272.93858 369.3794H271.9454V364.7401C271.92018 364.73674 271.70198 364.72315 271.29084 364.6994 270.87968 364.67567 270.4269 364.66209 269.93257 364.6587 269.34825 364.66209 268.84474 364.67567 268.42207 364.6994 267.9994 364.72315 267.778 364.7367 267.75794 364.7401V379.4191C267.77366 379.42225 267.97727 379.43479 268.36875 379.45677 268.76026 379.47874 269.2452 379.49128 269.8237 379.49443 270.36973 379.49128 270.8539 379.47874 271.2763 379.45677 271.6987 379.43479 271.9214 379.42225 271.9444 379.4191V372.1778ZM291.27897 376.44566 291.27894 369.45674C291.24986 369.4535 291.0193 369.4406 290.58723 369.41804 290.15516 369.39549 289.69615 369.3826 289.21015 369.3794 288.66526 369.3826 288.18565 369.3955 287.77125 369.41807 287.35688 369.4406 287.13877 369.4535 287.1169 369.45674V376.04066C287.12083 376.59864 286.6836 376.87678 285.80525 376.8751 284.94535 376.8773 284.5159 376.59916 284.51695 376.04066V369.45674C284.4896 369.4535 284.26268 369.4406 283.83616 369.41804 283.40965 369.39549 282.94767 369.3826 282.45018 369.3794 281.9167 369.3826 281.43638 369.3955 281.00923 369.41807 280.5821 369.4406 280.35618 369.4535 280.3315 369.45674V376.44566C280.33827 377.69416 280.8079 378.5227 281.7404 378.93128 282.6729 379.33988 284.02784 379.5276 285.80525 379.49443 287.58216 379.52766 288.93699 379.3401 289.8697 378.93168 290.80238 378.5233 291.27214 377.6946 291.27897 376.44566ZM300.03953 364.7401 300.04057 369.3794H298.29536C296.2764 369.36045 294.78205 369.74333 293.81227 370.528 292.8425 371.3127 292.36067 372.61299 292.36677 374.42878 292.3394 375.9781 292.7966 377.19306 293.73838 378.0737 294.68016 378.9543 296.27073 379.4028 298.51008 379.4191H304.22599V364.7401C304.20256 364.73674 303.98103 364.72315 303.56147 364.6994 303.14195 364.67567 302.665 364.66209 302.1307 364.6587 301.56278 364.66209 301.07685 364.67567 300.673 364.6994 300.26914 364.72315 300.05799 364.7367 300.03953 364.7401ZM300.03953 372.0964V376.78047H298.6444C297.7567 376.77946 297.17097 376.58149 296.88713 376.18656 296.60325 375.7916 296.47364 375.2057 296.49827 374.42878 296.49314 373.55827 296.6438 372.94859 296.95033 372.59974 297.25685 372.2509 297.74998 372.0831 298.4297 372.0964H300.03953ZM306.11976 365.08815V379.41914C306.14326 379.42225 306.3781 379.4348 306.8243 379.45677 307.2705 379.47874 307.787 379.49128 308.37376 379.49443 308.87028 379.49128 309.33168 379.47874 309.75794 379.45677 310.18424 379.43479 310.41108 379.42225 310.43849 379.41914V364.6587L306.11976 365.08815Z" fill="#171919"/>
<text fill="#171919" xml:space="preserve" transform="matrix(.5427246 0 0 .5427246 28 28)" font-size="16" font-family="Arial"><tspan y="1344" x="457.73439 466.5 471.5 474.5 482.5 486.5 494.5 502.5 506.5 510.5 518.5 526.5 530.5 538.5 546.5 550.5 558.5">Printed: 10/12/25</tspan></text>
</g>
</svg>
